<svg width="202" height="54" viewBox="0 0 202 54" fill="none" xmlns="http://www.w3.org/2000/svg">
<path fill-rule="evenodd" clip-rule="evenodd" d="M21.5347 9.5115C20.7092 9.89486 20.2286 10.371 19.8699 11.1608C19.6105 11.7318 19.5764 12.2372 19.5734 15.5541C19.5686 20.7742 19.7278 20.5712 15.5498 20.6867C12.7575 20.7639 12.6968 20.773 12.0406 21.2076C11.5786 21.5136 11.2558 21.9012 10.9933 22.465C10.6177 23.272 10.6139 23.3293 10.6158 28.1527C10.6178 33.5291 10.6565 33.773 11.6541 34.7089C12.443 35.4489 13.2284 35.6188 15.861 35.6188C19.5568 35.6188 19.4128 35.3585 19.4128 42.0416C19.4128 46.4661 19.4411 46.9945 19.7286 47.9252C20.5431 50.5619 22.8145 52.6484 25.5805 53.3006C27.037 53.644 48.6659 53.6438 50.2987 53.3004C53.308 52.6674 55.7299 50.3311 56.4224 47.3926C56.7745 45.8988 56.7812 23.5588 56.4299 22.2102C55.7435 19.5748 53.976 17.6364 51.3227 16.6093C50.6455 16.3471 49.9267 16.2088 49.2006 16.201L42.7782 16.1313L35.8615 16.0564C35.4794 16.0523 35.1194 15.8768 34.8807 15.5783C34.5374 15.1491 34.5033 14.959 34.4994 13.4564C34.4947 11.6179 34.2639 10.8777 33.4609 10.1247C32.5266 9.24854 32.2682 9.21223 27.0018 9.216C22.6218 9.21915 22.1039 9.24712 21.5347 9.5115ZM8.69723 10.3032C8.30143 10.699 8.08267 11.2382 8.09077 11.7978L8.12619 14.2451L8.16289 16.7719C8.17026 17.2799 8.38683 17.7624 8.76151 18.1056C9.13923 18.4515 9.63281 18.6433 10.145 18.6433H12.5096C17.1392 18.6433 17.0551 18.7262 17.0551 14.1709C17.0551 9.57406 17.167 9.68409 12.4862 9.68409H10.1919C9.63132 9.68409 9.09365 9.90679 8.69723 10.3032ZM33.8734 26.0506C33.225 26.1367 32.6415 26.2592 32.5769 26.323C32.3305 26.5658 31.6068 33.3114 31.698 34.5158C31.7313 34.9556 31.9838 35.3492 32.3696 35.5629L33.125 35.9812L33.5461 36.2144C34.1489 36.5483 34.8698 36.5935 35.5096 36.3376C38.0784 35.3099 40.343 36.2487 40.1176 38.2481C39.8616 40.5195 36.7482 40.8359 34.0615 38.8636C33.6322 38.5486 33.2074 38.2908 33.1173 38.2908C32.94 38.2908 30.571 40.8923 30.5749 41.0828C30.58 41.3205 30.836 41.5707 31.8839 42.3613C34.26 44.1543 36.436 44.7993 38.8347 44.4218C40.3567 44.1824 41.6503 43.5336 42.8574 42.4044C45.1333 40.2754 45.743 37.4898 44.452 35.1182C44.2155 34.6837 43.7721 34.1201 43.4667 33.8657C42.0129 32.6558 39.6521 32.0121 37.8673 32.3395C36.0813 32.6671 36.1591 32.705 36.1056 31.4787C36.0347 29.8489 35.9315 29.8948 39.3736 30.0227C40.9735 30.0823 42.6783 30.1722 43.1619 30.2226C43.8329 30.2926 44.0611 30.2624 44.1253 30.095C44.2293 29.8242 43.9415 26.6223 43.7999 26.4722C43.3947 26.0432 36.2235 25.7388 33.8734 26.0506Z" fill="url(#paint0_linear_18414_3962)"/>
<rect x="27.9005" y="19.1149" width="19.8047" height="31.5932" fill="url(#paint1_linear_18414_3962)"/>
<path d="M37.727 28.9071C37.2857 28.9071 36.8574 28.8293 36.4421 28.6737C36.0527 28.4922 35.7023 28.2588 35.3908 27.9736C35.1053 27.6624 34.8717 27.3124 34.69 26.9234C34.5342 26.5345 34.4563 26.1066 34.4563 25.6399C34.4563 25.1731 34.5342 24.7453 34.69 24.3563C34.8717 23.9674 35.1053 23.6303 35.3908 23.3451C35.7023 23.0339 36.0527 22.8005 36.4421 22.6449C36.8574 22.4634 37.2857 22.3727 37.727 22.3727C38.6355 22.3727 39.4142 22.6968 40.0631 23.3451C40.7121 23.9674 41.0365 24.7323 41.0365 25.6399C41.0365 26.5474 40.7121 27.3253 40.0631 27.9736C39.4142 28.5959 38.6355 28.9071 37.727 28.9071ZM37.7464 50.7274C36.3379 50.7274 35.1961 49.5855 35.1961 48.177V34.219C35.1961 32.8105 36.3379 31.6687 37.7464 31.6687C39.1549 31.6687 40.2967 32.8105 40.2967 34.219V48.177C40.2967 49.5855 39.1549 50.7274 37.7464 50.7274Z" fill="white"/>
<circle cx="5.02487" cy="7.65698" r="2.27316" fill="#23EBA1"/>
<circle cx="19.621" cy="3.82848" r="3.82848" fill="#25F29A"/>
<circle cx="3.64902" cy="21.595" r="3.64902" fill="#19D0BC"/>
<path d="M60.4356 21.5277H63.9713V35.5581H60.4356V21.5277ZM79.7032 33.1449L78.5621 33.3506V21.5277H81.9855V35.5581H77.5332L68.984 23.7352L70.1252 23.5294V35.5581H66.7018V21.5277H71.285L79.7032 33.1449ZM89.1483 23.0804H92.6839V35.5581H89.1483V23.0804ZM83.6858 21.5277H98.1464V24.6518H83.6858V21.5277ZM100.065 32.7333V29.8898H109.755V32.7333H100.065ZM107.286 21.5277L113.758 35.5581H109.998L104.442 23.0056H105.527L99.9899 35.5581H96.2298L102.702 21.5277H107.286ZM118.722 21.5277V33.9867L117.132 32.434H127.646V35.5581H115.187V21.5277H118.722ZM132.881 21.5277V33.9867L131.291 32.434H141.804V35.5581H129.345V21.5277H132.881ZM143.503 21.5277H147.039V35.5581H143.503V21.5277ZM152.295 32.7333V29.8898H161.985V32.7333H152.295ZM159.516 21.5277L165.989 35.5581H162.228L156.672 23.0056H157.757L152.22 35.5581H148.46L154.933 21.5277H159.516ZM170.762 26.5225C170.837 25.4375 171.192 24.5022 171.828 23.7165C172.465 22.9183 173.306 22.3072 174.354 21.8832C175.414 21.4467 176.611 21.2284 177.946 21.2284C179.218 21.2284 180.328 21.4217 181.276 21.8083C182.223 22.195 182.965 22.7375 183.502 23.4359C184.038 24.1343 184.306 24.9387 184.306 25.8491C184.306 26.5599 184.119 27.2209 183.745 27.832C183.371 28.4307 182.778 29.0293 181.968 29.6279C181.157 30.2265 180.091 30.8626 178.769 31.536L174.709 33.6687L174.522 32.752H184.699V35.5581H171.005V33.0887L177.029 29.6279C177.989 29.0792 178.738 28.6115 179.274 28.2249C179.823 27.8258 180.209 27.4579 180.434 27.1212C180.658 26.7844 180.771 26.4228 180.771 26.0361C180.771 25.6371 180.658 25.2816 180.434 24.9698C180.222 24.6581 179.898 24.4149 179.461 24.2403C179.025 24.0657 178.476 23.9784 177.815 23.9784C177.029 23.9784 176.381 24.0968 175.869 24.3338C175.358 24.5583 174.978 24.8638 174.728 25.2505C174.479 25.6371 174.329 26.0611 174.279 26.5225H170.762ZM198.416 21.5277V35.5581H194.918V23.0617H196.04L188.576 31.3303L188.538 30.2078H200.736V32.8455H185.938V30.3575L193.945 21.5277H198.416Z" fill="#242426"/>
<path d="M59.8892 51.5581V44.3866H62.9022C63.3065 44.3866 63.6562 44.4636 63.9514 44.6177C64.253 44.7653 64.4841 44.9738 64.6445 45.2434C64.8114 45.5129 64.8948 45.8273 64.8948 46.1867C64.8948 46.5589 64.8017 46.8894 64.6156 47.1782C64.4359 47.4606 64.176 47.6756 63.8359 47.8232L63.8263 47.5921C64.1086 47.6948 64.3493 47.8392 64.5482 48.0253C64.7536 48.2114 64.9108 48.4296 65.0199 48.6799C65.129 48.9238 65.1836 49.1869 65.1836 49.4692C65.1836 50.111 64.9782 50.6212 64.5675 50.9998C64.1632 51.372 63.6113 51.5581 62.9118 51.5581H59.8892ZM60.6593 50.8361H62.9118C63.3674 50.8361 63.73 50.7174 63.9996 50.48C64.2755 50.2361 64.4135 49.9024 64.4135 49.4789C64.4135 49.0617 64.2755 48.7312 63.9996 48.4874C63.73 48.2371 63.3674 48.1119 62.9118 48.1119H60.6593V50.8361ZM60.6593 47.4189H62.8444C63.2295 47.4189 63.5375 47.3066 63.7685 47.082C64.006 46.8573 64.1247 46.5686 64.1247 46.2156C64.1247 45.8562 64.006 45.5835 63.7685 45.3974C63.5375 45.2049 63.2295 45.1086 62.8444 45.1086H60.6593V47.4189ZM68.2866 51.6736C67.9273 51.6736 67.6 51.5902 67.3048 51.4233C67.0096 51.2501 66.7753 51.0126 66.6021 50.711C66.4352 50.403 66.3518 50.05 66.3518 49.6521V46.3985H67.0737V49.5655C67.0737 49.8414 67.1283 50.0853 67.2374 50.2971C67.3529 50.5024 67.5101 50.6629 67.7091 50.7784C67.9144 50.8939 68.1487 50.9517 68.4118 50.9517C68.6749 50.9517 68.9091 50.8939 69.1145 50.7784C69.3198 50.6565 69.4803 50.4864 69.5958 50.2682C69.7113 50.0436 69.7691 49.7773 69.7691 49.4692V46.3985H70.491V51.5581H69.7691V50.557L69.9327 50.5955C69.8108 50.9292 69.6022 51.1923 69.307 51.3848C69.0118 51.5774 68.6717 51.6736 68.2866 51.6736ZM71.9758 51.5581V46.3985H72.6977V51.5581H71.9758ZM71.9758 45.4455V44.3866H72.6977V45.4455H71.9758ZM74.1755 51.5581V44.2711H74.8975V51.5581H74.1755ZM78.7048 51.6736C78.2234 51.6736 77.7903 51.5581 77.4052 51.3271C77.0202 51.0896 76.7153 50.7688 76.4907 50.3645C76.2725 49.9537 76.1635 49.4917 76.1635 48.9783C76.1635 48.4585 76.2725 47.9964 76.4907 47.5921C76.7153 47.1878 77.017 46.8702 77.3956 46.6392C77.7806 46.4017 78.217 46.283 78.7048 46.283C79.1476 46.283 79.5422 46.3792 79.8888 46.5718C80.2353 46.7643 80.508 47.0242 80.707 47.3515L80.5915 47.5536V44.2711H81.3134V51.5581H80.5915V50.403L80.707 50.5089C80.5273 50.8811 80.2578 51.1699 79.8984 51.3752C79.5454 51.5741 79.1476 51.6736 78.7048 51.6736ZM78.7433 50.9517C79.0898 50.9517 79.401 50.865 79.677 50.6918C79.9594 50.5185 80.1808 50.2842 80.3412 49.989C80.508 49.6874 80.5915 49.3505 80.5915 48.9783C80.5915 48.6061 80.508 48.2724 80.3412 47.9772C80.1808 47.6756 79.9594 47.4381 79.677 47.2648C79.401 47.0916 79.0898 47.0049 78.7433 47.0049C78.4031 47.0049 78.0951 47.0916 77.8191 47.2648C77.5432 47.4381 77.325 47.6724 77.1646 47.9676C77.0106 48.2628 76.9335 48.5997 76.9335 48.9783C76.9335 49.3505 77.0106 49.6874 77.1646 49.989C77.325 50.2842 77.54 50.5185 77.8095 50.6918C78.0855 50.865 78.3967 50.9517 78.7433 50.9517ZM82.7958 51.5581V46.3985H83.5177V51.5581H82.7958ZM82.7958 45.4455V44.3866H83.5177V45.4455H82.7958ZM84.9955 51.5581V46.3985H85.7175V47.3996L85.5538 47.3611C85.6822 47.0274 85.8907 46.7643 86.1795 46.5718C86.4747 46.3792 86.8148 46.283 87.1999 46.283C87.5657 46.283 87.893 46.3664 88.1818 46.5333C88.477 46.7001 88.708 46.9311 88.8748 47.2263C89.0481 47.5151 89.1347 47.8424 89.1347 48.2082V51.5581H88.4128V48.4874C88.4128 48.1729 88.355 47.9066 88.2395 47.6884C88.1304 47.4702 87.9732 47.3034 87.7678 47.1878C87.5689 47.0659 87.3379 47.0049 87.0747 47.0049C86.8116 47.0049 86.5774 47.0659 86.372 47.1878C86.1667 47.3034 86.0062 47.4734 85.8907 47.698C85.7752 47.9162 85.7175 48.1793 85.7175 48.4874V51.5581H84.9955ZM92.9586 53.6759C92.6057 53.6759 92.2784 53.6213 91.9768 53.5122C91.6816 53.4031 91.4249 53.2523 91.2067 53.0598C90.9949 52.8737 90.8313 52.6555 90.7158 52.4052L91.38 52.049C91.4826 52.2929 91.6655 52.5047 91.9287 52.6844C92.1918 52.8641 92.5287 52.9539 92.9394 52.9539C93.2539 52.9539 93.5426 52.8929 93.8057 52.771C94.0689 52.6491 94.2806 52.4694 94.4411 52.2319C94.6015 51.9945 94.6817 51.7025 94.6817 51.356V50.2104L94.7972 50.3163C94.6176 50.6885 94.3512 50.9773 93.9983 51.1827C93.6453 51.3816 93.2603 51.4811 92.8431 51.4811C92.3618 51.4811 91.9287 51.3656 91.5436 51.1346C91.1586 50.9035 90.8537 50.5923 90.6291 50.2008C90.4109 49.8029 90.3018 49.3633 90.3018 48.882C90.3018 48.3943 90.4109 47.9547 90.6291 47.5633C90.8537 47.1718 91.1554 46.8606 91.534 46.6295C91.919 46.3985 92.3554 46.283 92.8431 46.283C93.2603 46.283 93.6389 46.3792 93.979 46.5718C94.3256 46.7643 94.5983 47.0242 94.7972 47.3515L94.6817 47.5536V46.3985H95.4037V51.356C95.4037 51.7988 95.2978 52.1934 95.086 52.54C94.8807 52.8929 94.5919 53.1689 94.2197 53.3678C93.8539 53.5732 93.4335 53.6759 92.9586 53.6759ZM92.8816 50.7591C93.2153 50.7591 93.517 50.6757 93.7865 50.5089C94.056 50.3356 94.271 50.1078 94.4314 49.8254C94.5983 49.5366 94.6817 49.2222 94.6817 48.882C94.6817 48.5419 94.5983 48.2307 94.4314 47.9483C94.271 47.6595 94.056 47.4317 93.7865 47.2648C93.517 47.0916 93.2153 47.0049 92.8816 47.0049C92.5415 47.0049 92.2335 47.0916 91.9575 47.2648C91.6816 47.4317 91.4634 47.6563 91.303 47.9387C91.1489 48.221 91.0719 48.5355 91.0719 48.882C91.0719 49.2222 91.1489 49.5366 91.303 49.8254C91.4634 50.1078 91.6784 50.3356 91.9479 50.5089C92.2239 50.6757 92.5351 50.7591 92.8816 50.7591ZM99.8705 51.5581V45.1086H97.8875V44.3866H102.604V45.1086H100.641V51.5581H99.8705ZM105.188 51.6736C104.7 51.6736 104.258 51.5581 103.86 51.3271C103.462 51.0896 103.144 50.7688 102.907 50.3645C102.676 49.9537 102.56 49.4885 102.56 48.9687C102.56 48.4553 102.676 47.9964 102.907 47.5921C103.138 47.1878 103.449 46.8702 103.84 46.6392C104.238 46.4017 104.687 46.283 105.188 46.283C105.689 46.283 106.135 46.3985 106.526 46.6295C106.924 46.8606 107.235 47.1782 107.46 47.5825C107.691 47.9868 107.806 48.4489 107.806 48.9687C107.806 49.4949 107.688 49.9634 107.45 50.3741C107.213 50.7784 106.895 51.0961 106.497 51.3271C106.106 51.5581 105.669 51.6736 105.188 51.6736ZM105.188 50.9517C105.535 50.9517 105.846 50.865 106.122 50.6918C106.404 50.5185 106.626 50.281 106.786 49.9794C106.953 49.6778 107.036 49.3409 107.036 48.9687C107.036 48.5965 106.953 48.2628 106.786 47.9676C106.626 47.6724 106.404 47.4381 106.122 47.2648C105.846 47.0916 105.535 47.0049 105.188 47.0049C104.842 47.0049 104.527 47.0916 104.245 47.2648C103.969 47.4381 103.747 47.6724 103.58 47.9676C103.414 48.2628 103.33 48.5965 103.33 48.9687C103.33 49.3409 103.414 49.6778 103.58 49.9794C103.747 50.281 103.969 50.5185 104.245 50.6918C104.527 50.865 104.842 50.9517 105.188 50.9517ZM109.08 51.5581V46.3985H109.802V47.3804L109.686 47.236C109.827 46.9344 110.036 46.7001 110.312 46.5333C110.594 46.3664 110.902 46.283 111.236 46.283C111.634 46.283 111.993 46.3953 112.314 46.6199C112.635 46.8445 112.863 47.1365 112.997 47.4959L112.795 47.5055C112.924 47.1076 113.145 46.806 113.46 46.6006C113.78 46.3889 114.133 46.283 114.518 46.283C114.865 46.283 115.183 46.3664 115.471 46.5333C115.767 46.7001 116.001 46.9311 116.174 47.2263C116.354 47.5151 116.444 47.8424 116.444 48.2082V51.5581H115.722V48.4874C115.722 48.1729 115.664 47.9066 115.548 47.6884C115.439 47.4702 115.289 47.3034 115.096 47.1878C114.903 47.0659 114.682 47.0049 114.432 47.0049C114.188 47.0049 113.967 47.0659 113.768 47.1878C113.569 47.3034 113.411 47.4734 113.296 47.698C113.18 47.9162 113.123 48.1793 113.123 48.4874V51.5581H112.401V48.4874C112.401 48.1729 112.343 47.9066 112.227 47.6884C112.118 47.4702 111.967 47.3034 111.775 47.1878C111.582 47.0659 111.361 47.0049 111.111 47.0049C110.86 47.0049 110.636 47.0659 110.437 47.1878C110.244 47.3034 110.09 47.4734 109.975 47.698C109.859 47.9162 109.802 48.1793 109.802 48.4874V51.5581H109.08ZM120.238 51.6736C119.751 51.6736 119.308 51.5581 118.91 51.3271C118.512 51.0896 118.194 50.7688 117.957 50.3645C117.726 49.9537 117.61 49.4885 117.61 48.9687C117.61 48.4553 117.726 47.9964 117.957 47.5921C118.188 47.1878 118.499 46.8702 118.891 46.6392C119.289 46.4017 119.738 46.283 120.238 46.283C120.739 46.283 121.185 46.3985 121.576 46.6295C121.974 46.8606 122.285 47.1782 122.51 47.5825C122.741 47.9868 122.857 48.4489 122.857 48.9687C122.857 49.4949 122.738 49.9634 122.5 50.3741C122.263 50.7784 121.945 51.0961 121.547 51.3271C121.156 51.5581 120.72 51.6736 120.238 51.6736ZM120.238 50.9517C120.585 50.9517 120.896 50.865 121.172 50.6918C121.454 50.5185 121.676 50.281 121.836 49.9794C122.003 49.6778 122.087 49.3409 122.087 48.9687C122.087 48.5965 122.003 48.2628 121.836 47.9676C121.676 47.6724 121.454 47.4381 121.172 47.2648C120.896 47.0916 120.585 47.0049 120.238 47.0049C119.892 47.0049 119.577 47.0916 119.295 47.2648C119.019 47.4381 118.798 47.6724 118.631 47.9676C118.464 48.2628 118.38 48.5965 118.38 48.9687C118.38 49.3409 118.464 49.6778 118.631 49.9794C118.798 50.281 119.019 50.5185 119.295 50.6918C119.577 50.865 119.892 50.9517 120.238 50.9517ZM124.13 51.5581V46.3985H124.852V47.2456L124.756 47.1205C124.878 46.8766 125.06 46.6841 125.304 46.5429C125.555 46.4017 125.856 46.3311 126.209 46.3311H126.536V47.0531H126.084C125.712 47.0531 125.413 47.1686 125.189 47.3996C124.964 47.6306 124.852 47.9579 124.852 48.3815V51.5581H124.13ZM127.382 51.5581V46.3985H128.104V47.2456L128.008 47.1205C128.13 46.8766 128.313 46.6841 128.557 46.5429C128.807 46.4017 129.109 46.3311 129.462 46.3311H129.789V47.0531H129.337C128.964 47.0531 128.666 47.1686 128.441 47.3996C128.217 47.6306 128.104 47.9579 128.104 48.3815V51.5581H127.382ZM133.051 51.6736C132.563 51.6736 132.121 51.5581 131.723 51.3271C131.325 51.0896 131.007 50.7688 130.77 50.3645C130.539 49.9537 130.423 49.4885 130.423 48.9687C130.423 48.4553 130.539 47.9964 130.77 47.5921C131.001 47.1878 131.312 46.8702 131.704 46.6392C132.101 46.4017 132.551 46.283 133.051 46.283C133.552 46.283 133.998 46.3985 134.389 46.6295C134.787 46.8606 135.098 47.1782 135.323 47.5825C135.554 47.9868 135.67 48.4489 135.67 48.9687C135.67 49.4949 135.551 49.9634 135.313 50.3741C135.076 50.7784 134.758 51.0961 134.36 51.3271C133.969 51.5581 133.533 51.6736 133.051 51.6736ZM133.051 50.9517C133.398 50.9517 133.709 50.865 133.985 50.6918C134.267 50.5185 134.489 50.281 134.649 49.9794C134.816 49.6778 134.899 49.3409 134.899 48.9687C134.899 48.5965 134.816 48.2628 134.649 47.9676C134.489 47.6724 134.267 47.4381 133.985 47.2648C133.709 47.0916 133.398 47.0049 133.051 47.0049C132.705 47.0049 132.39 47.0916 132.108 47.2648C131.832 47.4381 131.61 47.6724 131.444 47.9676C131.277 48.2628 131.193 48.5965 131.193 48.9687C131.193 49.3409 131.277 49.6778 131.444 49.9794C131.61 50.281 131.832 50.5185 132.108 50.6918C132.39 50.865 132.705 50.9517 133.051 50.9517ZM137.985 51.5581L136.213 46.3985H137.032L138.495 50.9132H138.206L139.583 46.3985H140.305L141.681 50.9132H141.392L142.865 46.3985H143.674L141.903 51.5581H141.181L139.843 47.1397H140.045L138.707 51.5581H137.985ZM144.693 46.4851L144.568 44.3866H145.338L145.222 46.4851H144.693ZM148.67 51.6736C148.175 51.6736 147.742 51.5485 147.37 51.2982C146.998 51.0479 146.728 50.7078 146.561 50.2778L147.168 49.989C147.316 50.3035 147.521 50.5538 147.784 50.7399C148.054 50.926 148.349 51.019 148.67 51.019C148.978 51.019 149.238 50.9452 149.449 50.7976C149.661 50.6436 149.767 50.4447 149.767 50.2008C149.767 50.0211 149.716 49.8799 149.613 49.7773C149.51 49.6682 149.392 49.5847 149.257 49.527C149.122 49.4692 149.003 49.4275 148.901 49.4019L148.159 49.1901C147.685 49.0553 147.341 48.866 147.129 48.6221C146.918 48.3783 146.812 48.0959 146.812 47.775C146.812 47.4734 146.889 47.2103 147.043 46.9857C147.197 46.7611 147.405 46.5878 147.668 46.4659C147.932 46.3439 148.224 46.283 148.544 46.283C148.981 46.283 149.376 46.3985 149.728 46.6295C150.088 46.8541 150.341 47.1686 150.489 47.5729L149.873 47.8617C149.745 47.5729 149.558 47.3483 149.315 47.1878C149.077 47.021 148.811 46.9376 148.516 46.9376C148.227 46.9376 147.996 47.0114 147.823 47.159C147.649 47.3066 147.563 47.4927 147.563 47.7173C147.563 47.8905 147.608 48.0285 147.697 48.1312C147.787 48.2339 147.89 48.3109 148.005 48.3622C148.127 48.4136 148.233 48.4521 148.323 48.4777L149.18 48.728C149.597 48.85 149.921 49.0393 150.152 49.296C150.389 49.5527 150.508 49.8543 150.508 50.2008C150.508 50.4832 150.428 50.7367 150.268 50.9613C150.114 51.1859 149.899 51.3624 149.623 51.4907C149.347 51.6127 149.029 51.6736 148.67 51.6736ZM154.837 51.5581L152.777 44.3866H153.557L155.338 50.8073H155.174L157.003 44.3866H157.821L159.641 50.8073H159.467L161.258 44.3866H162.038L159.978 51.5581H159.159L157.321 45.1086H157.494L155.655 51.5581H154.837ZM164.919 51.6736C164.431 51.6736 163.988 51.5581 163.591 51.3271C163.193 51.0896 162.875 50.7688 162.638 50.3645C162.407 49.9537 162.291 49.4885 162.291 48.9687C162.291 48.4553 162.407 47.9964 162.638 47.5921C162.869 47.1878 163.18 46.8702 163.571 46.6392C163.969 46.4017 164.418 46.283 164.919 46.283C165.42 46.283 165.866 46.3985 166.257 46.6295C166.655 46.8606 166.966 47.1782 167.191 47.5825C167.422 47.9868 167.537 48.4489 167.537 48.9687C167.537 49.4949 167.419 49.9634 167.181 50.3741C166.944 50.7784 166.626 51.0961 166.228 51.3271C165.837 51.5581 165.4 51.6736 164.919 51.6736ZM164.919 50.9517C165.266 50.9517 165.577 50.865 165.853 50.6918C166.135 50.5185 166.356 50.281 166.517 49.9794C166.684 49.6778 166.767 49.3409 166.767 48.9687C166.767 48.5965 166.684 48.2628 166.517 47.9676C166.356 47.6724 166.135 47.4381 165.853 47.2648C165.577 47.0916 165.266 47.0049 164.919 47.0049C164.572 47.0049 164.258 47.0916 163.976 47.2648C163.7 47.4381 163.478 47.6724 163.311 47.9676C163.145 48.2628 163.061 48.5965 163.061 48.9687C163.061 49.3409 163.145 49.6778 163.311 49.9794C163.478 50.281 163.7 50.5185 163.976 50.6918C164.258 50.865 164.572 50.9517 164.919 50.9517ZM168.811 51.5581V46.3985H169.533V47.2456L169.436 47.1205C169.558 46.8766 169.741 46.6841 169.985 46.5429C170.235 46.4017 170.537 46.3311 170.89 46.3311H171.217V47.0531H170.765C170.392 47.0531 170.094 47.1686 169.869 47.3996C169.645 47.6306 169.533 47.9579 169.533 48.3815V51.5581H168.811ZM172.063 51.5581V44.2711H172.785V49.373L172.477 49.3248L175.375 46.3985H176.308L174.287 48.4681L176.491 51.5581H175.625L173.555 48.6991L174.017 48.7376L172.544 50.2586L172.785 49.6618V51.5581H172.063ZM177.866 51.5581V47.1205H176.836V46.3985H177.866V45.9364C177.866 45.5771 177.946 45.2754 178.107 45.0316C178.267 44.7813 178.479 44.592 178.742 44.4636C179.005 44.3353 179.288 44.2711 179.589 44.2711C179.654 44.2711 179.727 44.2775 179.811 44.2904C179.894 44.2968 179.962 44.3064 180.013 44.3193V44.9738C179.968 44.961 179.907 44.9546 179.83 44.9546C179.753 44.9482 179.698 44.945 179.666 44.945C179.358 44.945 179.102 45.0188 178.896 45.1664C178.691 45.314 178.588 45.5706 178.588 45.9364V46.3985H179.849V47.1205H178.588V51.5581H177.866ZM183.241 51.6736C182.753 51.6736 182.31 51.5581 181.912 51.3271C181.514 51.0896 181.197 50.7688 180.959 50.3645C180.728 49.9537 180.613 49.4885 180.613 48.9687C180.613 48.4553 180.728 47.9964 180.959 47.5921C181.19 47.1878 181.501 46.8702 181.893 46.6392C182.291 46.4017 182.74 46.283 183.241 46.283C183.741 46.283 184.187 46.3985 184.579 46.6295C184.977 46.8606 185.288 47.1782 185.512 47.5825C185.743 47.9868 185.859 48.4489 185.859 48.9687C185.859 49.4949 185.74 49.9634 185.503 50.3741C185.265 50.7784 184.948 51.0961 184.55 51.3271C184.158 51.5581 183.722 51.6736 183.241 51.6736ZM183.241 50.9517C183.587 50.9517 183.898 50.865 184.174 50.6918C184.457 50.5185 184.678 50.281 184.839 49.9794C185.005 49.6778 185.089 49.3409 185.089 48.9687C185.089 48.5965 185.005 48.2628 184.839 47.9676C184.678 47.6724 184.457 47.4381 184.174 47.2648C183.898 47.0916 183.587 47.0049 183.241 47.0049C182.894 47.0049 182.58 47.0916 182.297 47.2648C182.021 47.4381 181.8 47.6724 181.633 47.9676C181.466 48.2628 181.383 48.5965 181.383 48.9687C181.383 49.3409 181.466 49.6778 181.633 49.9794C181.8 50.281 182.021 50.5185 182.297 50.6918C182.58 50.865 182.894 50.9517 183.241 50.9517ZM187.132 51.5581V46.3985H187.854V47.2456L187.758 47.1205C187.88 46.8766 188.063 46.6841 188.307 46.5429C188.557 46.4017 188.858 46.3311 189.211 46.3311H189.539V47.0531H189.086C188.714 47.0531 188.416 47.1686 188.191 47.3996C187.966 47.6306 187.854 47.9579 187.854 48.3815V51.5581H187.132ZM192.743 51.6736C192.236 51.6736 191.79 51.5549 191.405 51.3175C191.02 51.08 190.718 50.7591 190.5 50.3548C190.282 49.9441 190.173 49.4821 190.173 48.9687C190.173 48.4553 190.282 47.9964 190.5 47.5921C190.718 47.1878 191.02 46.8702 191.405 46.6392C191.79 46.4017 192.236 46.283 192.743 46.283C193.064 46.283 193.366 46.3407 193.648 46.4563C193.93 46.5718 194.181 46.729 194.399 46.9279C194.617 47.1205 194.781 47.3451 194.89 47.6018L194.235 47.9387C194.107 47.6627 193.911 47.4381 193.648 47.2648C193.385 47.0916 193.083 47.0049 192.743 47.0049C192.403 47.0049 192.095 47.0916 191.819 47.2648C191.55 47.4317 191.335 47.6659 191.174 47.9676C191.02 48.2628 190.943 48.5997 190.943 48.9783C190.943 49.3505 191.02 49.6874 191.174 49.989C191.335 50.2842 191.55 50.5185 191.819 50.6918C192.095 50.865 192.403 50.9517 192.743 50.9517C193.083 50.9517 193.382 50.865 193.638 50.6918C193.902 50.5185 194.1 50.2875 194.235 49.9987L194.89 50.3548C194.781 50.6051 194.617 50.8297 194.399 51.0287C194.181 51.2276 193.93 51.3848 193.648 51.5003C193.366 51.6159 193.064 51.6736 192.743 51.6736ZM198.505 51.6736C198.024 51.6736 197.588 51.5581 197.196 51.3271C196.811 51.0896 196.506 50.7656 196.282 50.3548C196.057 49.9441 195.945 49.4789 195.945 48.959C195.945 48.4392 196.054 47.9804 196.272 47.5825C196.49 47.1782 196.786 46.8606 197.158 46.6295C197.536 46.3985 197.96 46.283 198.428 46.283C198.801 46.283 199.131 46.3536 199.42 46.4948C199.715 46.6295 199.965 46.8156 200.171 47.0531C200.376 47.2841 200.533 47.5472 200.642 47.8424C200.752 48.1312 200.806 48.4296 200.806 48.7376C200.806 48.8018 200.803 48.8756 200.796 48.959C200.79 49.0361 200.78 49.1163 200.768 49.1997H196.407V48.5259H200.354L200.007 48.8147C200.065 48.4617 200.023 48.1472 199.882 47.8713C199.747 47.5889 199.552 47.3675 199.295 47.2071C199.038 47.0402 198.749 46.9568 198.428 46.9568C198.108 46.9568 197.809 47.0402 197.533 47.2071C197.264 47.3739 197.052 47.6082 196.898 47.9098C196.744 48.205 196.683 48.558 196.715 48.9687C196.683 49.3794 196.747 49.7388 196.908 50.0468C197.074 50.3484 197.299 50.5827 197.581 50.7495C197.87 50.9164 198.178 50.9998 198.505 50.9998C198.884 50.9998 199.202 50.9099 199.458 50.7303C199.715 50.5506 199.924 50.326 200.084 50.0564L200.7 50.3837C200.598 50.6147 200.44 50.8297 200.229 51.0287C200.017 51.2212 199.763 51.3784 199.468 51.5003C199.179 51.6159 198.858 51.6736 198.505 51.6736Z" fill="#444446"/>
<defs>
<linearGradient id="paint0_linear_18414_3962" x1="29.7208" y1="1.19641" x2="29.7208" y2="53.5581" gradientUnits="userSpaceOnUse">
<stop stop-color="#26F596"/>
<stop offset="1" stop-color="#0499F2"/>
</linearGradient>
<linearGradient id="paint1_linear_18414_3962" x1="37.8028" y1="19.1149" x2="37.8028" y2="50.708" gradientUnits="userSpaceOnUse">
<stop stop-color="#1AD2BA"/>
<stop offset="1" stop-color="#07A0EC"/>
</linearGradient>
</defs>
</svg>
