<svg
                  width="140"
                  height="140"
                  viewBox="0 0 254 236"
                  fill="none"
                  xmlns="http://www.w3.org/2000/svg"
                >
                  <path
                    d="M252.633 6.97192H5.68164V235.038H252.633V6.97192Z"
                    fill="#242426"
                    stroke="#242426"
                    stroke-miterlimit="10"
                  />
                  <path
                    d="M247.951 1.41919H1V229.485H247.951V1.41919Z"
                    fill="white"
                    stroke="#242426"
                    stroke-linecap="round"
                    stroke-linejoin="round"
                  />
                  <path
                    d="M199.865 93.4573H212.145V80.717H199.865V93.4573Z"
                    fill="white"
                    stroke="#242426"
                    stroke-linecap="round"
                    stroke-linejoin="round"
                  />
                  <path
                    d="M215.939 93.4573H228.219V80.717H215.939V93.4573Z"
                    fill="white"
                    stroke="#242426"
                    stroke-linecap="round"
                    stroke-linejoin="round"
                  />
                  <path
                    d="M194.957 87.8579H132.571"
                    stroke="#242426"
                    stroke-linecap="round"
                    stroke-linejoin="round"
                  />
                  <path
                    d="M199.865 123.532H212.145V110.792H199.865V123.532Z"
                    fill="white"
                    stroke="#242426"
                    stroke-linecap="round"
                    stroke-linejoin="round"
                  />
                  <path
                    d="M215.939 123.532H228.219V110.792H215.939V123.532Z"
                    fill="white"
                    stroke="#242426"
                    stroke-linecap="round"
                    stroke-linejoin="round"
                  />
                  <path
                    d="M194.957 117.923H132.571"
                    stroke="#242426"
                    stroke-linecap="round"
                    stroke-linejoin="round"
                  />
                  <path
                    d="M199.865 153.607H212.145V140.867H199.865V153.607Z"
                    fill="white"
                    stroke="#242426"
                    stroke-linecap="round"
                    stroke-linejoin="round"
                  />
                  <path
                    d="M215.939 153.607H228.219V140.867H215.939V153.607Z"
                    fill="white"
                    stroke="#242426"
                    stroke-linecap="round"
                    stroke-linejoin="round"
                  />
                  <path
                    d="M194.957 147.998H132.571"
                    stroke="#242426"
                    stroke-linecap="round"
                    stroke-linejoin="round"
                  />
                  <path
                    d="M82.4655 93.4573H94.7451V80.717H82.4655V93.4573Z"
                    fill="white"
                    stroke="#242426"
                    stroke-linecap="round"
                    stroke-linejoin="round"
                  />
                  <path
                    d="M98.5495 93.4573H110.829V80.717H98.5495V93.4573Z"
                    fill="white"
                    stroke="#242426"
                    stroke-linecap="round"
                    stroke-linejoin="round"
                  />
                  <path
                    d="M77.5572 87.8579H15.1719"
                    stroke="#242426"
                    stroke-linecap="round"
                    stroke-linejoin="round"
                  />
                  <path
                    d="M82.4655 123.532H94.7451V110.792H82.4655V123.532Z"
                    fill="white"
                    stroke="#242426"
                    stroke-linecap="round"
                    stroke-linejoin="round"
                  />
                  <path
                    d="M98.5495 123.532H110.829V110.792H98.5495V123.532Z"
                    fill="white"
                    stroke="#242426"
                    stroke-linecap="round"
                    stroke-linejoin="round"
                  />
                  <path
                    d="M77.5572 117.923H15.1719"
                    stroke="#242426"
                    stroke-linecap="round"
                    stroke-linejoin="round"
                  />
                  <path
                    d="M82.4655 153.607H94.7451V140.867H82.4655V153.607Z"
                    fill="white"
                    stroke="#242426"
                    stroke-linecap="round"
                    stroke-linejoin="round"
                  />
                  <path
                    d="M98.5495 153.607H110.829V140.867H98.5495V153.607Z"
                    fill="white"
                    stroke="#242426"
                    stroke-linecap="round"
                    stroke-linejoin="round"
                  />
                  <path
                    d="M77.5572 147.998H15.1719"
                    stroke="#242426"
                    stroke-linecap="round"
                    stroke-linejoin="round"
                  />
                  <path
                    d="M32.5772 197.409H19.0479V211.446H32.5772V197.409Z"
                    fill="white"
                    stroke="#242426"
                    stroke-linecap="round"
                    stroke-linejoin="round"
                  />
                  <path
                    d="M87.7901 197.409H74.2607V211.446H87.7901V197.409Z"
                    fill="white"
                    stroke="#242426"
                    stroke-linecap="round"
                    stroke-linejoin="round"
                  />
                  <path
                    d="M145.195 197.409H131.666V211.446H145.195V197.409Z"
                    fill="white"
                    stroke="#242426"
                    stroke-linecap="round"
                    stroke-linejoin="round"
                  />
                  <path
                    d="M102.579 84.9828L104.671 89.3423L114.804 79.1858"
                    stroke="#242426"
                    stroke-width="2"
                    stroke-linecap="round"
                    stroke-linejoin="round"
                  />
                  <path
                    d="M102.579 114.72L104.671 119.07L114.804 108.913"
                    stroke="#242426"
                    stroke-width="2"
                    stroke-linecap="round"
                    stroke-linejoin="round"
                  />
                  <path
                    d="M85.1016 145.903L87.2025 150.253L97.3359 140.097"
                    stroke="#242426"
                    stroke-width="2"
                    stroke-linecap="round"
                    stroke-linejoin="round"
                  />
                  <path
                    d="M219.299 84.6258L221.391 88.9759L231.524 78.8193"
                    stroke="#242426"
                    stroke-width="2"
                    stroke-linecap="round"
                    stroke-linejoin="round"
                  />
                  <path
                    d="M202.383 115.077L204.475 119.427L214.608 109.28"
                    stroke="#242426"
                    stroke-width="2"
                    stroke-linecap="round"
                    stroke-linejoin="round"
                  />
                  <path
                    d="M202.383 145.631L204.475 149.981L214.608 139.833"
                    stroke="#242426"
                    stroke-width="2"
                    stroke-linecap="round"
                    stroke-linejoin="round"
                  />
                  <path
                    d="M247.951 1.41919H1V37.0469H247.951V1.41919Z"
                    fill="white"
                    stroke="#242426"
                    stroke-linecap="round"
                    stroke-linejoin="round"
                  />
                  <path
                    d="M247.951 1.41919H238.65V229.485H247.951V1.41919Z"
                    fill="#E5E5EA"
                    stroke="#242426"
                    stroke-linecap="round"
                    stroke-linejoin="round"
                  />
                  <path
                    d="M247.951 35.6938H238.65V79.7117H247.951V35.6938Z"
                    fill="#AEAEB2"
                    stroke="#242426"
                    stroke-linecap="round"
                    stroke-linejoin="round"
                  />
                  <path
                    d="M247.951 1.41919H1V18.7445H247.951V1.41919Z"
                    fill="#E5E5EA"
                    stroke="#242426"
                    stroke-linecap="round"
                    stroke-linejoin="round"
                  />
                  <path
                    d="M110.91 6.4646H13.5244V13.6803H110.91V6.4646Z"
                    fill="white"
                    stroke="#242426"
                    stroke-linecap="round"
                    stroke-linejoin="round"
                  />
                  <path
                    d="M233.371 6.80273H241.92"
                    stroke="#242426"
                    stroke-linecap="round"
                    stroke-linejoin="round"
                  />
                  <path
                    d="M233.371 10.5515H241.92"
                    stroke="#242426"
                    stroke-linecap="round"
                    stroke-linejoin="round"
                  />
                  <path
                    d="M233.371 14.3098H241.92"
                    stroke="#242426"
                    stroke-linecap="round"
                    stroke-linejoin="round"
                  />
                  <path
                    d="M29.5801 194.027H27.452L27.0898 191.509H24.5451L24.1829 194.027H22.2178L24.3549 180.15H27.4339L29.5801 194.027ZM24.7806 189.62H26.8091L25.7948 182.602L24.7806 189.62Z"
                    fill="#242426"
                  />
                  <path
                    d="M83.9058 183.316V183.805C83.9058 185.233 83.4892 186.144 82.5474 186.623C83.6794 187.074 84.1141 188.126 84.1141 189.592V190.729C84.1141 192.871 83.0274 194.017 80.9265 194.017H77.6211V180.15H80.7906C82.9731 180.15 83.9058 181.202 83.9058 183.316ZM79.722 182.104V185.768H80.5461C81.3249 185.768 81.8049 185.411 81.8049 184.302V183.532C81.8049 182.536 81.4789 182.104 80.7363 182.104H79.722ZM79.722 187.741V192.007H80.9265C81.6328 192.007 82.0132 191.669 82.0132 190.635V189.432C82.0132 188.136 81.6147 187.741 80.6638 187.741H79.722Z"
                    fill="#242426"
                  />
                  <path
                    d="M141.854 188.85V190.729C141.854 192.956 140.785 194.224 138.72 194.224C136.656 194.224 135.587 192.956 135.587 190.729V183.513C135.587 181.296 136.656 180.028 138.72 180.028C140.785 180.028 141.854 181.296 141.854 183.513V184.866H139.87V183.316C139.87 182.32 139.445 181.944 138.775 181.944C138.104 181.944 137.688 182.32 137.688 183.316V190.832C137.688 191.828 138.113 192.185 138.775 192.185C139.436 192.185 139.87 191.828 139.87 190.832V188.85H141.854Z"
                    fill="#242426"
                  />
                  <path
                    d="M16.123 172.755H176.637"
                    stroke="#242426"
                    stroke-linecap="round"
                    stroke-linejoin="round"
                  />
                </svg>
