 <svg
                      width="200"
                      height="200"
                      viewBox="0 0 238 271"
                      fill="none"
                      xmlns="http://www.w3.org/2000/svg"
                    >
                      <path
                        d="M154.309 260.614L160.141 168.726L164.433 125.037L152.66 111.404L146.756 106.951C146.756 106.951 138.443 114.467 132.548 116.13C126.652 117.793 120.983 119.475 120.983 119.475C120.983 119.475 100.87 158.71 99.2495 176.515C97.6285 194.319 94.957 260.276 94.957 260.276L97.1938 260.614H154.309Z"
                        fill="#AEAEB2"
                        stroke="#242426"
                        stroke-miterlimit="10"
                      />
                      <path
                        d="M126.661 184.858C126.661 184.858 125.656 184.322 127.667 178.948"
                        stroke="#242426"
                        stroke-miterlimit="10"
                      />
                      <path
                        d="M124.298 118.535C125.298 125.958 125.851 133.439 125.955 140.934C125.955 140.934 131.995 138.425 136.822 129.659C139.489 124.955 141.784 120.034 143.686 114.946L124.298 118.535Z"
                        fill="#242426"
                        stroke="#242426"
                        stroke-miterlimit="10"
                      />
                      <path
                        d="M154.309 260.614L159.552 177.999C154.408 180.724 144.257 185.225 133.055 185.422C119.634 185.657 103.017 174.843 103.017 174.843L99.2768 176.365C99.2768 176.412 99.2768 176.468 99.2768 176.515C97.6649 194.366 94.9844 260.276 94.9844 260.276L97.2212 260.614H154.309Z"
                        fill="white"
                        stroke="#242426"
                        stroke-miterlimit="10"
                      />
                      <path
                        d="M145.579 214.369C145.579 235.65 146.285 256.123 146.485 260.595H186.013C186.557 253.962 189.962 212.678 191.709 197.88C193.62 181.711 206.153 157.639 206.153 149.024C206.153 140.408 208.698 141.77 197.251 135.503C185.805 129.237 160.557 115.707 157.062 114.054C153.566 112.4 149.745 108.416 149.745 108.416C149.745 108.416 151.013 116.665 150.65 139.093C150.288 161.52 145.579 190.307 145.579 214.369Z"
                        fill="white"
                      />
                      <g opacity="0.2">
                        <path
                          d="M149.744 108.501C150.216 112.404 150.488 116.331 150.559 120.264V109.3C150.052 108.82 149.744 108.501 149.744 108.501Z"
                          fill="#7C7C80"
                        />
                        <path
                          d="M149.744 108.501C150.216 112.404 150.488 116.331 150.559 120.264V109.3C150.052 108.82 149.744 108.501 149.744 108.501Z"
                          fill="black"
                          fill-opacity="0.2"
                        />
                        <path
                          d="M201.725 162.196V165.015C202.033 164.16 202.34 163.333 202.63 162.516V162.178H202.748C202.866 161.868 202.974 161.548 203.083 161.238H202.63V149.541H206.135C206.135 149.4 206.135 149.249 206.135 149.108C206.135 148.968 206.135 148.77 206.135 148.601H202.63V138.586C202.349 138.407 202.051 138.238 201.725 138.05V148.601H192.216V136.857H199.569L197.867 135.917H192.216V132.817L191.31 132.319V135.889H181.802V127.189L180.896 126.7V135.889H171.388V124.173H176.124L174.367 123.233H171.388V121.645L170.482 121.157V123.233H160.974V116.14C160.657 115.971 160.358 115.811 160.068 115.67V123.233H150.65C150.65 123.543 150.65 123.853 150.65 124.173H160.068V135.917H150.731C150.731 136.227 150.731 136.537 150.731 136.857H160.068V148.601H150.559V144.138C150.378 148.723 150.052 153.534 149.654 158.429V161.247H149.418L149.337 162.187H149.654V173.969H148.295L148.205 174.908H149.699V186.653H147.127L147.046 187.592H149.699V199.337H146.167L146.113 200.276H149.735V212.021H145.724C145.724 212.34 145.724 212.65 145.724 212.96H149.744V224.705H145.751C145.751 225.024 145.751 225.334 145.751 225.644H149.735V237.389H145.932C145.932 237.708 145.932 238.018 145.932 238.328H149.717V260.642H150.623V238.3H160.068V260.614H160.974V238.3H170.482V260.614H171.388V238.3H180.896V260.614H181.802V238.3H187.896C187.896 237.99 187.896 237.68 187.978 237.36H181.802V225.644H189.047C189.047 225.334 189.11 225.024 189.137 224.705H181.802V212.96H190.169C190.169 212.641 190.224 212.34 190.26 212.021H181.802V200.276H191.31V201.526L191.709 197.927C191.836 196.875 192.008 195.785 192.216 194.667V187.592H193.909L194.181 186.653H192.216V174.908H198.102C198.22 174.598 198.329 174.279 198.446 173.969H192.216V162.225L201.725 162.196ZM192.216 149.541H201.725V161.285H192.216V149.541ZM160.068 237.36H150.559V225.644H160.068V237.36ZM160.068 224.676H150.559V212.932H160.068V224.676ZM160.068 211.993H150.559V200.276H160.068V211.993ZM160.068 199.309H150.559V187.564H160.068V199.309ZM160.068 186.625H150.559V174.908H160.068V186.625ZM160.068 173.941H150.559V162.196H160.068V173.941ZM160.068 161.257H150.559V149.541H160.068V161.257ZM170.482 237.36H160.974V225.644H170.482V237.36ZM170.482 224.676H160.974V212.932H170.482V224.676ZM170.482 211.993H160.974V200.276H170.482V211.993ZM170.482 199.309H160.974V187.564H170.482V199.309ZM170.482 186.625H160.974V174.908H170.482V186.625ZM170.482 173.941H160.974V162.196H170.482V173.941ZM170.482 161.257H160.974V149.541H170.482V161.257ZM170.482 148.573H160.974V136.829H170.482V148.573ZM170.482 135.889H160.974V124.173H170.482V135.889ZM180.896 237.36H171.388V225.644H180.896V237.36ZM180.896 224.676H171.388V212.932H180.896V224.676ZM180.896 211.993H171.388V200.276H180.896V211.993ZM180.896 199.309H171.388V187.564H180.896V199.309ZM180.896 186.625H171.388V174.908H180.896V186.625ZM180.896 173.941H171.388V162.196H180.896V173.941ZM180.896 161.257H171.388V149.541H180.896V161.257ZM180.896 148.573H171.388V136.829H180.896V148.573ZM191.31 199.309H181.802V187.564H191.31V199.309ZM191.31 186.625H181.802V174.908H191.31V186.625ZM191.31 173.941H181.802V162.196H191.31V173.941ZM191.31 161.257H181.802V149.541H191.31V161.257ZM191.31 148.573H181.802V136.829H191.31V148.573Z"
                          fill="#7C7C80"
                        />
                        <path
                          d="M201.725 162.196V165.015C202.033 164.16 202.34 163.333 202.63 162.516V162.178H202.748C202.866 161.868 202.974 161.548 203.083 161.238H202.63V149.541H206.135C206.135 149.4 206.135 149.249 206.135 149.108C206.135 148.968 206.135 148.77 206.135 148.601H202.63V138.586C202.349 138.407 202.051 138.238 201.725 138.05V148.601H192.216V136.857H199.569L197.867 135.917H192.216V132.817L191.31 132.319V135.889H181.802V127.189L180.896 126.7V135.889H171.388V124.173H176.124L174.367 123.233H171.388V121.645L170.482 121.157V123.233H160.974V116.14C160.657 115.971 160.358 115.811 160.068 115.67V123.233H150.65C150.65 123.543 150.65 123.853 150.65 124.173H160.068V135.917H150.731C150.731 136.227 150.731 136.537 150.731 136.857H160.068V148.601H150.559V144.138C150.378 148.723 150.052 153.534 149.654 158.429V161.247H149.418L149.337 162.187H149.654V173.969H148.295L148.205 174.908H149.699V186.653H147.127L147.046 187.592H149.699V199.337H146.167L146.113 200.276H149.735V212.021H145.724C145.724 212.34 145.724 212.65 145.724 212.96H149.744V224.705H145.751C145.751 225.024 145.751 225.334 145.751 225.644H149.735V237.389H145.932C145.932 237.708 145.932 238.018 145.932 238.328H149.717V260.642H150.623V238.3H160.068V260.614H160.974V238.3H170.482V260.614H171.388V238.3H180.896V260.614H181.802V238.3H187.896C187.896 237.99 187.896 237.68 187.978 237.36H181.802V225.644H189.047C189.047 225.334 189.11 225.024 189.137 224.705H181.802V212.96H190.169C190.169 212.641 190.224 212.34 190.26 212.021H181.802V200.276H191.31V201.526L191.709 197.927C191.836 196.875 192.008 195.785 192.216 194.667V187.592H193.909L194.181 186.653H192.216V174.908H198.102C198.22 174.598 198.329 174.279 198.446 173.969H192.216V162.225L201.725 162.196ZM192.216 149.541H201.725V161.285H192.216V149.541ZM160.068 237.36H150.559V225.644H160.068V237.36ZM160.068 224.676H150.559V212.932H160.068V224.676ZM160.068 211.993H150.559V200.276H160.068V211.993ZM160.068 199.309H150.559V187.564H160.068V199.309ZM160.068 186.625H150.559V174.908H160.068V186.625ZM160.068 173.941H150.559V162.196H160.068V173.941ZM160.068 161.257H150.559V149.541H160.068V161.257ZM170.482 237.36H160.974V225.644H170.482V237.36ZM170.482 224.676H160.974V212.932H170.482V224.676ZM170.482 211.993H160.974V200.276H170.482V211.993ZM170.482 199.309H160.974V187.564H170.482V199.309ZM170.482 186.625H160.974V174.908H170.482V186.625ZM170.482 173.941H160.974V162.196H170.482V173.941ZM170.482 161.257H160.974V149.541H170.482V161.257ZM170.482 148.573H160.974V136.829H170.482V148.573ZM170.482 135.889H160.974V124.173H170.482V135.889ZM180.896 237.36H171.388V225.644H180.896V237.36ZM180.896 224.676H171.388V212.932H180.896V224.676ZM180.896 211.993H171.388V200.276H180.896V211.993ZM180.896 199.309H171.388V187.564H180.896V199.309ZM180.896 186.625H171.388V174.908H180.896V186.625ZM180.896 173.941H171.388V162.196H180.896V173.941ZM180.896 161.257H171.388V149.541H180.896V161.257ZM180.896 148.573H171.388V136.829H180.896V148.573ZM191.31 199.309H181.802V187.564H191.31V199.309ZM191.31 186.625H181.802V174.908H191.31V186.625ZM191.31 173.941H181.802V162.196H191.31V173.941ZM191.31 161.257H181.802V149.541H191.31V161.257ZM191.31 148.573H181.802V136.829H191.31V148.573Z"
                          fill="black"
                          fill-opacity="0.2"
                        />
                      </g>
                      <path
                        d="M145.579 214.369C145.579 235.65 146.285 256.123 146.485 260.595H186.013C186.557 253.962 189.962 212.678 191.709 197.88C193.62 181.711 206.153 157.639 206.153 149.024C206.153 140.408 208.698 141.77 197.251 135.503C185.805 129.237 160.557 115.707 157.062 114.054C153.566 112.4 149.745 108.416 149.745 108.416C149.745 108.416 151.013 116.665 150.65 139.093C150.288 161.52 145.579 190.307 145.579 214.369Z"
                        stroke="#242426"
                        stroke-miterlimit="10"
                      />
                      <path
                        d="M149.744 108.501C149.744 108.501 151.012 116.75 150.65 139.177C150.577 144.815 150.206 150.903 149.744 157.179C150.831 155.629 154.335 150.677 155.178 150.395C156.128 150.067 161.218 155.018 165.347 155.676C169.477 156.333 171.07 156.333 166.624 151.382C162.178 146.431 160.285 131.924 158.673 121.035C158.366 118.703 157.873 116.403 157.197 114.157H157.088C153.557 112.466 149.744 108.501 149.744 108.501Z"
                        fill="#242426"
                        stroke="#242426"
                        stroke-miterlimit="10"
                      />
                      <path
                        d="M175.834 210.536C178.759 209.155 181.059 207.961 181.059 207.961L182.137 216.586C182.137 216.586 166.308 223.821 157.46 224.375C148.613 224.93 147.807 225.212 147.807 225.212L148.069 216.868"
                        stroke="#242426"
                        stroke-miterlimit="10"
                      />
                      <path
                        d="M167.91 213.909C169.531 213.345 171.433 212.547 173.289 211.71"
                        stroke="#242426"
                        stroke-miterlimit="10"
                      />
                      <path
                        d="M151.013 216.032C155.642 215.91 160.258 215.474 164.832 214.726"
                        stroke="#242426"
                        stroke-miterlimit="10"
                      />
                      <path
                        d="M182.137 216.587L182.671 223.267"
                        stroke="#242426"
                        stroke-miterlimit="10"
                      />
                      <path
                        d="M60.8072 260.614H105.289C105.389 256.997 106.675 211.025 107.544 187.564C108.45 163.136 124.424 126.08 124.424 126.08C124.424 126.08 126.561 120.856 124.297 118.507C122.033 116.158 116.6 117.098 112.525 120.386C108.45 123.675 70.8682 140.587 68.6042 142.935C66.3403 145.284 66.7931 153.27 65.8875 162.666C64.9819 172.061 50.0399 236.89 50.0399 236.89C50.0399 236.89 45.9648 237.83 44.6064 238.769C43.248 239.709 43.248 242.528 43.248 242.528C43.248 242.528 45.0592 242.997 50.4927 245.816C55.4915 248.409 60.1009 258.932 60.8072 260.614Z"
                        fill="white"
                      />
                      <g opacity="0.2">
                        <path
                          d="M118.411 136.828V141.629C118.719 140.765 119.018 139.929 119.317 139.121V136.828H120.168L120.521 135.889H119.317V124.172H125.022C125.086 123.881 125.158 123.562 125.203 123.233H119.317V117.333C119.018 117.379 118.719 117.426 118.411 117.502V123.233H108.903V122.594L107.997 123.073V123.233H107.689L105.878 124.172H107.997V135.917H98.4888V127.837L97.5832 128.278V135.889H88.0746V132.891L87.169 133.333V135.889H81.9076L79.9878 136.828H87.169V148.601H77.6605V137.984L76.7549 138.435V148.601H67.2463V146.233C66.7371 149.655 66.4346 153.107 66.3407 156.568V161.266H66.0147L65.9332 162.205H66.3407V173.969H63.9047L63.7146 174.908H66.3407V186.652H61.2604C61.1971 186.963 61.1246 187.282 61.0612 187.592H66.3407V199.336H58.5075C58.435 199.656 58.3716 199.966 58.2992 200.276H66.3407V212.02H56.8322V206.853L55.9266 210.912V211.973H55.6911L55.4828 212.913H55.9266V224.704H52.8295L52.6122 225.644H55.9266V237.388H48.2382C47.3152 237.644 46.408 237.958 45.5215 238.328V243.439C45.7932 243.552 46.092 243.683 46.4271 243.843V238.328H55.9266V251.481C56.2435 251.951 56.5424 252.421 56.8322 252.9V238.337H66.3407V260.651H67.2463V238.299H76.7549V260.614H77.6605V238.299H87.169V260.614H88.0746V238.299H97.5832V260.614H98.4888V238.299H105.924V237.36H98.4888V225.644H106.304V224.704H98.4888V212.96H106.693V212.02H98.4888V200.276H107.101C107.101 199.966 107.101 199.646 107.101 199.336H98.4888V187.592H107.545C107.545 187.282 107.545 186.972 107.59 186.652H98.4888V174.908H107.997V181.851C108.233 179.85 108.532 177.793 108.903 175.707V174.908H109.048C109.102 174.598 109.166 174.288 109.22 173.969H108.903V162.224H111.937C112.018 161.914 112.109 161.604 112.19 161.285H108.903V149.54H115.695C115.803 149.23 115.903 148.911 116.003 148.601H108.903V136.856L118.411 136.828ZM108.903 124.172H118.411V135.917H108.903V124.172ZM66.3407 237.388H56.8322V225.644H66.3407V237.388ZM66.3407 224.704H56.8322V212.96H66.3407V224.704ZM76.7549 237.388H67.2463V225.644H76.7549V237.388ZM76.7549 224.704H67.2463V212.96H76.7549V224.704ZM76.7549 212.02H67.2463V200.276H76.7549V212.02ZM76.7549 199.336H67.2463V187.592H76.7549V199.336ZM76.7549 186.652H67.2463V174.908H76.7549V186.652ZM76.7549 173.969H67.2463V162.224H76.7549V173.969ZM76.7549 161.285H67.2463V149.54H76.7549V161.285ZM87.169 237.388H77.6605V225.644H87.169V237.388ZM87.169 224.704H77.6605V212.96H87.169V224.704ZM87.169 212.02H77.6605V200.276H87.169V212.02ZM87.169 199.336H77.6605V187.592H87.169V199.336ZM87.169 186.652H77.6605V174.908H87.169V186.652ZM87.169 173.969H77.6605V162.224H87.169V173.969ZM87.169 161.285H77.6605V149.54H87.169V161.285ZM97.5832 237.388H88.0746V225.644H97.5832V237.388ZM97.5832 224.704H88.0746V212.96H97.5832V224.704ZM97.5832 212.02H88.0746V200.276H97.5832V212.02ZM97.5832 199.336H88.0746V187.592H97.5832V199.336ZM97.5832 186.652H88.0746V174.908H97.5832V186.652ZM97.5832 173.969H88.0746V162.224H97.5832V173.969ZM97.5832 161.285H88.0746V149.54H97.5832V161.285ZM97.5832 148.601H88.0746V136.856H97.5832V148.601ZM107.997 173.969H98.4888V162.224H107.997V173.969ZM107.997 161.285H98.4888V149.54H107.997V161.285ZM107.997 148.601H98.4888V136.856H107.997V148.601Z"
                          fill="#7C7C80"
                        />
                        <path
                          d="M118.411 136.828V141.629C118.719 140.765 119.018 139.929 119.317 139.121V136.828H120.168L120.521 135.889H119.317V124.172H125.022C125.086 123.881 125.158 123.562 125.203 123.233H119.317V117.333C119.018 117.379 118.719 117.426 118.411 117.502V123.233H108.903V122.594L107.997 123.073V123.233H107.689L105.878 124.172H107.997V135.917H98.4888V127.837L97.5832 128.278V135.889H88.0746V132.891L87.169 133.333V135.889H81.9076L79.9878 136.828H87.169V148.601H77.6605V137.984L76.7549 138.435V148.601H67.2463V146.233C66.7371 149.655 66.4346 153.107 66.3407 156.568V161.266H66.0147L65.9332 162.205H66.3407V173.969H63.9047L63.7146 174.908H66.3407V186.652H61.2604C61.1971 186.963 61.1246 187.282 61.0612 187.592H66.3407V199.336H58.5075C58.435 199.656 58.3716 199.966 58.2992 200.276H66.3407V212.02H56.8322V206.853L55.9266 210.912V211.973H55.6911L55.4828 212.913H55.9266V224.704H52.8295L52.6122 225.644H55.9266V237.388H48.2382C47.3152 237.644 46.408 237.958 45.5215 238.328V243.439C45.7932 243.552 46.092 243.683 46.4271 243.843V238.328H55.9266V251.481C56.2435 251.951 56.5424 252.421 56.8322 252.9V238.337H66.3407V260.651H67.2463V238.299H76.7549V260.614H77.6605V238.299H87.169V260.614H88.0746V238.299H97.5832V260.614H98.4888V238.299H105.924V237.36H98.4888V225.644H106.304V224.704H98.4888V212.96H106.693V212.02H98.4888V200.276H107.101C107.101 199.966 107.101 199.646 107.101 199.336H98.4888V187.592H107.545C107.545 187.282 107.545 186.972 107.59 186.652H98.4888V174.908H107.997V181.851C108.233 179.85 108.532 177.793 108.903 175.707V174.908H109.048C109.102 174.598 109.166 174.288 109.22 173.969H108.903V162.224H111.937C112.018 161.914 112.109 161.604 112.19 161.285H108.903V149.54H115.695C115.803 149.23 115.903 148.911 116.003 148.601H108.903V136.856L118.411 136.828ZM108.903 124.172H118.411V135.917H108.903V124.172ZM66.3407 237.388H56.8322V225.644H66.3407V237.388ZM66.3407 224.704H56.8322V212.96H66.3407V224.704ZM76.7549 237.388H67.2463V225.644H76.7549V237.388ZM76.7549 224.704H67.2463V212.96H76.7549V224.704ZM76.7549 212.02H67.2463V200.276H76.7549V212.02ZM76.7549 199.336H67.2463V187.592H76.7549V199.336ZM76.7549 186.652H67.2463V174.908H76.7549V186.652ZM76.7549 173.969H67.2463V162.224H76.7549V173.969ZM76.7549 161.285H67.2463V149.54H76.7549V161.285ZM87.169 237.388H77.6605V225.644H87.169V237.388ZM87.169 224.704H77.6605V212.96H87.169V224.704ZM87.169 212.02H77.6605V200.276H87.169V212.02ZM87.169 199.336H77.6605V187.592H87.169V199.336ZM87.169 186.652H77.6605V174.908H87.169V186.652ZM87.169 173.969H77.6605V162.224H87.169V173.969ZM87.169 161.285H77.6605V149.54H87.169V161.285ZM97.5832 237.388H88.0746V225.644H97.5832V237.388ZM97.5832 224.704H88.0746V212.96H97.5832V224.704ZM97.5832 212.02H88.0746V200.276H97.5832V212.02ZM97.5832 199.336H88.0746V187.592H97.5832V199.336ZM97.5832 186.652H88.0746V174.908H97.5832V186.652ZM97.5832 173.969H88.0746V162.224H97.5832V173.969ZM97.5832 161.285H88.0746V149.54H97.5832V161.285ZM97.5832 148.601H88.0746V136.856H97.5832V148.601ZM107.997 173.969H98.4888V162.224H107.997V173.969ZM107.997 161.285H98.4888V149.54H107.997V161.285ZM107.997 148.601H98.4888V136.856H107.997V148.601Z"
                          fill="black"
                          fill-opacity="0.2"
                        />
                      </g>
                      <path
                        d="M60.8072 260.614H105.289C105.389 256.997 106.675 211.025 107.544 187.564C108.45 163.136 124.424 126.08 124.424 126.08C124.424 126.08 126.561 120.856 124.297 118.507C122.033 116.158 116.6 117.098 112.525 120.386C108.45 123.675 70.8682 140.587 68.6042 142.935C66.3403 145.284 66.7931 153.27 65.8875 162.666C64.9819 172.061 50.0399 236.89 50.0399 236.89C50.0399 236.89 45.9648 237.83 44.6064 238.769C43.248 239.709 43.248 242.528 43.248 242.528C43.248 242.528 45.0592 242.997 50.4927 245.816C55.4915 248.409 60.1009 258.932 60.8072 260.614Z"
                        stroke="#242426"
                        stroke-miterlimit="10"
                      />
                      <path
                        d="M43.248 242.556C43.248 242.556 45.0592 243.025 50.4927 245.844C55.9261 248.663 60.9068 260.877 60.9068 260.877H69.6819C70.2343 259.167 71.5836 252.947 65.4347 245.374C58.1901 236.449 50.0399 236.918 50.0399 236.918C50.0399 236.918 45.9648 237.858 44.6064 238.797C43.248 239.737 43.248 242.556 43.248 242.556Z"
                        fill="#242426"
                        stroke="#242426"
                        stroke-miterlimit="10"
                      />
                      <path
                        d="M118.828 117.389C116.881 122.735 112.272 134.827 108.45 140.586C103.469 148.103 94.4137 154.21 97.5832 157.029C100.753 159.847 109.809 150.922 109.809 150.922C109.809 150.922 112.072 157.498 112.525 159.377C112.55 159.463 112.59 159.542 112.643 159.612C115.912 148.199 119.843 137.001 124.415 126.08C124.415 126.08 126.553 120.856 124.289 118.507C123.12 117.286 121.128 116.966 118.828 117.389Z"
                        fill="#242426"
                        stroke="#242426"
                        stroke-miterlimit="10"
                      />
                      <path
                        d="M85.7568 162.741C86.0166 161.004 86.1858 159.254 86.264 157.498"
                        stroke="#242426"
                        stroke-miterlimit="10"
                      />
                      <path
                        d="M78.5664 261.788C78.5664 261.788 79.9248 231.723 79.9248 214.341C79.9248 201.817 83.212 180.752 85.0594 167.852"
                        stroke="#242426"
                        stroke-miterlimit="10"
                      />
                      <path
                        d="M80.8304 207.792C80.8304 207.792 88.075 210.141 91.6973 210.611L102.564 212.02L101.74 222.665C101.74 222.665 101.206 222.355 93.0557 219.537C84.9055 216.718 79.9248 214.369 79.9248 214.369"
                        stroke="#242426"
                        stroke-miterlimit="10"
                      />
                      <path
                        d="M101.739 222.637C101.739 222.637 101.205 243.495 101.205 246.314C101.205 249.133 93.0547 247.253 93.0547 247.253"
                        stroke="#242426"
                        stroke-miterlimit="10"
                      />
                      <path
                        d="M108.242 107.467C108.242 107.467 116.782 120.208 124.425 126.08C132.068 131.952 138.588 123.731 143.686 114.918C148.785 106.105 152.181 99.6409 154.725 92.0024C157.27 84.3638 154.725 71.7363 144.537 61.7489C134.35 51.7615 110.551 37.0669 104.611 44.7055C98.6699 52.344 93.001 69.1337 96.9584 83.4807C99.3223 92.1058 103.143 100.227 108.242 107.467Z"
                        fill="#AEAEB2"
                        stroke="#242426"
                        stroke-miterlimit="10"
                      />
                      <path
                        d="M105.489 51.1978C105.489 51.1978 118.067 80.9627 119.643 81.7801C121.218 82.5975 124.361 72.8074 124.361 72.8074C124.361 72.8074 128.68 80.9533 133.806 83.4055C138.932 85.8578 140.489 81.7801 140.489 81.7801C143.057 83.2808 145.551 84.9145 147.96 86.6752L149.925 88.3006L151.89 95.6385C151.89 95.6385 145.995 115.623 147.96 118.075C149.925 120.527 160.928 117.258 160.928 117.258C160.928 117.258 158.211 121.335 161.716 121.335C165.221 121.335 171.541 122.153 180.579 109.506C189.617 96.8599 190.405 76.4811 190.405 76.4811C190.405 76.4811 194.724 81.3667 195.123 75.2503C195.521 69.1338 190.015 58.9397 190.015 58.9397C190.015 58.9397 198.655 67.9124 197.876 58.5357C197.097 49.159 191.98 38.5515 190.015 36.1087C188.05 33.6658 176.251 26.7132 176.251 26.7132C176.251 26.7132 180.969 25.8958 177.437 20.1833C173.905 14.4708 160.928 12.8454 156.21 12.8454C151.492 12.8454 141.666 14.4802 141.666 14.4802C141.666 14.4802 147.96 1.83389 141.277 1.01648C134.594 0.199073 122.803 13.6628 122.803 13.6628C122.803 13.6628 111.031 3.87272 107.472 5.91154C103.913 7.95036 106.295 10.8066 106.295 10.8066C106.295 10.8066 90.9722 12.028 86.6435 18.9619C82.3149 25.8958 87.4314 29.9734 87.4314 29.9734C87.4314 29.9734 59.9199 49.5442 64.2395 56.8821C68.5591 64.22 76.4286 57.2955 76.4286 57.2955C76.4286 57.2955 65.4168 86.6564 66.9925 88.6952C68.5682 90.734 76.0482 87.8778 76.0482 87.8778C76.0482 87.8778 75.6588 111.526 81.5542 113.978C87.4495 116.431 88.6267 111.94 88.6267 111.94C88.6267 111.94 91.7691 115.2 98.8507 115.604C105.932 116.008 108.278 107.449 108.278 107.449C108.278 107.449 100.417 88.2818 100.816 72.3847C101.214 56.4875 105.489 51.1978 105.489 51.1978Z"
                        fill="#242426"
                        stroke="#242426"
                        stroke-miterlimit="10"
                      />
                      <path
                        d="M28.1338 248.109C28.1338 248.109 42.3514 243.946 46.7253 243.195C51.0993 242.443 59.8562 250.758 61.3142 255.296C62.7722 259.834 60.9067 260.849 60.9067 260.849L31.7742 259.843L28.1338 248.109Z"
                        fill="#AEAEB2"
                        stroke="#242426"
                        stroke-miterlimit="10"
                      />
                      <path
                        d="M33.2874 246.643C33.2874 246.643 44.0185 250.814 46.699 252.487C49.3795 254.159 48.5735 257.495 46.9707 259.158C45.037 260.835 42.7305 261.984 40.2603 262.502C37.7599 262.65 35.2535 262.65 32.7531 262.502C29.5383 262.221 26.5861 262.784 23.9056 262.784C21.2251 262.784 13.1745 261.948 13.1745 261.948L10.7566 260.276C10.7566 260.276 6.22869 261.666 2.71504 263.094C-0.798601 264.522 0.297143 261.422 2.97766 259.195C5.65817 256.969 12.3685 251.406 13.4461 250.852C14.5238 250.298 28.198 246.154 28.198 246.154L33.2874 246.643Z"
                        fill="#AEAEB2"
                        stroke="#242426"
                        stroke-miterlimit="10"
                      />
                      <path
                        d="M37.3078 247.751C37.3078 247.751 30.3258 244.416 28.4513 244.416C26.5767 244.416 13.1651 249.114 11.2906 250.532C9.41601 251.951 7.53239 265.283 8.87265 266.12C10.2129 266.956 11.2905 264.447 11.5894 262.784C11.8882 261.121 15.6192 252.205 15.6192 252.205L12.9025 266.401C12.9025 266.401 13.9801 268.619 15.0487 266.674C16.1173 264.729 22.8276 251.369 23.3619 250.532C24.0647 249.757 24.8807 249.101 25.7798 248.588C25.7798 248.588 24.4395 254.713 23.3619 260.557C22.2843 266.401 23.0993 268.074 24.7112 268.346C26.3232 268.619 27.1201 264.729 27.926 262.784C28.732 260.839 32.2185 249.696 32.2185 249.696"
                        fill="#AEAEB2"
                      />
                      <path
                        d="M37.3078 247.751C37.3078 247.751 30.3258 244.416 28.4513 244.416C26.5767 244.416 13.1651 249.114 11.2906 250.532C9.41601 251.951 7.53239 265.283 8.87265 266.12C10.2129 266.956 11.2905 264.447 11.5894 262.784C11.8882 261.121 15.6192 252.205 15.6192 252.205L12.9025 266.401C12.9025 266.401 13.9801 268.619 15.0487 266.674C16.1173 264.729 22.8276 251.369 23.3619 250.532C24.0647 249.757 24.8807 249.101 25.7798 248.588C25.7798 248.588 24.4395 254.713 23.3619 260.557C22.2843 266.401 23.0993 268.074 24.7112 268.346C26.3232 268.619 27.1201 264.729 27.926 262.784C28.732 260.839 32.2185 249.696 32.2185 249.696"
                        stroke="#242426"
                        stroke-miterlimit="10"
                      />
                      <path
                        d="M45.0594 253.323C45.0594 253.323 37.0178 261.948 35.9402 263.893C34.8625 265.838 34.8716 266.12 37.8238 266.12C40.776 266.12 49.8952 259.994 50.6921 259.158C51.489 258.322 51.2354 255.822 49.3518 254.15C48.752 253.666 48.0493 253.339 47.3025 253.195C46.5556 253.051 45.7865 253.095 45.0594 253.323Z"
                        fill="#AEAEB2"
                        stroke="#242426"
                        stroke-miterlimit="10"
                      />
                      <path
                        d="M95.283 252.365C95.283 252.365 84.5519 255.963 81.9166 258.002C79.2814 260.041 75.478 262.286 76.302 262.972C77.1261 263.658 79.7704 262.972 80.5945 262.286C81.4186 261.6 85.2129 260.915 85.2129 260.915C85.2129 260.915 89.6684 258.171 93.1367 255.954C96.6051 253.736 99.2403 251.331 95.283 252.365Z"
                        fill="#AEAEB2"
                        stroke="#242426"
                        stroke-miterlimit="10"
                      />
                      <path
                        d="M154.517 233.517C154.517 233.517 124.633 239.155 113.82 243.091C103.008 247.028 98.706 249.772 93.2997 253.736C87.8934 257.701 76.9359 265.19 78.566 266.505C80.196 267.82 85.874 263.207 86.8339 262.221C87.7938 261.234 94.7758 258.265 94.7758 258.265L99.4486 255.785C99.4486 255.785 92.4122 264.776 89.8766 267.059C87.341 269.342 89.0526 270.77 90.9633 270.113C92.8741 269.455 96.4783 265.518 96.4783 265.518L108.097 257.589C108.097 257.589 103.324 264.522 101.097 266.496C98.869 268.469 103.641 270.132 104.601 268.478C105.561 266.824 110.325 262.54 110.325 262.54C110.325 262.54 118.267 258.256 120.177 256.602C122.088 254.948 126.851 250.335 126.851 250.335L162.459 253.304C162.459 253.304 164.686 251.989 163.419 244.397C162.151 236.806 154.517 233.517 154.517 233.517Z"
                        fill="#AEAEB2"
                        stroke="#242426"
                        stroke-miterlimit="10"
                      />
                      <path
                        d="M178.678 175.134L196.165 220.006L167.865 230.229L175.816 254.309C175.816 254.309 196.137 254.366 212.039 253.37C227.941 252.374 239.098 242.424 236.553 230.558C234.009 218.691 224.473 201.525 216.839 181.072C209.205 160.618 211.568 148.422 208.073 142.155C204.577 135.889 194.716 134.235 194.716 134.235L189.282 133.295"
                        fill="white"
                      />
                      <path
                        opacity="0.2"
                        d="M233.873 243.035V238.337H236.236C236.336 238.027 236.418 237.717 236.49 237.398H233.873V225.644H235.231C235.132 225.343 235.023 225.024 234.923 224.704H233.873V221.839C233.583 221.059 233.284 220.26 232.967 219.462V224.704H223.459V212.96H230.287C230.151 212.65 230.024 212.34 229.888 212.02H223.459V200.276H224.726C224.582 199.966 224.446 199.656 224.31 199.336H223.459V197.373C223.16 196.678 222.852 195.982 222.553 195.278V199.336H213.045V187.592H219.384C219.257 187.282 219.13 186.972 219.012 186.653H213.045V174.908H214.738C214.638 174.598 214.548 174.279 214.457 173.969H213.045V168.613C212.7 167.129 212.402 165.71 212.139 164.348V173.969H202.63V162.224H211.759L211.596 161.285H202.63V149.54H210.065L209.929 148.601H202.63V137.082C201.836 136.64 201.02 136.242 200.185 135.889H192.216V133.784L191.311 133.615V135.889H188.639L188.395 136.828H191.311V148.601H185.424L185.189 149.54H191.32V161.285H182.201L181.956 162.224H191.311V173.969H181.802V162.826L180.897 166.386V173.903H178.977L178.741 174.842H180.897V180.79L181.802 183.11V174.908H191.311V186.653H183.16L183.523 187.592H191.311V199.336H188.141L188.512 200.276H191.356V207.576L192.262 209.897V200.276H201.725V212.02H193.04L193.412 212.96H201.725V224.704H192.216V221.453L191.311 221.782V224.704H183.215L180.607 225.644H180.897V237.388H171.388V228.932L170.482 229.261V237.341H170.22L171.388 240.874V238.281H180.897V254.253H181.802V238.281H191.311V254.131H192.216V238.3H201.725V253.83H202.63V238.3H212.139V253.332L213.045 253.257V238.3H222.553V251.19L223.459 250.833V238.3H232.967V244.2C233.284 243.815 233.592 243.43 233.873 243.035ZM191.311 237.398H181.802V225.644H191.311V237.398ZM201.725 237.398H192.216V225.644H201.725V237.398ZM201.725 199.346H192.216V187.602H201.725V199.346ZM201.725 186.662H192.216V174.908H201.725V186.662ZM201.725 173.978H192.216V162.234H201.725V173.978ZM201.725 161.294H192.216V149.54H201.725V161.294ZM201.725 148.61H192.216V136.866H201.725V148.61ZM212.139 237.398H202.63V225.644H212.139V237.398ZM212.139 224.714H202.63V212.969H212.139V224.714ZM212.139 212.03H202.63V200.276H212.139V212.03ZM212.139 199.346H202.63V187.602H212.139V199.346ZM212.139 186.662H202.63V174.908H212.139V186.662ZM222.553 237.398H213.045V225.644H222.553V237.398ZM222.553 224.714H213.045V212.969H222.553V224.714ZM222.553 212.03H213.045V200.276H222.553V212.03ZM223.459 237.398V225.644H232.967V237.388L223.459 237.398Z"
                        fill="#242426"
                      />
                      <path
                        d="M178.678 175.134L196.165 220.006L167.865 230.229L175.816 254.309C175.816 254.309 196.137 254.366 212.039 253.37C227.941 252.374 239.098 242.424 236.553 230.558C234.009 218.691 224.473 201.525 216.839 181.072C209.205 160.618 211.568 148.422 208.073 142.155C204.577 135.889 194.716 134.235 194.716 134.235L189.282 133.295"
                        stroke="#242426"
                        stroke-miterlimit="10"
                      />
                      <path
                        d="M213.19 215.44C207.42 216.549 201.732 218.071 196.165 219.997C196.165 219.997 208.245 211.748 214.92 211.09"
                        stroke="#242426"
                        stroke-miterlimit="10"
                      />
                      <path
                        d="M221.285 215.046C220.032 214.859 218.763 214.815 217.5 214.914"
                        stroke="#242426"
                        stroke-miterlimit="10"
                      />
                      <path
                        d="M176.133 226.583C176.133 226.583 182.562 232.963 184.464 237.905C186.366 242.847 185.668 256.273 184.401 257.589C183.133 258.904 159.47 258.744 155.576 253.699C154.562 252.384 161.508 249.349 158.012 242.086C154.517 234.823 152.923 234.175 152.923 234.175C152.923 234.175 150.061 232.521 155.467 228.895C160.874 225.268 173.271 222.637 176.133 226.583Z"
                        fill="#242426"
                        stroke="#242426"
                        stroke-miterlimit="10"
                      />
                    </svg>
