<svg width="620" height="461" viewBox="0 0 620 461" fill="none" xmlns="http://www.w3.org/2000/svg">
<ellipse cx="442" cy="231" rx="324" ry="366" transform="rotate(-90 442 231)" fill="url(#paint0_linear_19520_3904)"/>
<g opacity="0.3">
<path d="M367.759 67.2153H274.484V194.308H367.759V67.2153Z" stroke="#7C7C80" stroke-miterlimit="10"/>
<path d="M367.759 67.2153H274.484V194.308H367.759V67.2153Z" stroke="black" stroke-opacity="0.2" stroke-miterlimit="10"/>
<path d="M350.643 90.5349H291.6V170.989H350.643V90.5349Z" stroke="#7C7C80" stroke-miterlimit="10"/>
<path d="M350.643 90.5349H291.6V170.989H350.643V90.5349Z" stroke="black" stroke-opacity="0.2" stroke-miterlimit="10"/>
</g>
<path d="M252.633 52.9719H5.68164V281.038H252.633V52.9719Z" fill="#242426" stroke="#242426" stroke-miterlimit="10"/>
<path d="M247.951 47.4192H1V275.485H247.951V47.4192Z" fill="white" stroke="#242426" stroke-linecap="round" stroke-linejoin="round"/>
<path d="M199.865 139.457H212.145V126.717H199.865V139.457Z" fill="white" stroke="#242426" stroke-linecap="round" stroke-linejoin="round"/>
<path d="M215.939 139.457H228.219V126.717H215.939V139.457Z" fill="white" stroke="#242426" stroke-linecap="round" stroke-linejoin="round"/>
<path d="M194.957 133.858H132.571" stroke="#242426" stroke-linecap="round" stroke-linejoin="round"/>
<path d="M199.865 169.532H212.145V156.792H199.865V169.532Z" fill="white" stroke="#242426" stroke-linecap="round" stroke-linejoin="round"/>
<path d="M215.939 169.532H228.219V156.792H215.939V169.532Z" fill="white" stroke="#242426" stroke-linecap="round" stroke-linejoin="round"/>
<path d="M194.957 163.923H132.571" stroke="#242426" stroke-linecap="round" stroke-linejoin="round"/>
<path d="M199.865 199.607H212.145V186.867H199.865V199.607Z" fill="white" stroke="#242426" stroke-linecap="round" stroke-linejoin="round"/>
<path d="M215.939 199.607H228.219V186.867H215.939V199.607Z" fill="white" stroke="#242426" stroke-linecap="round" stroke-linejoin="round"/>
<path d="M194.957 193.998H132.571" stroke="#242426" stroke-linecap="round" stroke-linejoin="round"/>
<path d="M82.4655 139.457H94.7451V126.717H82.4655V139.457Z" fill="white" stroke="#242426" stroke-linecap="round" stroke-linejoin="round"/>
<path d="M98.5495 139.457H110.829V126.717H98.5495V139.457Z" fill="white" stroke="#242426" stroke-linecap="round" stroke-linejoin="round"/>
<path d="M77.5572 133.858H15.1719" stroke="#242426" stroke-linecap="round" stroke-linejoin="round"/>
<path d="M82.4655 169.532H94.7451V156.792H82.4655V169.532Z" fill="white" stroke="#242426" stroke-linecap="round" stroke-linejoin="round"/>
<path d="M98.5495 169.532H110.829V156.792H98.5495V169.532Z" fill="white" stroke="#242426" stroke-linecap="round" stroke-linejoin="round"/>
<path d="M77.5572 163.923H15.1719" stroke="#242426" stroke-linecap="round" stroke-linejoin="round"/>
<path d="M82.4655 199.607H94.7451V186.867H82.4655V199.607Z" fill="white" stroke="#242426" stroke-linecap="round" stroke-linejoin="round"/>
<path d="M98.5495 199.607H110.829V186.867H98.5495V199.607Z" fill="white" stroke="#242426" stroke-linecap="round" stroke-linejoin="round"/>
<path d="M77.5572 193.998H15.1719" stroke="#242426" stroke-linecap="round" stroke-linejoin="round"/>
<path d="M32.5772 243.409H19.0479V257.446H32.5772V243.409Z" fill="white" stroke="#242426" stroke-linecap="round" stroke-linejoin="round"/>
<path d="M87.7901 243.409H74.2607V257.446H87.7901V243.409Z" fill="white" stroke="#242426" stroke-linecap="round" stroke-linejoin="round"/>
<path d="M145.195 243.409H131.666V257.446H145.195V243.409Z" fill="white" stroke="#242426" stroke-linecap="round" stroke-linejoin="round"/>
<path d="M102.579 130.983L104.671 135.342L114.804 125.186" stroke="#242426" stroke-width="2" stroke-linecap="round" stroke-linejoin="round"/>
<path d="M102.579 160.72L104.671 165.07L114.804 154.913" stroke="#242426" stroke-width="2" stroke-linecap="round" stroke-linejoin="round"/>
<path d="M85.1016 191.903L87.2025 196.253L97.3359 186.097" stroke="#242426" stroke-width="2" stroke-linecap="round" stroke-linejoin="round"/>
<path d="M219.299 130.626L221.391 134.976L231.524 124.819" stroke="#242426" stroke-width="2" stroke-linecap="round" stroke-linejoin="round"/>
<path d="M202.383 161.077L204.475 165.427L214.608 155.28" stroke="#242426" stroke-width="2" stroke-linecap="round" stroke-linejoin="round"/>
<path d="M202.383 191.631L204.475 195.981L214.608 185.833" stroke="#242426" stroke-width="2" stroke-linecap="round" stroke-linejoin="round"/>
<path d="M247.951 47.4192H1V83.0469H247.951V47.4192Z" fill="white" stroke="#242426" stroke-linecap="round" stroke-linejoin="round"/>
<path d="M247.951 47.4192H238.65V275.485H247.951V47.4192Z" fill="#E5E5EA" stroke="#242426" stroke-linecap="round" stroke-linejoin="round"/>
<path d="M247.951 81.6938H238.65V125.712H247.951V81.6938Z" fill="#AEAEB2" stroke="#242426" stroke-linecap="round" stroke-linejoin="round"/>
<path d="M247.951 47.4192H1V64.7445H247.951V47.4192Z" fill="#E5E5EA" stroke="#242426" stroke-linecap="round" stroke-linejoin="round"/>
<path d="M110.91 52.4646H13.5244V59.6803H110.91V52.4646Z" fill="white" stroke="#242426" stroke-linecap="round" stroke-linejoin="round"/>
<path d="M233.371 52.8027H241.92" stroke="#242426" stroke-linecap="round" stroke-linejoin="round"/>
<path d="M233.371 56.5515H241.92" stroke="#242426" stroke-linecap="round" stroke-linejoin="round"/>
<path d="M233.371 60.3098H241.92" stroke="#242426" stroke-linecap="round" stroke-linejoin="round"/>
<path d="M29.5801 240.027H27.452L27.0898 237.509H24.5451L24.1829 240.027H22.2178L24.3549 226.15H27.4339L29.5801 240.027ZM24.7806 235.62H26.8091L25.7948 228.602L24.7806 235.62Z" fill="#242426"/>
<path d="M83.9058 229.316V229.805C83.9058 231.233 83.4892 232.144 82.5474 232.623C83.6794 233.074 84.1141 234.126 84.1141 235.592V236.729C84.1141 238.871 83.0274 240.017 80.9265 240.017H77.6211V226.15H80.7906C82.9731 226.15 83.9058 227.202 83.9058 229.316ZM79.722 228.104V231.768H80.5461C81.3249 231.768 81.8049 231.411 81.8049 230.302V229.532C81.8049 228.536 81.4789 228.104 80.7363 228.104H79.722ZM79.722 233.741V238.007H80.9265C81.6328 238.007 82.0132 237.669 82.0132 236.635V235.432C82.0132 234.136 81.6147 233.741 80.6638 233.741H79.722Z" fill="#242426"/>
<path d="M141.854 234.85V236.729C141.854 238.956 140.785 240.224 138.72 240.224C136.656 240.224 135.587 238.956 135.587 236.729V229.513C135.587 227.296 136.656 226.028 138.72 226.028C140.785 226.028 141.854 227.296 141.854 229.513V230.866H139.87V229.316C139.87 228.32 139.445 227.944 138.775 227.944C138.104 227.944 137.688 228.32 137.688 229.316V236.832C137.688 237.828 138.113 238.185 138.775 238.185C139.436 238.185 139.87 237.828 139.87 236.832V234.85H141.854Z" fill="#242426"/>
<path d="M16.123 218.755H176.637" stroke="#242426" stroke-linecap="round" stroke-linejoin="round"/>
<g opacity="0.3">
<path d="M279.764 48.5371H297.486V30.1501L279.764 30.1501V48.5371Z" stroke="#7C7C80" stroke-linecap="round" stroke-linejoin="round"/>
<path d="M279.764 48.5371H297.486V30.1501L279.764 30.1501V48.5371Z" stroke="black" stroke-opacity="0.2" stroke-linecap="round" stroke-linejoin="round"/>
</g>
<g opacity="0.3">
<path d="M302.974 48.5371H320.696V30.1501L302.974 30.1501V48.5371Z" stroke="#7C7C80" stroke-linecap="round" stroke-linejoin="round"/>
<path d="M302.974 48.5371H320.696V30.1501L302.974 30.1501V48.5371Z" stroke="black" stroke-opacity="0.2" stroke-linecap="round" stroke-linejoin="round"/>
</g>
<g opacity="0.3">
<path d="M283.576 37.4223L286.601 43.6985L295.494 33.542" stroke="#7C7C80" stroke-width="2" stroke-linecap="round" stroke-linejoin="round"/>
<path d="M283.576 37.4223L286.601 43.6985L295.494 33.542" stroke="black" stroke-opacity="0.2" stroke-width="2" stroke-linecap="round" stroke-linejoin="round"/>
</g>
<g opacity="0.3">
<path d="M11.4858 318.301H29.208L29.208 299.914H11.4858L11.4858 318.301Z" stroke="#7C7C80" stroke-linecap="round" stroke-linejoin="round"/>
<path d="M11.4858 318.301H29.208L29.208 299.914H11.4858L11.4858 318.301Z" stroke="black" stroke-opacity="0.2" stroke-linecap="round" stroke-linejoin="round"/>
</g>
<g opacity="0.3">
<path d="M34.687 318.301H52.4092V299.914H34.687V318.301Z" stroke="#7C7C80" stroke-linecap="round" stroke-linejoin="round"/>
<path d="M34.687 318.301H52.4092V299.914H34.687V318.301Z" stroke="black" stroke-opacity="0.2" stroke-linecap="round" stroke-linejoin="round"/>
</g>
<g opacity="0.3">
<path d="M15.2803 307.186L18.3049 313.462L27.1977 303.305" stroke="#7C7C80" stroke-width="2" stroke-linecap="round" stroke-linejoin="round"/>
<path d="M15.2803 307.186L18.3049 313.462L27.1977 303.305" stroke="black" stroke-opacity="0.2" stroke-width="2" stroke-linecap="round" stroke-linejoin="round"/>
</g>
<g opacity="0.3">
<path d="M95.4429 318.301H113.165V299.914H95.4429V318.301Z" stroke="#7C7C80" stroke-linecap="round" stroke-linejoin="round"/>
<path d="M95.4429 318.301H113.165V299.914H95.4429V318.301Z" stroke="black" stroke-opacity="0.2" stroke-linecap="round" stroke-linejoin="round"/>
</g>
<g opacity="0.3">
<path d="M118.652 318.301H136.374V299.914H118.652V318.301Z" stroke="#7C7C80" stroke-linecap="round" stroke-linejoin="round"/>
<path d="M118.652 318.301H136.374V299.914H118.652V318.301Z" stroke="black" stroke-opacity="0.2" stroke-linecap="round" stroke-linejoin="round"/>
</g>
<g opacity="0.3">
<path d="M99.2461 307.186L102.271 313.462L111.163 303.305" stroke="#7C7C80" stroke-width="2" stroke-linecap="round" stroke-linejoin="round"/>
<path d="M99.2461 307.186L102.271 313.462L111.163 303.305" stroke="black" stroke-opacity="0.2" stroke-width="2" stroke-linecap="round" stroke-linejoin="round"/>
</g>
<g opacity="0.3">
<path d="M122.928 39.3465C129.129 38.3067 133.344 32.2481 132.342 25.8142C131.339 19.3803 125.5 15.0075 119.299 16.0473C113.097 17.087 108.883 23.1456 109.885 29.5795C110.887 36.0134 116.727 40.3862 122.928 39.3465Z" stroke="#7C7C80" stroke-linecap="round" stroke-linejoin="round"/>
<path d="M122.928 39.3465C129.129 38.3067 133.344 32.2481 132.342 25.8142C131.339 19.3803 125.5 15.0075 119.299 16.0473C113.097 17.087 108.883 23.1456 109.885 29.5795C110.887 36.0134 116.727 40.3862 122.928 39.3465Z" stroke="black" stroke-opacity="0.2" stroke-linecap="round" stroke-linejoin="round"/>
<path d="M124.295 31.9636L121.116 27.698V20.9802" stroke="#7C7C80" stroke-linecap="round" stroke-linejoin="round"/>
<path d="M124.295 31.9636L121.116 27.698V20.9802" stroke="black" stroke-opacity="0.2" stroke-linecap="round" stroke-linejoin="round"/>
</g>
<g opacity="0.3">
<path d="M333.419 254.045H331.735L331.445 252.053H329.398L329.109 254.045H327.578L329.281 243.043H331.717L333.419 254.045ZM329.616 250.559H331.219L330.413 244.988L329.616 250.559Z" fill="#7C7C80"/>
<path d="M333.419 254.045H331.735L331.445 252.053H329.398L329.109 254.045H327.578L329.281 243.043H331.717L333.419 254.045ZM329.616 250.559H331.219L330.413 244.988L329.616 250.559Z" fill="black" fill-opacity="0.2"/>
<path d="M357.137 245.57V245.965C357.201 246.404 357.133 246.852 356.941 247.249C356.75 247.646 356.445 247.972 356.068 248.182C356.493 248.383 356.844 248.721 357.068 249.146C357.292 249.572 357.376 250.061 357.309 250.54V251.48C357.351 251.835 357.314 252.194 357.201 252.532C357.087 252.869 356.901 253.175 356.657 253.427C356.412 253.678 356.115 253.868 355.788 253.981C355.462 254.095 355.115 254.13 354.773 254.082H352.156V243.043H354.674C356.394 243.043 357.137 243.87 357.137 245.57ZM353.823 244.631V247.543H354.475C355.09 247.543 355.471 247.261 355.471 246.378V245.767C355.471 244.978 355.217 244.631 354.619 244.631H353.823ZM353.823 249.112V252.495H354.773C355.335 252.495 355.679 252.232 355.679 251.414V250.475C355.679 249.46 355.353 249.14 354.601 249.14L353.823 249.112Z" fill="#7C7C80"/>
<path d="M357.137 245.57V245.965C357.201 246.404 357.133 246.852 356.941 247.249C356.75 247.646 356.445 247.972 356.068 248.182C356.493 248.383 356.844 248.721 357.068 249.146C357.292 249.572 357.376 250.061 357.309 250.54V251.48C357.351 251.835 357.314 252.194 357.201 252.532C357.087 252.869 356.901 253.175 356.657 253.427C356.412 253.678 356.115 253.868 355.788 253.981C355.462 254.095 355.115 254.13 354.773 254.082H352.156V243.043H354.674C356.394 243.043 357.137 243.87 357.137 245.57ZM353.823 244.631V247.543H354.475C355.09 247.543 355.471 247.261 355.471 246.378V245.767C355.471 244.978 355.217 244.631 354.619 244.631H353.823ZM353.823 249.112V252.495H354.773C355.335 252.495 355.679 252.232 355.679 251.414V250.475C355.679 249.46 355.353 249.14 354.601 249.14L353.823 249.112Z" fill="black" fill-opacity="0.2"/>
<path d="M381.152 249.986V251.442C381.152 253.209 380.31 254.214 378.671 254.214C377.032 254.214 376.181 253.209 376.181 251.442V245.72C376.181 243.954 377.032 242.949 378.671 242.949C380.31 242.949 381.152 243.954 381.152 245.72V246.791H379.577V245.57C379.577 244.781 379.242 244.49 378.716 244.49C378.191 244.49 377.811 244.781 377.811 245.57V251.517C377.811 252.307 378.146 252.588 378.716 252.588C379.287 252.588 379.577 252.307 379.577 251.517V249.986H381.152Z" fill="#7C7C80"/>
<path d="M381.152 249.986V251.442C381.152 253.209 380.31 254.214 378.671 254.214C377.032 254.214 376.181 253.209 376.181 251.442V245.72C376.181 243.954 377.032 242.949 378.671 242.949C380.31 242.949 381.152 243.954 381.152 245.72V246.791H379.577V245.57C379.577 244.781 379.242 244.49 378.716 244.49C378.191 244.49 377.811 244.781 377.811 245.57V251.517C377.811 252.307 378.146 252.588 378.716 252.588C379.287 252.588 379.577 252.307 379.577 251.517V249.986H381.152Z" fill="black" fill-opacity="0.2"/>
<path d="M336.734 260.048H323.848V273.418H336.734V260.048Z" stroke="#7C7C80" stroke-miterlimit="10"/>
<path d="M336.734 260.048H323.848V273.418H336.734V260.048Z" stroke="black" stroke-opacity="0.2" stroke-miterlimit="10"/>
<path d="M360.705 260.048H347.818V273.418H360.705V260.048Z" stroke="#7C7C80" stroke-miterlimit="10"/>
<path d="M360.705 260.048H347.818V273.418H360.705V260.048Z" stroke="black" stroke-opacity="0.2" stroke-miterlimit="10"/>
<path d="M384.675 260.048H371.789V273.418H384.675V260.048Z" stroke="#7C7C80" stroke-miterlimit="10"/>
<path d="M384.675 260.048H371.789V273.418H384.675V260.048Z" stroke="black" stroke-opacity="0.2" stroke-miterlimit="10"/>
</g>
<path d="M31.2826 414.934H4.01562" stroke="#242426" stroke-miterlimit="10"/>
<path d="M387.075 414.933H40.166" stroke="#242426" stroke-miterlimit="10"/>
<path d="M282.309 414.614L288.141 322.726L292.433 279.037L280.66 265.404L274.756 260.951C274.756 260.951 266.443 268.467 260.548 270.13C254.652 271.793 248.983 273.475 248.983 273.475C248.983 273.475 228.87 312.71 227.249 330.515C225.628 348.319 222.957 414.276 222.957 414.276L225.194 414.614H282.309Z" fill="#AEAEB2" stroke="#242426" stroke-miterlimit="10"/>
<path d="M254.661 338.858C254.661 338.858 253.656 338.322 255.667 332.948" stroke="#242426" stroke-miterlimit="10"/>
<path d="M252.298 272.535C253.298 279.958 253.851 287.439 253.955 294.934C253.955 294.934 259.995 292.425 264.822 283.659C267.489 278.955 269.784 274.034 271.686 268.946L252.298 272.535Z" fill="#242426" stroke="#242426" stroke-miterlimit="10"/>
<path d="M282.309 414.614L287.552 331.999C282.408 334.724 272.257 339.225 261.055 339.422C247.634 339.657 231.017 328.843 231.017 328.843L227.277 330.365C227.277 330.412 227.277 330.468 227.277 330.515C225.665 348.366 222.984 414.276 222.984 414.276L225.221 414.614H282.309Z" fill="white" stroke="#242426" stroke-miterlimit="10"/>
<path d="M273.579 368.369C273.579 389.65 274.285 410.123 274.485 414.595H314.013C314.557 407.962 317.962 366.678 319.709 351.88C321.62 335.711 334.153 311.639 334.153 303.024C334.153 294.408 336.698 295.77 325.251 289.503C313.805 283.237 288.557 269.707 285.062 268.054C281.566 266.4 277.745 262.416 277.745 262.416C277.745 262.416 279.013 270.665 278.65 293.093C278.288 315.52 273.579 344.307 273.579 368.369Z" fill="white"/>
<g opacity="0.2">
<path d="M277.744 262.501C278.216 266.404 278.488 270.331 278.559 274.264V263.3C278.052 262.82 277.744 262.501 277.744 262.501Z" fill="#7C7C80"/>
<path d="M277.744 262.501C278.216 266.404 278.488 270.331 278.559 274.264V263.3C278.052 262.82 277.744 262.501 277.744 262.501Z" fill="black" fill-opacity="0.2"/>
<path d="M329.725 316.196V319.015C330.033 318.16 330.34 317.333 330.63 316.516V316.178H330.748C330.866 315.868 330.974 315.548 331.083 315.238H330.63V303.541H334.135C334.135 303.4 334.135 303.249 334.135 303.108C334.135 302.968 334.135 302.77 334.135 302.601H330.63V292.586C330.349 292.407 330.051 292.238 329.725 292.05V302.601H320.216V290.857H327.569L325.867 289.917H320.216V286.817L319.31 286.319V289.889H309.802V281.189L308.896 280.7V289.889H299.388V278.173H304.124L302.367 277.233H299.388V275.645L298.482 275.157V277.233H288.974V270.14C288.657 269.971 288.358 269.811 288.068 269.67V277.233H278.65C278.65 277.543 278.65 277.853 278.65 278.173H288.068V289.917H278.731C278.731 290.227 278.731 290.537 278.731 290.857H288.068V302.601H278.559V298.138C278.378 302.723 278.052 307.534 277.654 312.429V315.247H277.418L277.337 316.187H277.654V327.969H276.295L276.205 328.908H277.699V340.653H275.127L275.046 341.592H277.699V353.337H274.167L274.113 354.276H277.735V366.021H273.724C273.724 366.34 273.724 366.65 273.724 366.96H277.744V378.705H273.751C273.751 379.024 273.751 379.334 273.751 379.644H277.735V391.389H273.932C273.932 391.708 273.932 392.018 273.932 392.328H277.717V414.642H278.623V392.3H288.068V414.614H288.974V392.3H298.482V414.614H299.388V392.3H308.896V414.614H309.802V392.3H315.896C315.896 391.99 315.896 391.68 315.978 391.36H309.802V379.644H317.047C317.047 379.334 317.11 379.024 317.137 378.705H309.802V366.96H318.169C318.169 366.641 318.224 366.34 318.26 366.021H309.802V354.276H319.31V355.526L319.709 351.927C319.836 350.875 320.008 349.785 320.216 348.667V341.592H321.909L322.181 340.653H320.216V328.908H326.102C326.22 328.598 326.329 328.279 326.446 327.969H320.216V316.225L329.725 316.196ZM320.216 303.541H329.725V315.285H320.216V303.541ZM288.068 391.36H278.559V379.644H288.068V391.36ZM288.068 378.676H278.559V366.932H288.068V378.676ZM288.068 365.993H278.559V354.276H288.068V365.993ZM288.068 353.309H278.559V341.564H288.068V353.309ZM288.068 340.625H278.559V328.908H288.068V340.625ZM288.068 327.941H278.559V316.196H288.068V327.941ZM288.068 315.257H278.559V303.541H288.068V315.257ZM298.482 391.36H288.974V379.644H298.482V391.36ZM298.482 378.676H288.974V366.932H298.482V378.676ZM298.482 365.993H288.974V354.276H298.482V365.993ZM298.482 353.309H288.974V341.564H298.482V353.309ZM298.482 340.625H288.974V328.908H298.482V340.625ZM298.482 327.941H288.974V316.196H298.482V327.941ZM298.482 315.257H288.974V303.541H298.482V315.257ZM298.482 302.573H288.974V290.829H298.482V302.573ZM298.482 289.889H288.974V278.173H298.482V289.889ZM308.896 391.36H299.388V379.644H308.896V391.36ZM308.896 378.676H299.388V366.932H308.896V378.676ZM308.896 365.993H299.388V354.276H308.896V365.993ZM308.896 353.309H299.388V341.564H308.896V353.309ZM308.896 340.625H299.388V328.908H308.896V340.625ZM308.896 327.941H299.388V316.196H308.896V327.941ZM308.896 315.257H299.388V303.541H308.896V315.257ZM308.896 302.573H299.388V290.829H308.896V302.573ZM319.31 353.309H309.802V341.564H319.31V353.309ZM319.31 340.625H309.802V328.908H319.31V340.625ZM319.31 327.941H309.802V316.196H319.31V327.941ZM319.31 315.257H309.802V303.541H319.31V315.257ZM319.31 302.573H309.802V290.829H319.31V302.573Z" fill="#7C7C80"/>
<path d="M329.725 316.196V319.015C330.033 318.16 330.34 317.333 330.63 316.516V316.178H330.748C330.866 315.868 330.974 315.548 331.083 315.238H330.63V303.541H334.135C334.135 303.4 334.135 303.249 334.135 303.108C334.135 302.968 334.135 302.77 334.135 302.601H330.63V292.586C330.349 292.407 330.051 292.238 329.725 292.05V302.601H320.216V290.857H327.569L325.867 289.917H320.216V286.817L319.31 286.319V289.889H309.802V281.189L308.896 280.7V289.889H299.388V278.173H304.124L302.367 277.233H299.388V275.645L298.482 275.157V277.233H288.974V270.14C288.657 269.971 288.358 269.811 288.068 269.67V277.233H278.65C278.65 277.543 278.65 277.853 278.65 278.173H288.068V289.917H278.731C278.731 290.227 278.731 290.537 278.731 290.857H288.068V302.601H278.559V298.138C278.378 302.723 278.052 307.534 277.654 312.429V315.247H277.418L277.337 316.187H277.654V327.969H276.295L276.205 328.908H277.699V340.653H275.127L275.046 341.592H277.699V353.337H274.167L274.113 354.276H277.735V366.021H273.724C273.724 366.34 273.724 366.65 273.724 366.96H277.744V378.705H273.751C273.751 379.024 273.751 379.334 273.751 379.644H277.735V391.389H273.932C273.932 391.708 273.932 392.018 273.932 392.328H277.717V414.642H278.623V392.3H288.068V414.614H288.974V392.3H298.482V414.614H299.388V392.3H308.896V414.614H309.802V392.3H315.896C315.896 391.99 315.896 391.68 315.978 391.36H309.802V379.644H317.047C317.047 379.334 317.11 379.024 317.137 378.705H309.802V366.96H318.169C318.169 366.641 318.224 366.34 318.26 366.021H309.802V354.276H319.31V355.526L319.709 351.927C319.836 350.875 320.008 349.785 320.216 348.667V341.592H321.909L322.181 340.653H320.216V328.908H326.102C326.22 328.598 326.329 328.279 326.446 327.969H320.216V316.225L329.725 316.196ZM320.216 303.541H329.725V315.285H320.216V303.541ZM288.068 391.36H278.559V379.644H288.068V391.36ZM288.068 378.676H278.559V366.932H288.068V378.676ZM288.068 365.993H278.559V354.276H288.068V365.993ZM288.068 353.309H278.559V341.564H288.068V353.309ZM288.068 340.625H278.559V328.908H288.068V340.625ZM288.068 327.941H278.559V316.196H288.068V327.941ZM288.068 315.257H278.559V303.541H288.068V315.257ZM298.482 391.36H288.974V379.644H298.482V391.36ZM298.482 378.676H288.974V366.932H298.482V378.676ZM298.482 365.993H288.974V354.276H298.482V365.993ZM298.482 353.309H288.974V341.564H298.482V353.309ZM298.482 340.625H288.974V328.908H298.482V340.625ZM298.482 327.941H288.974V316.196H298.482V327.941ZM298.482 315.257H288.974V303.541H298.482V315.257ZM298.482 302.573H288.974V290.829H298.482V302.573ZM298.482 289.889H288.974V278.173H298.482V289.889ZM308.896 391.36H299.388V379.644H308.896V391.36ZM308.896 378.676H299.388V366.932H308.896V378.676ZM308.896 365.993H299.388V354.276H308.896V365.993ZM308.896 353.309H299.388V341.564H308.896V353.309ZM308.896 340.625H299.388V328.908H308.896V340.625ZM308.896 327.941H299.388V316.196H308.896V327.941ZM308.896 315.257H299.388V303.541H308.896V315.257ZM308.896 302.573H299.388V290.829H308.896V302.573ZM319.31 353.309H309.802V341.564H319.31V353.309ZM319.31 340.625H309.802V328.908H319.31V340.625ZM319.31 327.941H309.802V316.196H319.31V327.941ZM319.31 315.257H309.802V303.541H319.31V315.257ZM319.31 302.573H309.802V290.829H319.31V302.573Z" fill="black" fill-opacity="0.2"/>
</g>
<path d="M273.579 368.369C273.579 389.65 274.285 410.123 274.485 414.595H314.013C314.557 407.962 317.962 366.678 319.709 351.88C321.62 335.711 334.153 311.639 334.153 303.024C334.153 294.408 336.698 295.77 325.251 289.503C313.805 283.237 288.557 269.707 285.062 268.054C281.566 266.4 277.745 262.416 277.745 262.416C277.745 262.416 279.013 270.665 278.65 293.093C278.288 315.52 273.579 344.307 273.579 368.369Z" stroke="#242426" stroke-miterlimit="10"/>
<path d="M277.744 262.501C277.744 262.501 279.012 270.75 278.65 293.177C278.577 298.815 278.206 304.903 277.744 311.179C278.831 309.629 282.335 304.677 283.178 304.395C284.128 304.067 289.218 309.018 293.347 309.676C297.477 310.333 299.07 310.333 294.624 305.382C290.178 300.431 288.285 285.924 286.673 275.035C286.366 272.703 285.873 270.403 285.197 268.157H285.088C281.557 266.466 277.744 262.501 277.744 262.501Z" fill="#242426" stroke="#242426" stroke-miterlimit="10"/>
<path d="M303.834 364.536C306.759 363.155 309.059 361.961 309.059 361.961L310.137 370.586C310.137 370.586 294.308 377.821 285.46 378.375C276.613 378.93 275.807 379.212 275.807 379.212L276.069 370.868" stroke="#242426" stroke-miterlimit="10"/>
<path d="M295.91 367.909C297.531 367.345 299.433 366.547 301.289 365.71" stroke="#242426" stroke-miterlimit="10"/>
<path d="M279.013 370.032C283.642 369.91 288.258 369.474 292.832 368.726" stroke="#242426" stroke-miterlimit="10"/>
<path d="M310.137 370.587L310.671 377.267" stroke="#242426" stroke-miterlimit="10"/>
<path d="M188.807 414.614H233.289C233.389 410.997 234.675 365.025 235.544 341.564C236.45 317.136 252.424 280.08 252.424 280.08C252.424 280.08 254.561 274.856 252.297 272.507C250.033 270.158 244.6 271.098 240.525 274.386C236.45 277.675 198.868 294.587 196.604 296.935C194.34 299.284 194.793 307.27 193.888 316.666C192.982 326.061 178.04 390.89 178.04 390.89C178.04 390.89 173.965 391.83 172.606 392.769C171.248 393.709 171.248 396.528 171.248 396.528C171.248 396.528 173.059 396.997 178.493 399.816C183.491 402.409 188.101 412.932 188.807 414.614Z" fill="white"/>
<g opacity="0.2">
<path d="M246.411 290.828V295.629C246.719 294.765 247.018 293.929 247.317 293.121V290.828H248.168L248.521 289.889H247.317V278.172H253.022C253.086 277.881 253.158 277.562 253.203 277.233H247.317V271.333C247.018 271.379 246.719 271.426 246.411 271.502V277.233H236.903V276.594L235.997 277.073V277.233H235.689L233.878 278.172H235.997V289.917H226.489V281.837L225.583 282.278V289.889H216.075V286.891L215.169 287.333V289.889H209.908L207.988 290.828H215.169V302.601H205.66V291.984L204.755 292.435V302.601H195.246V300.233C194.737 303.655 194.435 307.107 194.341 310.568V315.266H194.015L193.933 316.205H194.341V327.969H191.905L191.715 328.908H194.341V340.652H189.26C189.197 340.963 189.125 341.282 189.061 341.592H194.341V353.336H186.507C186.435 353.656 186.372 353.966 186.299 354.276H194.341V366.02H184.832V360.853L183.927 364.912V365.973H183.691L183.483 366.913H183.927V378.704H180.83L180.612 379.644H183.927V391.388H176.238C175.315 391.644 174.408 391.958 173.521 392.328V397.439C173.793 397.552 174.092 397.683 174.427 397.843V392.328H183.927V405.481C184.244 405.951 184.542 406.421 184.832 406.9V392.337H194.341V414.651H195.246V392.299H204.755V414.614H205.66V392.299H215.169V414.614H216.075V392.299H225.583V414.614H226.489V392.299H233.924V391.36H226.489V379.644H234.304V378.704H226.489V366.96H234.693V366.02H226.489V354.276H235.101C235.101 353.966 235.101 353.646 235.101 353.336H226.489V341.592H235.545C235.545 341.282 235.545 340.972 235.59 340.652H226.489V328.908H235.997V335.851C236.233 333.85 236.532 331.793 236.903 329.707V328.908H237.048C237.102 328.598 237.166 328.288 237.22 327.969H236.903V316.224H239.937C240.018 315.914 240.109 315.604 240.19 315.285H236.903V303.54H243.695C243.803 303.23 243.903 302.911 244.003 302.601H236.903V290.856L246.411 290.828ZM236.903 278.172H246.411V289.917H236.903V278.172ZM194.341 391.388H184.832V379.644H194.341V391.388ZM194.341 378.704H184.832V366.96H194.341V378.704ZM204.755 391.388H195.246V379.644H204.755V391.388ZM204.755 378.704H195.246V366.96H204.755V378.704ZM204.755 366.02H195.246V354.276H204.755V366.02ZM204.755 353.336H195.246V341.592H204.755V353.336ZM204.755 340.652H195.246V328.908H204.755V340.652ZM204.755 327.969H195.246V316.224H204.755V327.969ZM204.755 315.285H195.246V303.54H204.755V315.285ZM215.169 391.388H205.66V379.644H215.169V391.388ZM215.169 378.704H205.66V366.96H215.169V378.704ZM215.169 366.02H205.66V354.276H215.169V366.02ZM215.169 353.336H205.66V341.592H215.169V353.336ZM215.169 340.652H205.66V328.908H215.169V340.652ZM215.169 327.969H205.66V316.224H215.169V327.969ZM215.169 315.285H205.66V303.54H215.169V315.285ZM225.583 391.388H216.075V379.644H225.583V391.388ZM225.583 378.704H216.075V366.96H225.583V378.704ZM225.583 366.02H216.075V354.276H225.583V366.02ZM225.583 353.336H216.075V341.592H225.583V353.336ZM225.583 340.652H216.075V328.908H225.583V340.652ZM225.583 327.969H216.075V316.224H225.583V327.969ZM225.583 315.285H216.075V303.54H225.583V315.285ZM225.583 302.601H216.075V290.856H225.583V302.601ZM235.997 327.969H226.489V316.224H235.997V327.969ZM235.997 315.285H226.489V303.54H235.997V315.285ZM235.997 302.601H226.489V290.856H235.997V302.601Z" fill="#7C7C80"/>
<path d="M246.411 290.828V295.629C246.719 294.765 247.018 293.929 247.317 293.121V290.828H248.168L248.521 289.889H247.317V278.172H253.022C253.086 277.881 253.158 277.562 253.203 277.233H247.317V271.333C247.018 271.379 246.719 271.426 246.411 271.502V277.233H236.903V276.594L235.997 277.073V277.233H235.689L233.878 278.172H235.997V289.917H226.489V281.837L225.583 282.278V289.889H216.075V286.891L215.169 287.333V289.889H209.908L207.988 290.828H215.169V302.601H205.66V291.984L204.755 292.435V302.601H195.246V300.233C194.737 303.655 194.435 307.107 194.341 310.568V315.266H194.015L193.933 316.205H194.341V327.969H191.905L191.715 328.908H194.341V340.652H189.26C189.197 340.963 189.125 341.282 189.061 341.592H194.341V353.336H186.507C186.435 353.656 186.372 353.966 186.299 354.276H194.341V366.02H184.832V360.853L183.927 364.912V365.973H183.691L183.483 366.913H183.927V378.704H180.83L180.612 379.644H183.927V391.388H176.238C175.315 391.644 174.408 391.958 173.521 392.328V397.439C173.793 397.552 174.092 397.683 174.427 397.843V392.328H183.927V405.481C184.244 405.951 184.542 406.421 184.832 406.9V392.337H194.341V414.651H195.246V392.299H204.755V414.614H205.66V392.299H215.169V414.614H216.075V392.299H225.583V414.614H226.489V392.299H233.924V391.36H226.489V379.644H234.304V378.704H226.489V366.96H234.693V366.02H226.489V354.276H235.101C235.101 353.966 235.101 353.646 235.101 353.336H226.489V341.592H235.545C235.545 341.282 235.545 340.972 235.59 340.652H226.489V328.908H235.997V335.851C236.233 333.85 236.532 331.793 236.903 329.707V328.908H237.048C237.102 328.598 237.166 328.288 237.22 327.969H236.903V316.224H239.937C240.018 315.914 240.109 315.604 240.19 315.285H236.903V303.54H243.695C243.803 303.23 243.903 302.911 244.003 302.601H236.903V290.856L246.411 290.828ZM236.903 278.172H246.411V289.917H236.903V278.172ZM194.341 391.388H184.832V379.644H194.341V391.388ZM194.341 378.704H184.832V366.96H194.341V378.704ZM204.755 391.388H195.246V379.644H204.755V391.388ZM204.755 378.704H195.246V366.96H204.755V378.704ZM204.755 366.02H195.246V354.276H204.755V366.02ZM204.755 353.336H195.246V341.592H204.755V353.336ZM204.755 340.652H195.246V328.908H204.755V340.652ZM204.755 327.969H195.246V316.224H204.755V327.969ZM204.755 315.285H195.246V303.54H204.755V315.285ZM215.169 391.388H205.66V379.644H215.169V391.388ZM215.169 378.704H205.66V366.96H215.169V378.704ZM215.169 366.02H205.66V354.276H215.169V366.02ZM215.169 353.336H205.66V341.592H215.169V353.336ZM215.169 340.652H205.66V328.908H215.169V340.652ZM215.169 327.969H205.66V316.224H215.169V327.969ZM215.169 315.285H205.66V303.54H215.169V315.285ZM225.583 391.388H216.075V379.644H225.583V391.388ZM225.583 378.704H216.075V366.96H225.583V378.704ZM225.583 366.02H216.075V354.276H225.583V366.02ZM225.583 353.336H216.075V341.592H225.583V353.336ZM225.583 340.652H216.075V328.908H225.583V340.652ZM225.583 327.969H216.075V316.224H225.583V327.969ZM225.583 315.285H216.075V303.54H225.583V315.285ZM225.583 302.601H216.075V290.856H225.583V302.601ZM235.997 327.969H226.489V316.224H235.997V327.969ZM235.997 315.285H226.489V303.54H235.997V315.285ZM235.997 302.601H226.489V290.856H235.997V302.601Z" fill="black" fill-opacity="0.2"/>
</g>
<path d="M188.807 414.614H233.289C233.389 410.997 234.675 365.025 235.544 341.564C236.45 317.136 252.424 280.08 252.424 280.08C252.424 280.08 254.561 274.856 252.297 272.507C250.033 270.158 244.6 271.098 240.525 274.386C236.45 277.675 198.868 294.587 196.604 296.935C194.34 299.284 194.793 307.27 193.888 316.666C192.982 326.061 178.04 390.89 178.04 390.89C178.04 390.89 173.965 391.83 172.606 392.769C171.248 393.709 171.248 396.528 171.248 396.528C171.248 396.528 173.059 396.997 178.493 399.816C183.491 402.409 188.101 412.932 188.807 414.614Z" stroke="#242426" stroke-miterlimit="10"/>
<path d="M171.248 396.556C171.248 396.556 173.059 397.025 178.493 399.844C183.926 402.663 188.907 414.877 188.907 414.877H197.682C198.234 413.167 199.584 406.947 193.435 399.374C186.19 390.449 178.04 390.918 178.04 390.918C178.04 390.918 173.965 391.858 172.606 392.797C171.248 393.737 171.248 396.556 171.248 396.556Z" fill="#242426" stroke="#242426" stroke-miterlimit="10"/>
<path d="M246.828 271.389C244.881 276.735 240.272 288.827 236.45 294.586C231.469 302.103 222.414 308.21 225.583 311.029C228.753 313.847 237.809 304.922 237.809 304.922C237.809 304.922 240.072 311.498 240.525 313.377C240.55 313.463 240.59 313.542 240.643 313.612C243.912 302.199 247.843 291.001 252.415 280.08C252.415 280.08 254.553 274.856 252.289 272.507C251.12 271.286 249.128 270.966 246.828 271.389Z" fill="#242426" stroke="#242426" stroke-miterlimit="10"/>
<path d="M213.757 316.741C214.017 315.004 214.186 313.254 214.264 311.498" stroke="#242426" stroke-miterlimit="10"/>
<path d="M206.566 415.788C206.566 415.788 207.925 385.723 207.925 368.341C207.925 355.817 211.212 334.752 213.059 321.852" stroke="#242426" stroke-miterlimit="10"/>
<path d="M208.83 361.792C208.83 361.792 216.075 364.141 219.697 364.611L230.564 366.02L229.74 376.665C229.74 376.665 229.206 376.355 221.056 373.537C212.905 370.718 207.925 368.369 207.925 368.369" stroke="#242426" stroke-miterlimit="10"/>
<path d="M229.739 376.637C229.739 376.637 229.205 397.495 229.205 400.314C229.205 403.133 221.055 401.253 221.055 401.253" stroke="#242426" stroke-miterlimit="10"/>
<path d="M236.242 261.467C236.242 261.467 244.782 274.208 252.425 280.08C260.068 285.952 266.588 277.731 271.686 268.918C276.785 260.105 280.181 253.641 282.725 246.002C285.27 238.364 282.725 225.736 272.537 215.749C262.35 205.761 238.551 191.067 232.611 198.705C226.67 206.344 221.001 223.134 224.958 237.481C227.322 246.106 231.143 254.227 236.242 261.467Z" fill="#AEAEB2" stroke="#242426" stroke-miterlimit="10"/>
<path d="M233.489 205.198C233.489 205.198 246.067 234.963 247.643 235.78C249.218 236.598 252.361 226.807 252.361 226.807C252.361 226.807 256.68 234.953 261.806 237.406C266.932 239.858 268.489 235.78 268.489 235.78C271.057 237.281 273.551 238.915 275.96 240.675L277.925 242.301L279.89 249.638C279.89 249.638 273.995 269.623 275.96 272.075C277.925 274.527 288.928 271.258 288.928 271.258C288.928 271.258 286.211 275.335 289.716 275.335C293.221 275.335 299.541 276.153 308.579 263.506C317.617 250.86 318.405 230.481 318.405 230.481C318.405 230.481 322.724 235.367 323.123 229.25C323.521 223.134 318.015 212.94 318.015 212.94C318.015 212.94 326.655 221.912 325.876 212.536C325.097 203.159 319.98 192.551 318.015 190.109C316.05 187.666 304.251 180.713 304.251 180.713C304.251 180.713 308.969 179.896 305.437 174.183C301.905 168.471 288.928 166.845 284.21 166.845C279.492 166.845 269.666 168.48 269.666 168.48C269.666 168.48 275.96 155.834 269.277 155.016C262.594 154.199 250.803 167.663 250.803 167.663C250.803 167.663 239.031 157.873 235.472 159.912C231.913 161.95 234.295 164.807 234.295 164.807C234.295 164.807 218.972 166.028 214.644 172.962C210.315 179.896 215.431 183.973 215.431 183.973C215.431 183.973 187.92 203.544 192.239 210.882C196.559 218.22 204.429 211.295 204.429 211.295C204.429 211.295 193.417 240.656 194.992 242.695C196.568 244.734 204.048 241.878 204.048 241.878C204.048 241.878 203.659 265.526 209.554 267.978C215.449 270.431 216.627 265.94 216.627 265.94C216.627 265.94 219.769 269.2 226.851 269.604C233.932 270.008 236.278 261.449 236.278 261.449C236.278 261.449 228.417 242.282 228.816 226.385C229.214 210.487 233.489 205.198 233.489 205.198Z" fill="#242426" stroke="#242426" stroke-miterlimit="10"/>
<path d="M156.134 402.109C156.134 402.109 170.351 397.946 174.725 397.195C179.099 396.443 187.856 404.758 189.314 409.296C190.772 413.834 188.907 414.849 188.907 414.849L159.774 413.843L156.134 402.109Z" fill="#AEAEB2" stroke="#242426" stroke-miterlimit="10"/>
<path d="M161.287 400.643C161.287 400.643 172.018 404.814 174.699 406.487C177.38 408.159 176.574 411.495 174.971 413.158C173.037 414.835 170.731 415.984 168.26 416.502C165.76 416.65 163.253 416.65 160.753 416.502C157.538 416.221 154.586 416.784 151.906 416.784C149.225 416.784 141.174 415.948 141.174 415.948L138.757 414.276C138.757 414.276 134.229 415.666 130.715 417.094C127.201 418.522 128.297 415.422 130.978 413.195C133.658 410.969 140.369 405.406 141.446 404.852C142.524 404.298 156.198 400.154 156.198 400.154L161.287 400.643Z" fill="#AEAEB2" stroke="#242426" stroke-miterlimit="10"/>
<path d="M165.308 401.751C165.308 401.751 158.326 398.416 156.451 398.416C154.577 398.416 141.165 403.114 139.291 404.532C137.416 405.951 135.532 419.283 136.873 420.12C138.213 420.956 139.291 418.447 139.589 416.784C139.888 415.121 143.619 406.205 143.619 406.205L140.902 420.401C140.902 420.401 141.98 422.619 143.049 420.674C144.117 418.729 150.828 405.369 151.362 404.532C152.065 403.757 152.881 403.101 153.78 402.588C153.78 402.588 152.44 408.713 151.362 414.557C150.284 420.401 151.099 422.074 152.711 422.346C154.323 422.619 155.12 418.729 155.926 416.784C156.732 414.839 160.218 403.696 160.218 403.696" fill="#AEAEB2"/>
<path d="M165.308 401.751C165.308 401.751 158.326 398.416 156.451 398.416C154.577 398.416 141.165 403.114 139.291 404.532C137.416 405.951 135.532 419.283 136.873 420.12C138.213 420.956 139.291 418.447 139.589 416.784C139.888 415.121 143.619 406.205 143.619 406.205L140.902 420.401C140.902 420.401 141.98 422.619 143.049 420.674C144.117 418.729 150.828 405.369 151.362 404.532C152.065 403.757 152.881 403.101 153.78 402.588C153.78 402.588 152.44 408.713 151.362 414.557C150.284 420.401 151.099 422.074 152.711 422.346C154.323 422.619 155.12 418.729 155.926 416.784C156.732 414.839 160.218 403.696 160.218 403.696" stroke="#242426" stroke-miterlimit="10"/>
<path d="M173.059 407.323C173.059 407.323 165.018 415.948 163.94 417.893C162.863 419.838 162.872 420.12 165.824 420.12C168.776 420.12 177.895 413.994 178.692 413.158C179.489 412.322 179.235 409.822 177.352 408.15C176.752 407.666 176.049 407.339 175.302 407.195C174.556 407.051 173.786 407.095 173.059 407.323Z" fill="#AEAEB2" stroke="#242426" stroke-miterlimit="10"/>
<path d="M223.283 406.365C223.283 406.365 212.552 409.963 209.917 412.002C207.281 414.041 203.478 416.286 204.302 416.972C205.126 417.658 207.77 416.972 208.594 416.286C209.419 415.6 213.213 414.915 213.213 414.915C213.213 414.915 217.668 412.171 221.137 409.954C224.605 407.736 227.24 405.331 223.283 406.365Z" fill="#AEAEB2" stroke="#242426" stroke-miterlimit="10"/>
<path d="M282.517 387.517C282.517 387.517 252.633 393.155 241.82 397.091C231.008 401.028 226.706 403.772 221.3 407.736C215.893 411.701 204.936 419.19 206.566 420.505C208.196 421.82 213.874 417.207 214.834 416.221C215.794 415.234 222.776 412.265 222.776 412.265L227.449 409.785C227.449 409.785 220.412 418.776 217.877 421.059C215.341 423.342 217.053 424.77 218.963 424.113C220.874 423.455 224.478 419.518 224.478 419.518L236.097 411.589C236.097 411.589 231.324 418.522 229.097 420.496C226.869 422.469 231.641 424.132 232.601 422.478C233.561 420.824 238.325 416.54 238.325 416.54C238.325 416.54 246.267 412.256 248.177 410.602C250.088 408.948 254.851 404.335 254.851 404.335L290.459 407.304C290.459 407.304 292.686 405.989 291.419 398.397C290.151 390.806 282.517 387.517 282.517 387.517Z" fill="#AEAEB2" stroke="#242426" stroke-miterlimit="10"/>
<path d="M306.678 329.134L324.165 374.006L295.865 384.229L303.816 408.309C303.816 408.309 324.137 408.366 340.039 407.37C355.941 406.374 367.098 396.424 364.553 384.558C362.009 372.691 352.473 355.525 344.839 335.072C337.205 314.618 339.568 302.422 336.073 296.155C332.577 289.889 322.716 288.235 322.716 288.235L317.282 287.295" fill="white"/>
<path opacity="0.2" d="M361.873 397.035V392.337H364.236C364.336 392.027 364.418 391.717 364.49 391.398H361.873V379.644H363.231C363.132 379.343 363.023 379.024 362.923 378.704H361.873V375.839C361.583 375.059 361.284 374.26 360.967 373.462V378.704H351.459V366.96H358.287C358.151 366.65 358.024 366.34 357.888 366.02H351.459V354.276H352.726C352.582 353.966 352.446 353.656 352.31 353.336H351.459V351.373C351.16 350.678 350.852 349.982 350.553 349.278V353.336H341.045V341.592H347.384C347.257 341.282 347.13 340.972 347.012 340.653H341.045V328.908H342.738C342.638 328.598 342.548 328.279 342.457 327.969H341.045V322.613C340.7 321.129 340.402 319.71 340.139 318.348V327.969H330.63V316.224H339.759L339.596 315.285H330.63V303.54H338.065L337.929 302.601H330.63V291.082C329.836 290.64 329.02 290.242 328.185 289.889H320.216V287.784L319.311 287.615V289.889H316.639L316.395 290.828H319.311V302.601H313.424L313.189 303.54H319.32V315.285H310.201L309.956 316.224H319.311V327.969H309.802V316.826L308.897 320.386V327.903H306.977L306.741 328.842H308.897V334.79L309.802 337.11V328.908H319.311V340.653H311.16L311.523 341.592H319.311V353.336H316.141L316.512 354.276H319.356V361.576L320.262 363.897V354.276H329.725V366.02H321.04L321.412 366.96H329.725V378.704H320.216V375.453L319.311 375.782V378.704H311.215L308.607 379.644H308.897V391.388H299.388V382.932L298.482 383.261V391.341H298.22L299.388 394.874V392.281H308.897V408.253H309.802V392.281H319.311V408.131H320.216V392.3H329.725V407.83H330.63V392.3H340.139V407.332L341.045 407.257V392.3H350.553V405.19L351.459 404.833V392.3H360.967V398.2C361.284 397.815 361.592 397.43 361.873 397.035ZM319.311 391.398H309.802V379.644H319.311V391.398ZM329.725 391.398H320.216V379.644H329.725V391.398ZM329.725 353.346H320.216V341.602H329.725V353.346ZM329.725 340.662H320.216V328.908H329.725V340.662ZM329.725 327.978H320.216V316.234H329.725V327.978ZM329.725 315.294H320.216V303.54H329.725V315.294ZM329.725 302.61H320.216V290.866H329.725V302.61ZM340.139 391.398H330.63V379.644H340.139V391.398ZM340.139 378.714H330.63V366.969H340.139V378.714ZM340.139 366.03H330.63V354.276H340.139V366.03ZM340.139 353.346H330.63V341.602H340.139V353.346ZM340.139 340.662H330.63V328.908H340.139V340.662ZM350.553 391.398H341.045V379.644H350.553V391.398ZM350.553 378.714H341.045V366.969H350.553V378.714ZM350.553 366.03H341.045V354.276H350.553V366.03ZM351.459 391.398V379.644H360.967V391.388L351.459 391.398Z" fill="#242426"/>
<path d="M306.678 329.134L324.165 374.006L295.865 384.229L303.816 408.309C303.816 408.309 324.137 408.366 340.039 407.37C355.941 406.374 367.098 396.424 364.553 384.558C362.009 372.691 352.473 355.525 344.839 335.072C337.205 314.618 339.568 302.422 336.073 296.155C332.577 289.889 322.716 288.235 322.716 288.235L317.282 287.295" stroke="#242426" stroke-miterlimit="10"/>
<path d="M341.19 369.44C335.42 370.549 329.732 372.071 324.165 373.997C324.165 373.997 336.245 365.748 342.92 365.09" stroke="#242426" stroke-miterlimit="10"/>
<path d="M349.285 369.046C348.032 368.859 346.763 368.815 345.5 368.914" stroke="#242426" stroke-miterlimit="10"/>
<path d="M304.133 380.583C304.133 380.583 310.562 386.963 312.464 391.905C314.366 396.847 313.668 410.273 312.401 411.589C311.133 412.904 287.47 412.744 283.576 407.699C282.562 406.384 289.508 403.349 286.012 396.086C282.517 388.823 280.923 388.175 280.923 388.175C280.923 388.175 278.061 386.521 283.467 382.895C288.874 379.268 301.271 376.637 304.133 380.583Z" fill="#242426" stroke="#242426" stroke-miterlimit="10"/>
<path d="M360.505 431.451H337.033L334.099 383.308H363.439L360.505 431.451Z" fill="#242426" stroke="#242426" stroke-linejoin="round"/>
<path d="M364.743 383.384H332.804V390.393H364.743V383.384Z" fill="white" stroke="#242426" stroke-linejoin="round"/>
<path d="M364.743 383.646H332.804L335.991 379.494H361.547L364.743 383.646Z" fill="white" stroke="#242426" stroke-linejoin="round"/>
<path d="M361.365 417.329L362.534 398.153H335.004L336.172 417.329H361.365Z" fill="white" stroke="#242426" stroke-linejoin="round"/>
<path d="M225.239 434.654L254.163 426.725V430.783L225.239 439.192V434.654Z" fill="#242426" stroke="#242426" stroke-linejoin="round"/>
<path d="M254.164 426.725H102.941L73.709 434.654H225.239L254.164 426.725Z" fill="white" stroke="#242426" stroke-linejoin="round"/>
<path d="M225.239 343.988H73.709V439.192H225.239V343.988Z" fill="white" stroke="#242426" stroke-linejoin="round"/>
<path d="M225.239 357.762C192.276 359.387 172.643 390.909 143.475 412.03C116.887 431.291 84.0506 434.579 73.7451 435.096V439.192H225.239V357.762Z" fill="#242426" stroke="#242426" stroke-linejoin="round"/>
<path d="M225.239 434.655H73.709V439.193H225.239V434.655Z" fill="white" stroke="#242426" stroke-miterlimit="10"/>
<path d="M28.8461 403.246C28.8461 403.246 16.2224 382.294 26.3558 370.502C36.4892 358.711 52.8621 364.386 56.2399 375.303C59.6177 386.221 52.4546 404.561 52.4546 404.561L28.8461 403.246Z" fill="white" stroke="#242426" stroke-linecap="round" stroke-linejoin="round"/>
<path d="M29.2626 379.23C27.1617 379.23 19.1654 376.177 16.6388 372.25C14.1123 368.322 13.6776 359.584 20.8498 359.584C28.022 359.584 30.5304 372.682 30.5304 372.682L30.947 377.483" fill="white"/>
<path d="M29.2626 379.23C27.1617 379.23 19.1654 376.177 16.6388 372.25C14.1123 368.322 13.6776 359.584 20.8498 359.584C28.022 359.584 30.5304 372.682 30.5304 372.682L30.947 377.483" stroke="#242426" stroke-linecap="round" stroke-linejoin="round"/>
<path d="M35.738 371.075C33.8544 370.136 28.0134 363.672 27.4429 358.983C26.8724 354.295 30.2593 346.29 36.6617 349.588C43.0641 352.886 39.6863 365.795 39.6863 365.795L37.9929 370.286" fill="white"/>
<path d="M35.738 371.075C33.8544 370.136 28.0134 363.672 27.4429 358.983C26.8724 354.295 30.2593 346.29 36.6617 349.588C43.0641 352.886 39.6863 365.795 39.6863 365.795L37.9929 370.286" stroke="#242426" stroke-linecap="round" stroke-linejoin="round"/>
<path d="M43.3807 373.274C42.3302 371.395 40.9175 362.666 42.946 358.438C44.9745 354.21 52.0743 349.494 55.6241 355.939C59.174 362.384 49.4752 371.16 49.4752 371.16L45.6628 373.922" fill="white"/>
<path d="M43.3807 373.274C42.3302 371.395 40.9175 362.666 42.946 358.438C44.9745 354.21 52.0743 349.494 55.6241 355.939C59.174 362.384 49.4752 371.16 49.4752 371.16L45.6628 373.922" stroke="#242426" stroke-linecap="round" stroke-linejoin="round"/>
<path d="M45.8892 388.927C45.5451 386.766 47.1208 378.084 50.4171 374.833C53.7134 371.583 61.9632 369.713 63.1495 377.032C64.3358 384.351 52.2826 389.115 52.2826 389.115L47.7547 390.336" fill="white"/>
<path d="M45.8892 388.927C45.5451 386.766 47.1208 378.084 50.4171 374.833C53.7134 371.583 61.9632 369.713 63.1495 377.032C64.3358 384.351 52.2826 389.115 52.2826 389.115L47.7547 390.336" stroke="#242426" stroke-linecap="round" stroke-linejoin="round"/>
<path d="M17.5625 366.979L18.9843 369.3" stroke="white" stroke-linecap="round" stroke-linejoin="round"/>
<path d="M21.6289 372.672L23.8566 374.561" stroke="white" stroke-linecap="round" stroke-linejoin="round"/>
<path d="M19.1924 362.553L21.4201 365.926" stroke="white" stroke-linecap="round" stroke-linejoin="round"/>
<path d="M24.4717 368.67L26.9077 373.302" stroke="white" stroke-linecap="round" stroke-linejoin="round"/>
<path d="M30.1504 357.499L30.9654 360.026" stroke="white" stroke-linecap="round" stroke-linejoin="round"/>
<path d="M32.9941 364.658L34.4159 366.772" stroke="white" stroke-linecap="round" stroke-linejoin="round"/>
<path d="M32.3867 352.444L34.216 356.653" stroke="white" stroke-linecap="round" stroke-linejoin="round"/>
<path d="M25.2783 382.153L25.8941 385.939" stroke="white" stroke-linecap="round" stroke-linejoin="round"/>
<path d="M27.1074 389.519L27.9224 392.685" stroke="white" stroke-linecap="round" stroke-linejoin="round"/>
<path d="M29.1357 382.359L29.9508 386.568" stroke="white" stroke-linecap="round" stroke-linejoin="round"/>
<path d="M31.7803 389.519L32.387 392.685" stroke="white" stroke-linecap="round" stroke-linejoin="round"/>
<path d="M33.2021 376.882L34.4156 382.782" stroke="white" stroke-linecap="round" stroke-linejoin="round"/>
<path d="M36.0449 388.466L36.2442 391.21" stroke="white" stroke-linecap="round" stroke-linejoin="round"/>
<path d="M38.2734 374.984L39.2877 380.461" stroke="white" stroke-linecap="round" stroke-linejoin="round"/>
<path d="M39.2871 386.155L39.6946 391.839" stroke="white" stroke-linecap="round" stroke-linejoin="round"/>
<path d="M44.168 377.088V381.73" stroke="white" stroke-linecap="round" stroke-linejoin="round"/>
<path d="M43.5527 387.63L43.761 391.21" stroke="white" stroke-linecap="round" stroke-linejoin="round"/>
<path d="M49.2398 355.178L48.2256 357.715" stroke="white" stroke-linecap="round" stroke-linejoin="round"/>
<path d="M47.818 360.656L46.8037 364.245" stroke="white" stroke-linecap="round" stroke-linejoin="round"/>
<path d="M53.704 360.026L52.083 363.399" stroke="white" stroke-linecap="round" stroke-linejoin="round"/>
<path d="M48.633 367.195L46.8037 369.3" stroke="white" stroke-linecap="round" stroke-linejoin="round"/>
<path d="M44.7747 359.819L44.168 362.553" stroke="white" stroke-linecap="round" stroke-linejoin="round"/>
<path d="M53.7043 374.984L51.4766 378.78" stroke="white" stroke-linecap="round" stroke-linejoin="round"/>
<path d="M50.0546 381.091L48.832 384.464" stroke="white" stroke-linecap="round" stroke-linejoin="round"/>
<path d="M51.8838 386.155L55.5333 384.041" stroke="white" stroke-linecap="round" stroke-linejoin="round"/>
<path d="M57.7707 374.984L55.9414 378.15" stroke="white" stroke-linecap="round" stroke-linejoin="round"/>
<path d="M59.6001 378.563L57.1641 380.461" stroke="white" stroke-linecap="round" stroke-linejoin="round"/>
<path d="M56.9738 395.936H22.4531V431.751H56.9738V395.936Z" fill="#242426" stroke="#242426" stroke-linecap="round" stroke-linejoin="round"/>
<defs>
<linearGradient id="paint0_linear_19520_3904" x1="442" y1="-135" x2="442" y2="597" gradientUnits="userSpaceOnUse">
<stop stop-color="#0DAFDC"/>
<stop offset="1" stop-color="#22E9A2"/>
</linearGradient>
</defs>
</svg>
