<svg xmlns="http://www.w3.org/2000/svg" width="202" height="54" fill="none"><path fill="url(#a)" fill-rule="evenodd" d="M21.535 9.512c-.826.383-1.306.859-1.665 1.649-.26.57-.294 1.076-.297 4.393-.004 5.22.155 5.017-4.023 5.133-2.793.077-2.853.086-3.51.52-.461.307-.784.694-1.047 1.258-.375.807-.38.864-.377 5.688.002 5.376.04 5.62 1.038 6.556.789.74 1.574.91 4.207.91 3.696 0 3.552-.26 3.552 6.423 0 4.424.028 4.953.316 5.883.814 2.637 3.085 4.724 5.852 5.376 1.456.343 23.085.343 24.718 0 3.01-.634 5.43-2.97 6.123-5.908.353-1.494.36-23.834.008-25.183-.686-2.635-2.454-4.573-5.107-5.6A6.1 6.1 0 0 0 49.2 16.2l-6.423-.07-6.916-.075a1.27 1.27 0 0 1-.981-.478c-.343-.429-.378-.619-.382-2.122-.004-1.838-.235-2.578-1.038-3.331-.934-.876-1.193-.913-6.46-.909-4.38.003-4.897.031-5.466.296m-12.838.791a2.07 2.07 0 0 0-.606 1.495l.035 2.447.037 2.527c.007.508.224.99.599 1.334.377.345.87.537 1.383.537h2.365c4.63 0 4.545.083 4.545-4.472 0-4.597.112-4.487-4.569-4.487h-2.294c-.56 0-1.098.223-1.495.62m25.176 15.748c-.648.086-1.231.208-1.296.272-.246.243-.97 6.988-.879 8.193.033.44.286.833.672 1.047l.755.418.421.233a2.3 2.3 0 0 0 1.964.124c2.568-1.028 4.833-.09 4.608 1.91-.256 2.272-3.37 2.588-6.056.616-.43-.315-.855-.573-.945-.573-.177 0-2.546 2.601-2.542 2.792.005.238.261.488 1.309 1.278 2.376 1.793 4.552 2.438 6.95 2.06 1.523-.239 2.816-.887 4.023-2.017 2.276-2.129 2.886-4.914 1.595-7.286-.236-.434-.68-.998-.985-1.252-1.454-1.21-3.815-1.854-5.6-1.526-1.786.327-1.708.365-1.761-.861-.071-1.63-.175-1.584 3.268-1.456 1.6.06 3.304.15 3.788.2.67.07.9.04.963-.128.104-.27-.184-3.473-.325-3.623-.405-.429-7.576-.733-9.927-.421" clip-rule="evenodd"/><path fill="url(#b)" d="M27.9 19.115h19.805v31.593H27.9z"/><path fill="#fff" d="M37.727 28.907q-.663 0-1.285-.233a4.1 4.1 0 0 1-1.051-.7 4.1 4.1 0 0 1-.701-1.05 3.4 3.4 0 0 1-.234-1.284q0-.7.234-1.284a3.5 3.5 0 0 1 .7-1.01 3.1 3.1 0 0 1 1.052-.701 3.2 3.2 0 0 1 1.285-.272q1.362 0 2.336.972.973.933.973 2.295 0 1.36-.973 2.334a3.26 3.26 0 0 1-2.336.933m.02 21.82a2.55 2.55 0 0 1-2.551-2.55V34.219a2.55 2.55 0 0 1 5.1 0v13.958a2.55 2.55 0 0 1-2.55 2.55"/><circle cx="5.025" cy="7.657" r="2.273" fill="#23EBA1"/><circle cx="19.621" cy="3.828" r="3.828" fill="#25F29A"/><circle cx="3.649" cy="21.595" r="3.649" fill="#19D0BC"/><path fill="#242426" d="M60.436 21.528h3.536v14.03h-3.536zm19.268 11.617-1.141.206V21.528h3.423v14.03h-4.452l-8.55-11.823 1.142-.206v12.03h-3.424V21.527h4.584zm9.445-10.065h3.535v12.478H89.15zm-5.463-1.552h14.46v3.124h-14.46zm16.379 11.205V29.89h9.691v2.843zm7.221-11.205 6.473 14.03h-3.76l-5.556-12.552h1.085L99.99 35.558h-3.76l6.473-14.03zm11.437 0v12.459l-1.59-1.553h10.513v3.124h-12.459v-14.03zm14.158 0v12.459l-1.59-1.553h10.513v3.124h-12.458v-14.03zm10.623 0h3.535v14.03h-3.535zm8.791 11.205V29.89h9.691v2.843zm7.221-11.205 6.473 14.03h-3.76l-5.556-12.552h1.085l-5.537 12.552h-3.761l6.473-14.03zm11.247 4.995q.112-1.627 1.066-2.806.954-1.198 2.525-1.834 1.591-.655 3.592-.655 1.908 0 3.33.58t2.226 1.628q.805 1.047.805 2.413 0 1.066-.562 1.983-.56.898-1.777 1.796-1.216.899-3.199 1.908l-4.059 2.133-.187-.917h10.176v2.806h-13.693v-2.47l6.024-3.46q1.44-.824 2.244-1.403.824-.6 1.16-1.104.337-.504.337-1.085 0-.598-.337-1.066-.318-.468-.973-.73-.654-.262-1.646-.262-1.178 0-1.945.356-.768.337-1.141.916-.375.58-.449 1.273zm27.653-4.995v14.03h-3.498V23.062h1.123l-7.465 8.268-.037-1.122h12.197v2.638h-14.797v-2.488l8.006-8.83z"/><path fill="#444446" d="M59.89 51.558v-7.171h3.013q.606 0 1.049.23.452.222.693.626.25.405.25.944 0 .558-.279.991-.27.425-.78.645l-.01-.23q.424.153.723.432.308.28.471.655.165.366.164.79 0 .962-.616 1.53-.606.558-1.656.558zm.77-.722h2.252q.684 0 1.088-.356.414-.366.414-1.001 0-.626-.414-.992-.404-.375-1.088-.375H60.66zm0-3.417h2.185q.578 0 .924-.337a1.14 1.14 0 0 0 .356-.866q0-.54-.356-.819-.347-.288-.924-.288H60.66zm7.627 4.255a1.96 1.96 0 0 1-.982-.25 1.9 1.9 0 0 1-.703-.713 2.2 2.2 0 0 1-.25-1.059v-3.254h.722v3.167q0 .414.164.732.173.308.472.481.308.174.702.174.395 0 .703-.174.308-.182.481-.51.174-.336.173-.799V46.4h.722v5.16h-.722v-1.002l.164.038q-.183.5-.626.79a1.83 1.83 0 0 1-1.02.289m3.69-.116v-5.16h.721v5.16zm0-6.112v-1.06h.721v1.06zm2.199 6.112v-7.287h.722v7.287zm4.53.116q-.723 0-1.3-.347a2.6 2.6 0 0 1-.915-.962 2.9 2.9 0 0 1-.327-1.387q0-.78.327-1.386.337-.606.905-.953a2.44 2.44 0 0 1 1.31-.356q.663 0 1.183.289.52.288.819.78l-.116.202V44.27h.722v7.287h-.722v-1.155l.115.106q-.27.557-.808.866a2.4 2.4 0 0 1-1.194.299m.038-.722q.519 0 .933-.26.424-.26.665-.703.25-.453.25-1.01a2 2 0 0 0-.25-1.002 1.8 1.8 0 0 0-.665-.712 1.7 1.7 0 0 0-.933-.26q-.51 0-.924.26a1.87 1.87 0 0 0-.655.703 2.15 2.15 0 0 0-.231 1.01q0 .559.231 1.011.24.443.645.703.414.26.934.26m4.052.606v-5.16h.722v5.16zm0-6.112v-1.06h.722v1.06zm2.2 6.112v-5.16h.722V47.4l-.164-.039q.193-.5.626-.79a1.83 1.83 0 0 1 1.02-.288q.55 0 .982.25.442.25.693.693.26.434.26.982v3.35h-.722v-3.07q0-.472-.173-.8a1.15 1.15 0 0 0-.472-.5 1.3 1.3 0 0 0-.693-.183 1.35 1.35 0 0 0-.703.183 1.2 1.2 0 0 0-.48.51 1.7 1.7 0 0 0-.174.79v3.07zm7.963 2.118q-.53 0-.982-.164a2.4 2.4 0 0 1-.77-.452 1.95 1.95 0 0 1-.49-.655l.663-.356q.154.366.55.635.394.27 1.01.27.471 0 .866-.183.394-.183.636-.54.24-.355.24-.875V50.21l.116.106a1.97 1.97 0 0 1-.8.867 2.3 2.3 0 0 1-1.154.298q-.723 0-1.3-.346a2.55 2.55 0 0 1-.914-.934 2.7 2.7 0 0 1-.328-1.319q0-.731.328-1.319.337-.586.904-.934a2.5 2.5 0 0 1 1.31-.346q.625 0 1.136.289.52.288.818.78l-.116.202v-1.156h.722v4.958q0 .664-.317 1.184a2.15 2.15 0 0 1-.867.828 2.53 2.53 0 0 1-1.26.308m-.077-2.917q.5 0 .905-.25.404-.26.645-.684.25-.432.25-.943t-.25-.934a1.84 1.84 0 0 0-.645-.683 1.64 1.64 0 0 0-.905-.26q-.51 0-.924.26a1.83 1.83 0 0 0-.655.674 1.94 1.94 0 0 0-.23.943q0 .51.23.943.24.424.645.684.414.25.934.25m6.989.8v-6.45h-1.983v-.722h4.717v.722h-1.964v6.45zm5.318.115a2.6 2.6 0 0 1-1.329-.347 2.7 2.7 0 0 1-.953-.962 2.8 2.8 0 0 1-.346-1.396q0-.771.346-1.377t.934-.953a2.6 2.6 0 0 1 1.348-.356q.75 0 1.338.346.596.348.933.954.347.606.347 1.386 0 .789-.356 1.405a2.6 2.6 0 0 1-.953.953 2.53 2.53 0 0 1-1.309.347m0-.722q.519 0 .933-.26.424-.26.664-.713.25-.452.251-1.01 0-.559-.251-1.001a1.83 1.83 0 0 0-.664-.703 1.7 1.7 0 0 0-.933-.26q-.52 0-.944.26a1.94 1.94 0 0 0-.664.703q-.25.442-.25 1 0 .56.25 1.011.25.453.664.713.424.26.944.26m3.891.606v-5.16h.722v.982l-.115-.144q.211-.453.625-.703.424-.25.924-.25.597 0 1.079.337.48.337.683.876l-.202.01q.193-.597.664-.905a1.9 1.9 0 0 1 1.059-.318q.52 0 .953.25.442.25.703.693.269.434.269.982v3.35h-.722v-3.07q0-.472-.173-.8a1.2 1.2 0 0 0-.453-.5 1.2 1.2 0 0 0-.664-.183q-.366 0-.664.183a1.2 1.2 0 0 0-.472.51 1.7 1.7 0 0 0-.173.79v3.07h-.722v-3.07q0-.472-.173-.8a1.2 1.2 0 0 0-.453-.5 1.2 1.2 0 0 0-.664-.183q-.375 0-.674.183a1.24 1.24 0 0 0-.462.51 1.7 1.7 0 0 0-.173.79v3.07zm11.159.116a2.6 2.6 0 0 1-1.329-.347 2.7 2.7 0 0 1-.953-.962 2.8 2.8 0 0 1-.346-1.396q0-.771.346-1.377a2.56 2.56 0 0 1 2.282-1.309q.75 0 1.338.346.597.348.934.954.346.606.346 1.386 0 .789-.356 1.405a2.6 2.6 0 0 1-.953.953 2.53 2.53 0 0 1-1.309.347m0-.722q.52 0 .934-.26a1.83 1.83 0 0 0 .664-.713 2.05 2.05 0 0 0 .25-1.01q0-.559-.25-1.001a1.85 1.85 0 0 0-.664-.703 1.7 1.7 0 0 0-.934-.26q-.52 0-.944.26a1.94 1.94 0 0 0-.664.703q-.25.442-.25 1 0 .56.25 1.011.25.453.664.713.424.26.944.26m3.891.606v-5.16h.722v.848l-.096-.126a1.36 1.36 0 0 1 .549-.577q.375-.212.905-.212h.327v.722h-.453q-.558 0-.895.347-.337.346-.337.982v3.176zm3.253 0v-5.16h.722v.848l-.096-.126q.183-.365.548-.577.376-.212.905-.212h.327v.722h-.452q-.558 0-.895.347-.337.346-.337.982v3.176zm5.669.116a2.6 2.6 0 0 1-1.329-.347 2.7 2.7 0 0 1-.953-.962 2.8 2.8 0 0 1-.346-1.396q0-.771.346-1.377a2.56 2.56 0 0 1 2.282-1.309q.75 0 1.338.346.597.348.933.954.347.606.347 1.386 0 .789-.356 1.405a2.6 2.6 0 0 1-.953.953 2.53 2.53 0 0 1-1.309.347m0-.722q.519 0 .933-.26.424-.26.665-.713.25-.452.25-1.01 0-.559-.25-1.001a1.84 1.84 0 0 0-.665-.703 1.7 1.7 0 0 0-.933-.26q-.52 0-.944.26a1.94 1.94 0 0 0-.664.703q-.25.442-.25 1 0 .56.25 1.011.25.453.664.713.424.26.944.26m4.933.606-1.771-5.16h.818l1.463 4.515h-.288l1.376-4.514h.722l1.377 4.514h-.289l1.473-4.514h.808l-1.771 5.16h-.722l-1.338-4.42h.202l-1.338 4.42zm6.708-5.073-.125-2.098h.77l-.115 2.098zm3.977 5.189q-.741 0-1.299-.376a2.12 2.12 0 0 1-.809-1.02l.606-.289q.222.472.616.75.405.28.886.28.462 0 .78-.221a.7.7 0 0 0 .317-.597q0-.27-.154-.424a1.05 1.05 0 0 0-.356-.25 2.4 2.4 0 0 0-.356-.125l-.741-.212q-.712-.202-1.03-.568a1.25 1.25 0 0 1-.318-.847q0-.453.231-.79.231-.336.626-.52.395-.182.876-.182.654 0 1.184.346.539.338.76.944l-.616.289a1.5 1.5 0 0 0-.558-.674 1.36 1.36 0 0 0-.799-.25q-.433 0-.693.221a.7.7 0 0 0-.26.558q0 .261.135.414.135.155.308.231.183.078.318.116l.856.25q.625.183.973.568.356.385.356.905 0 .423-.241.76a1.56 1.56 0 0 1-.645.53 2.3 2.3 0 0 1-.953.183m6.168-.116-2.06-7.171h.779l1.781 6.42h-.163l1.829-6.42h.818l1.819 6.42h-.173l1.79-6.42h.78l-2.06 7.171h-.818l-1.839-6.45h.173l-1.838 6.45zm10.081.116q-.73 0-1.328-.347a2.7 2.7 0 0 1-.953-.962 2.8 2.8 0 0 1-.346-1.396q0-.771.346-1.377t.934-.953a2.6 2.6 0 0 1 1.347-.356q.751 0 1.338.346.598.348.934.954.347.606.347 1.386 0 .789-.356 1.405a2.6 2.6 0 0 1-.953.953 2.53 2.53 0 0 1-1.31.347m0-.722q.52 0 .934-.26.424-.26.664-.713.25-.452.251-1.01 0-.559-.251-1.001a1.83 1.83 0 0 0-.664-.703 1.7 1.7 0 0 0-.934-.26q-.52 0-.943.26a1.94 1.94 0 0 0-.664.703q-.25.442-.25 1 0 .56.25 1.011.25.453.664.713.424.26.943.26m3.892.606v-5.16h.722v.848l-.096-.126q.183-.365.548-.577.376-.212.905-.212h.328v.722h-.453q-.558 0-.895.347-.337.346-.337.982v3.176zm3.253 0v-7.287h.722v5.102l-.308-.048 2.897-2.927h.934l-2.022 2.07 2.205 3.09h-.867l-2.069-2.859.462.039-1.473 1.52.241-.596v1.896zm5.803 0v-4.437h-1.03v-.723h1.03v-.462q0-.538.24-.904.242-.376.636-.568.394-.193.847-.193.096 0 .221.02.126.009.202.028v.655a.7.7 0 0 0-.183-.02 2 2 0 0 0-.163-.009q-.462 0-.77.221-.308.222-.308.77v.462h1.261v.722h-1.261v4.438zm5.374.116q-.732 0-1.328-.347a2.7 2.7 0 0 1-.953-.962 2.8 2.8 0 0 1-.347-1.396q0-.771.347-1.377a2.56 2.56 0 0 1 2.281-1.309q.752 0 1.338.346.597.348.934.954.346.606.346 1.386 0 .789-.356 1.405a2.6 2.6 0 0 1-.953.953 2.53 2.53 0 0 1-1.309.347m0-.722q.52 0 .934-.26.424-.26.664-.713a2.05 2.05 0 0 0 .25-1.01q0-.559-.25-1.001a1.84 1.84 0 0 0-.664-.703 1.7 1.7 0 0 0-.934-.26q-.52 0-.943.26a1.93 1.93 0 0 0-.664.703 2 2 0 0 0-.251 1q0 .56.251 1.011.25.453.664.713.424.26.943.26m3.892.606v-5.16h.722v.848l-.097-.126a1.36 1.36 0 0 1 .549-.577q.375-.212.905-.212h.327v.722h-.452q-.558 0-.895.347-.337.346-.337.982v3.176zm5.611.116q-.76-.001-1.338-.356a2.5 2.5 0 0 1-.905-.963 2.9 2.9 0 0 1-.328-1.386q0-.771.328-1.377a2.44 2.44 0 0 1 .905-.953q.577-.356 1.338-.356.481 0 .904.173.424.174.751.472.328.289.491.674l-.654.337a1.6 1.6 0 0 0-.588-.674 1.6 1.6 0 0 0-.904-.26 1.7 1.7 0 0 0-.924.26q-.405.25-.645.703a2.15 2.15 0 0 0-.231 1.01q0 .559.231 1.011.24.443.645.703a1.7 1.7 0 0 0 .924.26q.51 0 .895-.26a1.65 1.65 0 0 0 .597-.693l.654.356q-.163.375-.491.674a2.5 2.5 0 0 1-.751.471 2.4 2.4 0 0 1-.904.174m5.762 0q-.722 0-1.309-.347a2.57 2.57 0 0 1-.915-.972 2.87 2.87 0 0 1-.337-1.396q0-.78.328-1.376.327-.607.885-.953a2.4 2.4 0 0 1 1.271-.347q.559 0 .991.212.444.202.751.558.309.346.472.79a2.5 2.5 0 0 1 .154 1.116 3 3 0 0 1-.029.24h-4.361v-.673h3.947l-.346.289q.086-.53-.126-.944a1.55 1.55 0 0 0-.587-.664 1.55 1.55 0 0 0-.866-.25q-.481 0-.895.25a1.73 1.73 0 0 0-.636.703q-.231.443-.183 1.059-.048.616.193 1.078.25.452.674.703.434.25.924.25.568 0 .953-.27t.626-.674l.616.328a2 2 0 0 1-.472.645q-.318.289-.76.471-.433.174-.963.174"/><defs><linearGradient id="a" x1="29.721" x2="29.721" y1="1.196" y2="53.558" gradientUnits="userSpaceOnUse"><stop stop-color="#26F596"/><stop offset="1" stop-color="#0499F2"/></linearGradient><linearGradient id="b" x1="37.803" x2="37.803" y1="19.115" y2="50.708" gradientUnits="userSpaceOnUse"><stop stop-color="#1AD2BA"/><stop offset="1" stop-color="#07A0EC"/></linearGradient></defs></svg>