<svg width="202" height="54" viewBox="0 0 202 54" fill="none" xmlns="http://www.w3.org/2000/svg">
<path fill-rule="evenodd" clip-rule="evenodd" d="M21.5348 9.51153C20.7093 9.89489 20.2286 10.371 19.8699 11.1608C19.6106 11.7319 19.5765 12.2372 19.5735 15.5542C19.5686 20.7743 19.7278 20.5712 15.5498 20.6867C12.7575 20.7639 12.6969 20.773 12.0406 21.2076C11.5787 21.5136 11.2558 21.9012 10.9933 22.465C10.6177 23.272 10.6139 23.3294 10.6158 28.1528C10.6178 33.5291 10.6565 33.773 11.6541 34.7089C12.443 35.4489 13.2284 35.6188 15.861 35.6188C19.5568 35.6188 19.4128 35.3585 19.4128 42.0416C19.4128 46.4661 19.4411 46.9945 19.7286 47.9252C20.5431 50.5619 22.8145 52.6485 25.5806 53.3006C27.037 53.644 48.6659 53.6439 50.2987 53.3004C53.3081 52.6675 55.7299 50.3312 56.4224 47.3927C56.7745 45.8988 56.7813 23.5589 56.43 22.2103C55.7436 19.5748 53.9761 17.6365 51.3227 16.6093C50.6455 16.3472 49.9268 16.2089 49.2007 16.201L42.7783 16.1313L35.8616 16.0564C35.4795 16.0523 35.1194 15.8768 34.8808 15.5784C34.5375 15.1491 34.5034 14.9591 34.4994 13.4564C34.4947 11.6179 34.264 10.8777 33.4609 10.1247C32.5267 9.24857 32.2683 9.21226 27.0018 9.21603C22.6218 9.21918 22.1039 9.24715 21.5348 9.51153ZM8.69726 10.3032C8.30146 10.699 8.0827 11.2382 8.0908 11.7979L8.12622 14.2452L8.16292 16.7719C8.17029 17.28 8.38686 17.7625 8.76154 18.1057C9.13926 18.4515 9.63284 18.6434 10.145 18.6434H12.5097C17.1392 18.6434 17.0551 18.7262 17.0551 14.171C17.0551 9.57409 17.1671 9.68412 12.4862 9.68412H10.192C9.63135 9.68412 9.09368 9.90682 8.69726 10.3032ZM33.8734 26.0506C33.225 26.1368 32.6416 26.2592 32.577 26.323C32.3305 26.5659 31.6069 33.3114 31.698 34.5159C31.7314 34.9557 31.9838 35.3492 32.3696 35.5629L33.1251 35.9813L33.5461 36.2145C34.1489 36.5483 34.8698 36.5935 35.5096 36.3376C38.0784 35.3099 40.3431 36.2488 40.1177 38.2481C39.8616 40.5195 36.7482 40.8359 34.0615 38.8636C33.6323 38.5486 33.2074 38.2909 33.1174 38.2909C32.9401 38.2909 30.571 40.8923 30.575 41.0828C30.58 41.3205 30.836 41.5707 31.884 42.3614C34.26 44.1543 36.436 44.7994 38.8348 44.4218C40.3567 44.1824 41.6503 43.5336 42.8575 42.4044C45.1333 40.2754 45.743 37.4899 44.4521 35.1182C44.2155 34.6837 43.7721 34.1201 43.4667 33.8658C42.013 32.6558 39.6521 32.0122 37.8673 32.3396C36.0813 32.6671 36.1591 32.705 36.1057 31.4787C36.0348 29.8489 35.9315 29.8948 39.3736 30.0227C40.9735 30.0823 42.6783 30.1722 43.1619 30.2227C43.8329 30.2926 44.0612 30.2624 44.1253 30.095C44.2293 29.8242 43.9415 26.6223 43.7999 26.4722C43.3947 26.0432 36.2235 25.7388 33.8734 26.0506Z" fill="url(#paint0_linear_17224_12499)"/>
<rect x="27.9004" y="19.1149" width="19.8047" height="31.5932" fill="url(#paint1_linear_17224_12499)"/>
<path d="M37.7267 28.9071C37.2854 28.9071 36.8571 28.8293 36.4418 28.6737C36.0524 28.4922 35.702 28.2588 35.3905 27.9736C35.105 27.6624 34.8714 27.3124 34.6897 26.9234C34.5339 26.5345 34.4561 26.1066 34.4561 25.6399C34.4561 25.1731 34.5339 24.7453 34.6897 24.3563C34.8714 23.9674 35.105 23.6303 35.3905 23.3451C35.702 23.0339 36.0524 22.8005 36.4418 22.6449C36.8571 22.4634 37.2854 22.3727 37.7267 22.3727C38.6352 22.3727 39.4139 22.6968 40.0629 23.3451C40.7118 23.9674 41.0363 24.7323 41.0363 25.6399C41.0363 26.5474 40.7118 27.3253 40.0629 27.9736C39.4139 28.5959 38.6352 28.9071 37.7267 28.9071ZM37.7462 50.7274C36.3377 50.7274 35.1958 49.5855 35.1958 48.177V34.219C35.1958 32.8105 36.3377 31.6687 37.7462 31.6687C39.1547 31.6687 40.2965 32.8105 40.2965 34.219V48.177C40.2965 49.5855 39.1547 50.7274 37.7462 50.7274Z" fill="white"/>
<circle cx="5.02511" cy="7.65695" r="2.27316" fill="#23EBA1"/>
<circle cx="19.6214" cy="3.82848" r="3.82848" fill="#25F29A"/>
<circle cx="3.64902" cy="21.5951" r="3.64902" fill="#19D0BC"/>
<path d="M60.4361 21.5278H63.9717V35.5581H60.4361V21.5278ZM79.7037 33.1449L78.5626 33.3507V21.5278H81.986V35.5581H77.5337L68.9845 23.7352L70.1257 23.5294V35.5581H66.7023V21.5278H71.2855L79.7037 33.1449ZM89.1488 23.0805H92.6844V35.5581H89.1488V23.0805ZM83.6863 21.5278H98.1469V24.6519H83.6863V21.5278ZM100.065 32.7333V29.8898H109.756V32.7333H100.065ZM107.286 21.5278L113.759 35.5581H109.999L104.443 23.0056H105.528L99.9904 35.5581H96.2303L102.703 21.5278H107.286ZM118.723 21.5278V33.9867L117.133 32.434H127.646V35.5581H115.187V21.5278H118.723ZM132.881 21.5278V33.9867L131.291 32.434H141.804V35.5581H129.346V21.5278H132.881ZM143.504 21.5278H147.039V35.5581H143.504V21.5278ZM152.295 32.7333V29.8898H161.986V32.7333H152.295ZM159.516 21.5278L165.989 35.5581H162.229L156.673 23.0056H157.758L152.221 35.5581H148.46L154.933 21.5278H159.516ZM170.763 26.5226C170.838 25.4376 171.193 24.5022 171.829 23.7165C172.465 22.9183 173.307 22.3072 174.354 21.8832C175.415 21.4467 176.612 21.2284 177.946 21.2284C179.218 21.2284 180.328 21.4218 181.276 21.8084C182.224 22.195 182.966 22.7375 183.502 23.4359C184.038 24.1343 184.307 24.9387 184.307 25.8491C184.307 26.56 184.12 27.221 183.745 27.8321C183.371 28.4307 182.779 29.0293 181.968 29.6279C181.158 30.2266 180.091 30.8626 178.769 31.5361L174.71 33.6687L174.523 32.752H184.699V35.5581H171.006V33.0888L177.03 29.6279C177.99 29.0792 178.738 28.6115 179.274 28.2249C179.823 27.8258 180.21 27.4579 180.434 27.1212C180.659 26.7845 180.771 26.4228 180.771 26.0362C180.771 25.6371 180.659 25.2817 180.434 24.9699C180.222 24.6581 179.898 24.4149 179.461 24.2403C179.025 24.0657 178.476 23.9784 177.815 23.9784C177.03 23.9784 176.381 24.0969 175.87 24.3338C175.358 24.5583 174.978 24.8639 174.729 25.2505C174.479 25.6371 174.329 26.0611 174.28 26.5226H170.763ZM198.416 21.5278V35.5581H194.918V23.0617H196.041L188.576 31.3303L188.539 30.2079H200.736V32.8456H185.939V30.3575L193.945 21.5278H198.416Z" fill="#242426"/>
<path d="M59.8897 51.5581V44.3866H62.9027C63.3069 44.3866 63.6567 44.4636 63.9519 44.6177C64.2535 44.7653 64.4845 44.9738 64.645 45.2434C64.8118 45.5129 64.8953 45.8273 64.8953 46.1867C64.8953 46.5589 64.8022 46.8894 64.6161 47.1782C64.4364 47.4606 64.1765 47.6756 63.8364 47.8232L63.8268 47.5921C64.1091 47.6948 64.3498 47.8392 64.5487 48.0253C64.7541 48.2114 64.9113 48.4296 65.0204 48.6799C65.1295 48.9238 65.184 49.1869 65.184 49.4692C65.184 50.111 64.9787 50.6212 64.568 50.9998C64.1637 51.372 63.6118 51.5581 62.9123 51.5581H59.8897ZM60.6598 50.8361H62.9123C63.3679 50.8361 63.7305 50.7174 64 50.48C64.276 50.2361 64.414 49.9024 64.414 49.4789C64.414 49.0617 64.276 48.7312 64 48.4874C63.7305 48.2371 63.3679 48.1119 62.9123 48.1119H60.6598V50.8361ZM60.6598 47.4189H62.8449C63.2299 47.4189 63.538 47.3066 63.769 47.082C64.0064 46.8573 64.1252 46.5686 64.1252 46.2156C64.1252 45.8562 64.0064 45.5835 63.769 45.3974C63.538 45.2049 63.2299 45.1086 62.8449 45.1086H60.6598V47.4189ZM68.2871 51.6736C67.9277 51.6736 67.6005 51.5902 67.3053 51.4233C67.0101 51.2501 66.7758 51.0126 66.6025 50.711C66.4357 50.403 66.3523 50.05 66.3523 49.6521V46.3985H67.0742V49.5655C67.0742 49.8414 67.1288 50.0853 67.2379 50.2971C67.3534 50.5024 67.5106 50.6629 67.7096 50.7784C67.9149 50.8939 68.1491 50.9517 68.4123 50.9517C68.6754 50.9517 68.9096 50.8939 69.115 50.7784C69.3203 50.6565 69.4808 50.4864 69.5963 50.2682C69.7118 50.0436 69.7695 49.7773 69.7695 49.4692V46.3985H70.4915V51.5581H69.7695V50.557L69.9332 50.5955C69.8113 50.9292 69.6027 51.1923 69.3075 51.3848C69.0123 51.5774 68.6722 51.6736 68.2871 51.6736ZM71.9763 51.5581V46.3985H72.6982V51.5581H71.9763ZM71.9763 45.4455V44.3866H72.6982V45.4455H71.9763ZM74.176 51.5581V44.2711H74.8979V51.5581H74.176ZM78.7052 51.6736C78.2239 51.6736 77.7907 51.5581 77.4057 51.3271C77.0207 51.0896 76.7158 50.7688 76.4912 50.3645C76.273 49.9537 76.1639 49.4917 76.1639 48.9783C76.1639 48.4585 76.273 47.9964 76.4912 47.5921C76.7158 47.1878 77.0174 46.8702 77.3961 46.6392C77.7811 46.4017 78.2175 46.283 78.7052 46.283C79.148 46.283 79.5427 46.3792 79.8892 46.5718C80.2358 46.7643 80.5085 47.0242 80.7075 47.3515L80.592 47.5536V44.2711H81.3139V51.5581H80.592V50.403L80.7075 50.5089C80.5278 50.8811 80.2582 51.1699 79.8989 51.3752C79.5459 51.5741 79.148 51.6736 78.7052 51.6736ZM78.7437 50.9517C79.0903 50.9517 79.4015 50.865 79.6775 50.6918C79.9598 50.5185 80.1812 50.2842 80.3417 49.989C80.5085 49.6874 80.592 49.3505 80.592 48.9783C80.592 48.6061 80.5085 48.2724 80.3417 47.9772C80.1812 47.6756 79.9598 47.4381 79.6775 47.2648C79.4015 47.0916 79.0903 47.0049 78.7437 47.0049C78.4036 47.0049 78.0956 47.0916 77.8196 47.2648C77.5437 47.4381 77.3255 47.6724 77.1651 47.9676C77.011 48.2628 76.934 48.5997 76.934 48.9783C76.934 49.3505 77.011 49.6874 77.1651 49.989C77.3255 50.2842 77.5405 50.5185 77.81 50.6918C78.086 50.865 78.3972 50.9517 78.7437 50.9517ZM82.7963 51.5581V46.3985H83.5182V51.5581H82.7963ZM82.7963 45.4455V44.3866H83.5182V45.4455H82.7963ZM84.996 51.5581V46.3985H85.7179V47.3996L85.5543 47.3611C85.6826 47.0274 85.8912 46.7643 86.18 46.5718C86.4752 46.3792 86.8153 46.283 87.2004 46.283C87.5662 46.283 87.8935 46.3664 88.1822 46.5333C88.4774 46.7001 88.7085 46.9311 88.8753 47.2263C89.0486 47.5151 89.1352 47.8424 89.1352 48.2082V51.5581H88.4133V48.4874C88.4133 48.1729 88.3555 47.9066 88.24 47.6884C88.1309 47.4702 87.9737 47.3034 87.7683 47.1878C87.5694 47.0659 87.3383 47.0049 87.0752 47.0049C86.8121 47.0049 86.5779 47.0659 86.3725 47.1878C86.1672 47.3034 86.0067 47.4734 85.8912 47.698C85.7757 47.9162 85.7179 48.1793 85.7179 48.4874V51.5581H84.996ZM92.9591 53.6759C92.6062 53.6759 92.2789 53.6213 91.9773 53.5122C91.6821 53.4031 91.4254 53.2523 91.2072 53.0598C90.9954 52.8737 90.8318 52.6555 90.7162 52.4052L91.3804 52.049C91.4831 52.2929 91.666 52.5047 91.9291 52.6844C92.1922 52.8641 92.5292 52.9539 92.9399 52.9539C93.2543 52.9539 93.5431 52.8929 93.8062 52.771C94.0693 52.6491 94.2811 52.4694 94.4416 52.2319C94.602 51.9945 94.6822 51.7025 94.6822 51.356V50.2104L94.7977 50.3163C94.618 50.6885 94.3517 50.9773 93.9988 51.1827C93.6458 51.3816 93.2607 51.4811 92.8436 51.4811C92.3623 51.4811 91.9291 51.3656 91.5441 51.1346C91.159 50.9035 90.8542 50.5923 90.6296 50.2008C90.4114 49.8029 90.3023 49.3633 90.3023 48.882C90.3023 48.3943 90.4114 47.9547 90.6296 47.5633C90.8542 47.1718 91.1558 46.8606 91.5345 46.6295C91.9195 46.3985 92.3559 46.283 92.8436 46.283C93.2607 46.283 93.6394 46.3792 93.9795 46.5718C94.326 46.7643 94.5988 47.0242 94.7977 47.3515L94.6822 47.5536V46.3985H95.4042V51.356C95.4042 51.7988 95.2983 52.1934 95.0865 52.54C94.8811 52.8929 94.5924 53.1689 94.2202 53.3678C93.8544 53.5732 93.434 53.6759 92.9591 53.6759ZM92.8821 50.7591C93.2158 50.7591 93.5174 50.6757 93.787 50.5089C94.0565 50.3356 94.2715 50.1078 94.4319 49.8254C94.5988 49.5366 94.6822 49.2222 94.6822 48.882C94.6822 48.5419 94.5988 48.2307 94.4319 47.9483C94.2715 47.6595 94.0565 47.4317 93.787 47.2648C93.5174 47.0916 93.2158 47.0049 92.8821 47.0049C92.542 47.0049 92.234 47.0916 91.958 47.2648C91.6821 47.4317 91.4639 47.6563 91.3034 47.9387C91.1494 48.221 91.0724 48.5355 91.0724 48.882C91.0724 49.2222 91.1494 49.5366 91.3034 49.8254C91.4639 50.1078 91.6789 50.3356 91.9484 50.5089C92.2243 50.6757 92.5356 50.7591 92.8821 50.7591ZM99.871 51.5581V45.1086H97.888V44.3866H102.605V45.1086H100.641V51.5581H99.871ZM105.189 51.6736C104.701 51.6736 104.258 51.5581 103.86 51.3271C103.462 51.0896 103.145 50.7688 102.907 50.3645C102.676 49.9537 102.561 49.4885 102.561 48.9687C102.561 48.4553 102.676 47.9964 102.907 47.5921C103.138 47.1878 103.449 46.8702 103.841 46.6392C104.239 46.4017 104.688 46.283 105.189 46.283C105.689 46.283 106.135 46.3985 106.527 46.6295C106.924 46.8606 107.236 47.1782 107.46 47.5825C107.691 47.9868 107.807 48.4489 107.807 48.9687C107.807 49.4949 107.688 49.9634 107.451 50.3741C107.213 50.7784 106.896 51.0961 106.498 51.3271C106.106 51.5581 105.67 51.6736 105.189 51.6736ZM105.189 50.9517C105.535 50.9517 105.846 50.865 106.122 50.6918C106.405 50.5185 106.626 50.281 106.786 49.9794C106.953 49.6778 107.037 49.3409 107.037 48.9687C107.037 48.5965 106.953 48.2628 106.786 47.9676C106.626 47.6724 106.405 47.4381 106.122 47.2648C105.846 47.0916 105.535 47.0049 105.189 47.0049C104.842 47.0049 104.528 47.0916 104.245 47.2648C103.969 47.4381 103.748 47.6724 103.581 47.9676C103.414 48.2628 103.331 48.5965 103.331 48.9687C103.331 49.3409 103.414 49.6778 103.581 49.9794C103.748 50.281 103.969 50.5185 104.245 50.6918C104.528 50.865 104.842 50.9517 105.189 50.9517ZM109.08 51.5581V46.3985H109.802V47.3804L109.687 47.236C109.828 46.9344 110.036 46.7001 110.312 46.5333C110.595 46.3664 110.903 46.283 111.236 46.283C111.634 46.283 111.994 46.3953 112.315 46.6199C112.635 46.8445 112.863 47.1365 112.998 47.4959L112.796 47.5055C112.924 47.1076 113.146 46.806 113.46 46.6006C113.781 46.3889 114.134 46.283 114.519 46.283C114.865 46.283 115.183 46.3664 115.472 46.5333C115.767 46.7001 116.001 46.9311 116.175 47.2263C116.354 47.5151 116.444 47.8424 116.444 48.2082V51.5581H115.722V48.4874C115.722 48.1729 115.664 47.9066 115.549 47.6884C115.44 47.4702 115.289 47.3034 115.096 47.1878C114.904 47.0659 114.683 47.0049 114.432 47.0049C114.188 47.0049 113.967 47.0659 113.768 47.1878C113.569 47.3034 113.412 47.4734 113.296 47.698C113.181 47.9162 113.123 48.1793 113.123 48.4874V51.5581H112.401V48.4874C112.401 48.1729 112.343 47.9066 112.228 47.6884C112.119 47.4702 111.968 47.3034 111.775 47.1878C111.583 47.0659 111.362 47.0049 111.111 47.0049C110.861 47.0049 110.636 47.0659 110.437 47.1878C110.245 47.3034 110.091 47.4734 109.975 47.698C109.86 47.9162 109.802 48.1793 109.802 48.4874V51.5581H109.08ZM120.239 51.6736C119.751 51.6736 119.308 51.5581 118.91 51.3271C118.512 51.0896 118.195 50.7688 117.957 50.3645C117.726 49.9537 117.611 49.4885 117.611 48.9687C117.611 48.4553 117.726 47.9964 117.957 47.5921C118.188 47.1878 118.5 46.8702 118.891 46.6392C119.289 46.4017 119.738 46.283 120.239 46.283C120.739 46.283 121.185 46.3985 121.577 46.6295C121.975 46.8606 122.286 47.1782 122.511 47.5825C122.742 47.9868 122.857 48.4489 122.857 48.9687C122.857 49.4949 122.738 49.9634 122.501 50.3741C122.263 50.7784 121.946 51.0961 121.548 51.3271C121.156 51.5581 120.72 51.6736 120.239 51.6736ZM120.239 50.9517C120.585 50.9517 120.897 50.865 121.173 50.6918C121.455 50.5185 121.676 50.281 121.837 49.9794C122.004 49.6778 122.087 49.3409 122.087 48.9687C122.087 48.5965 122.004 48.2628 121.837 47.9676C121.676 47.6724 121.455 47.4381 121.173 47.2648C120.897 47.0916 120.585 47.0049 120.239 47.0049C119.892 47.0049 119.578 47.0916 119.295 47.2648C119.019 47.4381 118.798 47.6724 118.631 47.9676C118.464 48.2628 118.381 48.5965 118.381 48.9687C118.381 49.3409 118.464 49.6778 118.631 49.9794C118.798 50.281 119.019 50.5185 119.295 50.6918C119.578 50.865 119.892 50.9517 120.239 50.9517ZM124.13 51.5581V46.3985H124.852V47.2456L124.756 47.1205C124.878 46.8766 125.061 46.6841 125.305 46.5429C125.555 46.4017 125.857 46.3311 126.21 46.3311H126.537V47.0531H126.084C125.712 47.0531 125.414 47.1686 125.189 47.3996C124.965 47.6306 124.852 47.9579 124.852 48.3815V51.5581H124.13ZM127.383 51.5581V46.3985H128.105V47.2456L128.009 47.1205C128.131 46.8766 128.313 46.6841 128.557 46.5429C128.808 46.4017 129.109 46.3311 129.462 46.3311H129.789V47.0531H129.337C128.965 47.0531 128.666 47.1686 128.442 47.3996C128.217 47.6306 128.105 47.9579 128.105 48.3815V51.5581H127.383ZM133.052 51.6736C132.564 51.6736 132.121 51.5581 131.723 51.3271C131.325 51.0896 131.008 50.7688 130.77 50.3645C130.539 49.9537 130.424 49.4885 130.424 48.9687C130.424 48.4553 130.539 47.9964 130.77 47.5921C131.001 47.1878 131.313 46.8702 131.704 46.6392C132.102 46.4017 132.551 46.283 133.052 46.283C133.552 46.283 133.998 46.3985 134.39 46.6295C134.788 46.8606 135.099 47.1782 135.323 47.5825C135.554 47.9868 135.67 48.4489 135.67 48.9687C135.67 49.4949 135.551 49.9634 135.314 50.3741C135.076 50.7784 134.759 51.0961 134.361 51.3271C133.969 51.5581 133.533 51.6736 133.052 51.6736ZM133.052 50.9517C133.398 50.9517 133.709 50.865 133.985 50.6918C134.268 50.5185 134.489 50.281 134.65 49.9794C134.816 49.6778 134.9 49.3409 134.9 48.9687C134.9 48.5965 134.816 48.2628 134.65 47.9676C134.489 47.6724 134.268 47.4381 133.985 47.2648C133.709 47.0916 133.398 47.0049 133.052 47.0049C132.705 47.0049 132.391 47.0916 132.108 47.2648C131.832 47.4381 131.611 47.6724 131.444 47.9676C131.277 48.2628 131.194 48.5965 131.194 48.9687C131.194 49.3409 131.277 49.6778 131.444 49.9794C131.611 50.281 131.832 50.5185 132.108 50.6918C132.391 50.865 132.705 50.9517 133.052 50.9517ZM137.985 51.5581L136.214 46.3985H137.032L138.495 50.9132H138.207L139.583 46.3985H140.305L141.682 50.9132H141.393L142.866 46.3985H143.674L141.903 51.5581H141.181L139.843 47.1397H140.045L138.707 51.5581H137.985ZM144.693 46.4851L144.568 44.3866H145.338L145.223 46.4851H144.693ZM148.67 51.6736C148.176 51.6736 147.743 51.5485 147.371 51.2982C146.998 51.0479 146.729 50.7078 146.562 50.2778L147.168 49.989C147.316 50.3035 147.521 50.5538 147.784 50.7399C148.054 50.926 148.349 51.019 148.67 51.019C148.978 51.019 149.238 50.9452 149.45 50.7976C149.662 50.6436 149.767 50.4447 149.767 50.2008C149.767 50.0211 149.716 49.8799 149.613 49.7773C149.511 49.6682 149.392 49.5847 149.257 49.527C149.123 49.4692 149.004 49.4275 148.901 49.4019L148.16 49.1901C147.685 49.0553 147.342 48.866 147.13 48.6221C146.918 48.3783 146.812 48.0959 146.812 47.775C146.812 47.4734 146.889 47.2103 147.043 46.9857C147.197 46.7611 147.406 46.5878 147.669 46.4659C147.932 46.3439 148.224 46.283 148.545 46.283C148.981 46.283 149.376 46.3985 149.729 46.6295C150.088 46.8541 150.342 47.1686 150.489 47.5729L149.873 47.8617C149.745 47.5729 149.559 47.3483 149.315 47.1878C149.078 47.021 148.811 46.9376 148.516 46.9376C148.227 46.9376 147.996 47.0114 147.823 47.159C147.65 47.3066 147.563 47.4927 147.563 47.7173C147.563 47.8905 147.608 48.0285 147.698 48.1312C147.788 48.2339 147.89 48.3109 148.006 48.3622C148.128 48.4136 148.234 48.4521 148.324 48.4777L149.18 48.728C149.597 48.85 149.921 49.0393 150.153 49.296C150.39 49.5527 150.509 49.8543 150.509 50.2008C150.509 50.4832 150.428 50.7367 150.268 50.9613C150.114 51.1859 149.899 51.3624 149.623 51.4907C149.347 51.6127 149.029 51.6736 148.67 51.6736ZM154.838 51.5581L152.778 44.3866H153.557L155.338 50.8073H155.175L157.004 44.3866H157.822L159.641 50.8073H159.468L161.258 44.3866H162.038L159.978 51.5581H159.16L157.321 45.1086H157.494L155.656 51.5581H154.838ZM164.919 51.6736C164.432 51.6736 163.989 51.5581 163.591 51.3271C163.193 51.0896 162.876 50.7688 162.638 50.3645C162.407 49.9537 162.292 49.4885 162.292 48.9687C162.292 48.4553 162.407 47.9964 162.638 47.5921C162.869 47.1878 163.18 46.8702 163.572 46.6392C163.97 46.4017 164.419 46.283 164.919 46.283C165.42 46.283 165.866 46.3985 166.257 46.6295C166.655 46.8606 166.967 47.1782 167.191 47.5825C167.422 47.9868 167.538 48.4489 167.538 48.9687C167.538 49.4949 167.419 49.9634 167.182 50.3741C166.944 50.7784 166.626 51.0961 166.229 51.3271C165.837 51.5581 165.401 51.6736 164.919 51.6736ZM164.919 50.9517C165.266 50.9517 165.577 50.865 165.853 50.6918C166.136 50.5185 166.357 50.281 166.517 49.9794C166.684 49.6778 166.768 49.3409 166.768 48.9687C166.768 48.5965 166.684 48.2628 166.517 47.9676C166.357 47.6724 166.136 47.4381 165.853 47.2648C165.577 47.0916 165.266 47.0049 164.919 47.0049C164.573 47.0049 164.258 47.0916 163.976 47.2648C163.7 47.4381 163.479 47.6724 163.312 47.9676C163.145 48.2628 163.062 48.5965 163.062 48.9687C163.062 49.3409 163.145 49.6778 163.312 49.9794C163.479 50.281 163.7 50.5185 163.976 50.6918C164.258 50.865 164.573 50.9517 164.919 50.9517ZM168.811 51.5581V46.3985H169.533V47.2456L169.437 47.1205C169.559 46.8766 169.742 46.6841 169.985 46.5429C170.236 46.4017 170.537 46.3311 170.89 46.3311H171.218V47.0531H170.765C170.393 47.0531 170.095 47.1686 169.87 47.3996C169.645 47.6306 169.533 47.9579 169.533 48.3815V51.5581H168.811ZM172.064 51.5581V44.2711H172.786V49.373L172.478 49.3248L175.375 46.3985H176.309L174.287 48.4681L176.492 51.5581H175.625L173.556 48.6991L174.018 48.7376L172.545 50.2586L172.786 49.6618V51.5581H172.064ZM177.867 51.5581V47.1205H176.837V46.3985H177.867V45.9364C177.867 45.5771 177.947 45.2754 178.107 45.0316C178.268 44.7813 178.48 44.592 178.743 44.4636C179.006 44.3353 179.288 44.2711 179.59 44.2711C179.654 44.2711 179.728 44.2775 179.811 44.2904C179.895 44.2968 179.962 44.3064 180.013 44.3193V44.9738C179.968 44.961 179.907 44.9546 179.83 44.9546C179.753 44.9482 179.699 44.945 179.667 44.945C179.359 44.945 179.102 45.0188 178.897 45.1664C178.691 45.314 178.589 45.5706 178.589 45.9364V46.3985H179.85V47.1205H178.589V51.5581H177.867ZM183.241 51.6736C182.753 51.6736 182.311 51.5581 181.913 51.3271C181.515 51.0896 181.197 50.7688 180.96 50.3645C180.729 49.9537 180.613 49.4885 180.613 48.9687C180.613 48.4553 180.729 47.9964 180.96 47.5921C181.191 47.1878 181.502 46.8702 181.893 46.6392C182.291 46.4017 182.741 46.283 183.241 46.283C183.742 46.283 184.188 46.3985 184.579 46.6295C184.977 46.8606 185.288 47.1782 185.513 47.5825C185.744 47.9868 185.859 48.4489 185.859 48.9687C185.859 49.4949 185.741 49.9634 185.503 50.3741C185.266 50.7784 184.948 51.0961 184.55 51.3271C184.159 51.5581 183.722 51.6736 183.241 51.6736ZM183.241 50.9517C183.588 50.9517 183.899 50.865 184.175 50.6918C184.457 50.5185 184.679 50.281 184.839 49.9794C185.006 49.6778 185.089 49.3409 185.089 48.9687C185.089 48.5965 185.006 48.2628 184.839 47.9676C184.679 47.6724 184.457 47.4381 184.175 47.2648C183.899 47.0916 183.588 47.0049 183.241 47.0049C182.895 47.0049 182.58 47.0916 182.298 47.2648C182.022 47.4381 181.8 47.6724 181.634 47.9676C181.467 48.2628 181.383 48.5965 181.383 48.9687C181.383 49.3409 181.467 49.6778 181.634 49.9794C181.8 50.281 182.022 50.5185 182.298 50.6918C182.58 50.865 182.895 50.9517 183.241 50.9517ZM187.133 51.5581V46.3985H187.855V47.2456L187.758 47.1205C187.88 46.8766 188.063 46.6841 188.307 46.5429C188.557 46.4017 188.859 46.3311 189.212 46.3311H189.539V47.0531H189.087C188.715 47.0531 188.416 47.1686 188.192 47.3996C187.967 47.6306 187.855 47.9579 187.855 48.3815V51.5581H187.133ZM192.744 51.6736C192.237 51.6736 191.791 51.5549 191.406 51.3175C191.021 51.08 190.719 50.7591 190.501 50.3548C190.283 49.9441 190.173 49.4821 190.173 48.9687C190.173 48.4553 190.283 47.9964 190.501 47.5921C190.719 47.1878 191.021 46.8702 191.406 46.6392C191.791 46.4017 192.237 46.283 192.744 46.283C193.065 46.283 193.366 46.3407 193.648 46.4563C193.931 46.5718 194.181 46.729 194.399 46.9279C194.618 47.1205 194.781 47.3451 194.89 47.6018L194.236 47.9387C194.107 47.6627 193.912 47.4381 193.648 47.2648C193.385 47.0916 193.084 47.0049 192.744 47.0049C192.404 47.0049 192.095 47.0916 191.82 47.2648C191.55 47.4317 191.335 47.6659 191.175 47.9676C191.021 48.2628 190.944 48.5997 190.944 48.9783C190.944 49.3505 191.021 49.6874 191.175 49.989C191.335 50.2842 191.55 50.5185 191.82 50.6918C192.095 50.865 192.404 50.9517 192.744 50.9517C193.084 50.9517 193.382 50.865 193.639 50.6918C193.902 50.5185 194.101 50.2875 194.236 49.9987L194.89 50.3548C194.781 50.6051 194.618 50.8297 194.399 51.0287C194.181 51.2276 193.931 51.3848 193.648 51.5003C193.366 51.6159 193.065 51.6736 192.744 51.6736ZM198.506 51.6736C198.025 51.6736 197.588 51.5581 197.197 51.3271C196.812 51.0896 196.507 50.7656 196.282 50.3548C196.058 49.9441 195.945 49.4789 195.945 48.959C195.945 48.4392 196.054 47.9804 196.273 47.5825C196.491 47.1782 196.786 46.8606 197.158 46.6295C197.537 46.3985 197.96 46.283 198.429 46.283C198.801 46.283 199.132 46.3536 199.42 46.4948C199.716 46.6295 199.966 46.8156 200.171 47.0531C200.377 47.2841 200.534 47.5472 200.643 47.8424C200.752 48.1312 200.807 48.4296 200.807 48.7376C200.807 48.8018 200.803 48.8756 200.797 48.959C200.791 49.0361 200.781 49.1163 200.768 49.1997H196.407V48.5259H200.354L200.008 48.8147C200.065 48.4617 200.024 48.1472 199.882 47.8713C199.748 47.5889 199.552 47.3675 199.295 47.2071C199.039 47.0402 198.75 46.9568 198.429 46.9568C198.108 46.9568 197.81 47.0402 197.534 47.2071C197.264 47.3739 197.052 47.6082 196.898 47.9098C196.744 48.205 196.683 48.558 196.715 48.9687C196.683 49.3794 196.748 49.7388 196.908 50.0468C197.075 50.3484 197.299 50.5827 197.582 50.7495C197.871 50.9164 198.179 50.9998 198.506 50.9998C198.885 50.9998 199.202 50.9099 199.459 50.7303C199.716 50.5506 199.924 50.326 200.085 50.0564L200.701 50.3837C200.598 50.6147 200.441 50.8297 200.229 51.0287C200.017 51.2212 199.764 51.3784 199.469 51.5003C199.18 51.6159 198.859 51.6736 198.506 51.6736Z" fill="#444446"/>
<defs>
<linearGradient id="paint0_linear_17224_12499" x1="29.7209" y1="1.19644" x2="29.7209" y2="53.5581" gradientUnits="userSpaceOnUse">
<stop stop-color="#26F596"/>
<stop offset="1" stop-color="#0499F2"/>
</linearGradient>
<linearGradient id="paint1_linear_17224_12499" x1="37.8027" y1="19.1149" x2="37.8027" y2="50.708" gradientUnits="userSpaceOnUse">
<stop stop-color="#1AD2BA"/>
<stop offset="1" stop-color="#07A0EC"/>
</linearGradient>
</defs>
</svg>
