<svg xmlns="http://www.w3.org/2000/svg" width="839" height="559" fill="none"><path fill="#263238" d="M790.674 508.422H52.287a.559.559 0 0 1 0-1.118h738.387c.148 0 .291.059.396.163a.563.563 0 0 1 0 .791.56.56 0 0 1-.396.164M150.628 114.539a23.35 23.35 0 0 1-12.964-3.93 23.32 23.32 0 0 1-9.923-23.941 23.337 23.337 0 0 1 18.335-18.324 23.35 23.35 0 0 1 23.955 9.917 23.3 23.3 0 0 1 3.933 12.957 23.35 23.35 0 0 1-6.845 16.481 23.38 23.38 0 0 1-16.491 6.84m0-45.525a22.23 22.23 0 0 0-12.343 3.742 22.205 22.205 0 0 0-9.446 22.793 22.213 22.213 0 0 0 17.455 17.445 22.23 22.23 0 0 0 12.836-1.263 22.2 22.2 0 0 0 9.971-8.178 22.2 22.2 0 0 0 3.744-12.335 22.22 22.22 0 0 0-6.514-15.694 22.24 22.24 0 0 0-15.703-6.51"/><path fill="#0499F2" d="m153.906 90.927 14.543-14.534a2.65 2.65 0 0 0 .554-2.895 2.66 2.66 0 0 0-2.464-1.619 2.65 2.65 0 0 0-1.871.791l-14.543 14.534-14.542-14.534a2.656 2.656 0 0 0-4.528 1.882c.001.704.282 1.378.78 1.874l14.543 14.534-14.543 14.535a2.648 2.648 0 0 0 2.887 4.355c.325-.144.617-.351.861-.61l14.542-14.534 14.543 14.534a2.66 2.66 0 0 0 1.891.836 2.65 2.65 0 0 0 1.856-4.581z"/><path fill="#263238" d="M166.547 110.525a3.18 3.18 0 0 1-2.237-.939l-14.152-14.12-14.128 14.098a3.36 3.36 0 0 1-4.542 0 3.2 3.2 0 0 1-.697-1.041 3.22 3.22 0 0 1 0-2.457c.162-.389.399-.743.697-1.041l14.129-14.12-14.129-14.087a3.21 3.21 0 1 1 4.542-4.54l14.128 14.11 14.118-14.11a3.212 3.212 0 0 1 5.482 2.27 3.2 3.2 0 0 1-.94 2.27l-14.129 14.109 14.129 14.165a3.207 3.207 0 0 1-2.238 5.478zm-16.389-16.4a.55.55 0 0 1 .392.156l14.543 14.534a2.15 2.15 0 0 0 2.953 0 2.103 2.103 0 0 0 0-2.963l-14.543-14.534a.57.57 0 0 1 0-.793l14.543-14.535a2.09 2.09 0 0 0-1.486-3.566 2.1 2.1 0 0 0-1.479.615l-14.542 14.534a.56.56 0 0 1-.794 0l-14.543-14.534a2.093 2.093 0 0 0-3.465 1.54 2.1 2.1 0 0 0 .545 1.445l14.543 14.534a.57.57 0 0 1 0 .794l-14.543 14.534a2.103 2.103 0 0 0 0 2.962 2.146 2.146 0 0 0 2.953 0l14.543-14.534a.56.56 0 0 1 .38-.19M321.795 114.539a23.35 23.35 0 0 1-12.964-3.93 23.32 23.32 0 0 1-9.923-23.941 23.337 23.337 0 0 1 18.335-18.324 23.35 23.35 0 0 1 23.955 9.917 23.3 23.3 0 0 1 3.933 12.957 23.35 23.35 0 0 1-6.845 16.481 23.38 23.38 0 0 1-16.491 6.84m0-45.525a22.23 22.23 0 0 0-12.343 3.742 22.205 22.205 0 0 0-9.446 22.793 22.213 22.213 0 0 0 17.455 17.445 22.23 22.23 0 0 0 12.836-1.263 22.2 22.2 0 0 0 9.971-8.178 22.2 22.2 0 0 0 3.744-12.335 22.22 22.22 0 0 0-6.514-15.694 22.24 22.24 0 0 0-15.703-6.51"/><path fill="#0499F2" d="m325.073 90.927 14.543-14.534a2.66 2.66 0 0 0-3.781-3.723l-14.543 14.534-14.543-14.534a2.652 2.652 0 0 0-3.747 3.757l14.543 14.533-14.543 14.535a2.648 2.648 0 0 0 2.887 4.355 2.65 2.65 0 0 0 .86-.61l14.543-14.534 14.543 14.534a2.66 2.66 0 0 0 1.875.779 2.64 2.64 0 0 0 1.878-.774 2.66 2.66 0 0 0 .78-1.874 2.66 2.66 0 0 0-.774-1.876z"/><path fill="#263238" d="M337.715 110.525a3.2 3.2 0 0 1-2.238-.939l-14.151-14.12-14.129 14.098a3.356 3.356 0 0 1-4.542 0 3.23 3.23 0 0 1 0-4.539l14.129-14.12-14.129-14.087a3.21 3.21 0 0 1 2.271-5.48c.852 0 1.669.339 2.271.94l14.129 14.11 14.118-14.11a3.212 3.212 0 0 1 5.482 2.27c0 .852-.338 1.668-.941 2.27l-14.117 14.109 14.117 14.165a3.2 3.2 0 0 1 .704 3.482 3.21 3.21 0 0 1-2.941 1.996zm-16.389-16.4a.55.55 0 0 1 .392.156l14.542 14.534a2.15 2.15 0 0 0 2.954 0 2.103 2.103 0 0 0 0-2.963l-14.543-14.534a.56.56 0 0 1-.123-.612.6.6 0 0 1 .123-.181l14.543-14.535a2.09 2.09 0 0 0-2.954-2.951l-14.542 14.534a.56.56 0 0 1-.795 0l-14.542-14.534a2.094 2.094 0 0 0-3.558 1.512 2.1 2.1 0 0 0 .627 1.473l14.542 14.534a.583.583 0 0 1 0 .794l-14.542 14.534a2.1 2.1 0 0 0 0 2.962 2.156 2.156 0 0 0 2.964 0l14.543-14.534a.56.56 0 0 1 .369-.19M674.769 114.539a23.35 23.35 0 0 1-12.964-3.93 23.32 23.32 0 0 1-9.923-23.941c.9-4.524 3.123-8.68 6.386-11.941a23.345 23.345 0 0 1 35.904 3.534 23.3 23.3 0 0 1 3.932 12.957 23.35 23.35 0 0 1-6.844 16.481 23.38 23.38 0 0 1-16.491 6.84m0-45.525a22.214 22.214 0 0 0-20.526 13.707 22.198 22.198 0 0 0 16.192 30.273 22.216 22.216 0 0 0 22.807-9.441 22.2 22.2 0 0 0 3.744-12.335 22.22 22.22 0 0 0-6.514-15.694 22.25 22.25 0 0 0-15.703-6.51"/><path fill="#0499F2" d="m678.047 90.927 14.542-14.534a2.654 2.654 0 0 0-.028-3.75 2.653 2.653 0 0 0-3.753.027l-14.542 14.534-14.543-14.534a2.66 2.66 0 0 0-3.873-.114 2.67 2.67 0 0 0-.779 1.96 2.67 2.67 0 0 0 .893 1.91l14.543 14.534-14.543 14.534a2.66 2.66 0 0 0-.774 1.877 2.64 2.64 0 0 0 .78 1.874 2.65 2.65 0 0 0 2.893.571c.322-.134.614-.33.86-.576l14.543-14.534 14.542 14.534a2.652 2.652 0 0 0 3.748-3.746z"/><path fill="#263238" d="M690.688 110.525a3.2 3.2 0 0 1-2.238-.939l-14.162-14.12-14.118 14.098a3.354 3.354 0 0 1-4.541 0 3.2 3.2 0 0 1-.941-2.27 3.212 3.212 0 0 1 .941-2.269l14.117-14.098-14.117-14.11a3.206 3.206 0 0 1 0-4.538 3.21 3.21 0 0 1 4.541 0l14.118 14.109 14.129-14.11a3.212 3.212 0 0 1 5.482 2.27c0 .852-.338 1.668-.941 2.27L678.83 90.927l14.128 14.165a3.2 3.2 0 0 1 .704 3.482 3.21 3.21 0 0 1-2.941 1.996zm-16.4-16.4a.56.56 0 0 1 .403.156l14.542 14.534a2.16 2.16 0 0 0 2.965 0 2.103 2.103 0 0 0 0-2.963l-14.543-14.534a.57.57 0 0 1 0-.793l14.543-14.535a2.093 2.093 0 0 0-.006-2.957 2.093 2.093 0 0 0-2.959.006l-14.542 14.534a.56.56 0 0 1-.795 0l-14.542-14.534a2.1 2.1 0 0 0-1.485-.599 2.1 2.1 0 0 0-1.474.627 2.078 2.078 0 0 0-.432 2.283c.107.253.264.482.46.674l14.542 14.534a.55.55 0 0 1 .166.397.57.57 0 0 1-.166.397l-14.542 14.534a2.1 2.1 0 0 0 0 2.962 2.145 2.145 0 0 0 2.953 0l14.543-14.534a.52.52 0 0 1 .369-.19"/><path fill="#0499F2" d="M603.833 507.158H385.962L475.455 0h38.885z" opacity=".4"/><path fill="#263238" d="m717.378 319.122-2.349-13.17h-79.426l-2.349 13.17s-2.819 44.284-1.174 52.904c1.644 8.619 6.577 56.269 6.342 58.896s-3.523 11.012-3.289 15.093c.235 4.081 2.137 21.309 2.137 21.309l-.235 8.866s-2.114 3.354-1.644 5.5 2.584 17.005 2.584 17.005 6.343-6.708 8.222-6.462 11.746 6.462 11.746 6.462 2.114-9.335 2.349-12.454c.235-3.12-2.114-11.013-1.879-14.121s3.994-31.125 4.698-38.783 4.934-23.478 4.934-37.599 2.584-36.625 2.584-36.625l2.114-8.139h5.168l2.115 8.139s2.584 22.505 2.584 36.625 4.228 29.929 4.933 37.599 4.475 35.664 4.698 38.783-2.114 11.013-1.879 14.121 2.349 12.454 2.349 12.454 9.867-6.227 11.746-6.462c1.88-.235 8.222 6.462 8.222 6.462s2.115-14.847 2.585-17.005-1.645-5.5-1.645-5.5l-.235-8.866s1.88-17.228 2.114-21.298c.235-4.069-3.054-12.454-3.288-15.093-.235-2.638 4.698-50.31 6.342-58.896 1.645-8.586-1.174-52.915-1.174-52.915"/><path fill="#263238" d="M637.975 499.243h-.168a.53.53 0 0 1-.391-.447c0-.146-2.115-14.847-2.573-16.96-.459-2.113 1.23-5.11 1.633-5.792l.235-8.709c0-.1-1.88-17.217-2.114-21.242-.157-2.616 1.118-6.898 2.08-10.341a34 34 0 0 0 1.208-4.819c.224-2.549-4.709-50.22-6.331-58.74-1.622-8.519 1.051-51.249 1.118-53.06l2.361-13.226a.55.55 0 0 1 .548-.458h79.425a.546.546 0 0 1 .548.458l2.361 13.17c.112 1.811 2.808 44.463 1.118 53.06s-6.555 56.191-6.331 58.74a36 36 0 0 0 1.208 4.819c.996 3.443 2.237 7.725 2.081 10.341-.235 4.047-2.092 21.164-2.115 21.343l.235 8.631c.403.682 2.092 3.667 1.634 5.791s-2.551 16.77-2.573 16.96a.56.56 0 0 1-.39.44.57.57 0 0 1-.572-.138c-2.954-3.119-6.712-6.395-7.742-6.294-1.286.167-7.752 4.002-11.522 6.383a.557.557 0 0 1-.85-.346c-.078-.38-2.125-9.414-2.36-12.533.062-2.43.38-4.847.95-7.211.542-2.266.853-4.581.929-6.909-.101-1.353-.873-7.446-1.768-14.534-1.185-9.347-2.528-19.945-2.93-24.272-.235-2.594-.884-6.149-1.634-10.263-1.476-8.027-3.3-18.022-3.3-27.38 0-13.93-2.55-36.335-2.584-36.559l-1.991-7.647h-4.296l-2.013 7.726c0 .145-2.562 22.55-2.562 36.48 0 9.358-1.824 19.353-3.3 27.391-.75 4.103-1.399 7.658-1.633 10.252-.403 4.327-1.746 14.925-2.931 24.272-.895 7.066-1.667 13.159-1.768 14.534.076 2.328.387 4.643.929 6.909a34.5 34.5 0 0 1 .951 7.211c-.235 3.119-2.238 12.153-2.361 12.533a.556.556 0 0 1-.598.434.55.55 0 0 1-.252-.088c-3.77-2.381-10.236-6.216-11.511-6.383-.985-.134-4.788 3.175-7.753 6.294a.56.56 0 0 1-.335.179m8.144-7.591h.145c1.723.223 8.95 4.639 11.31 6.126.503-2.292 1.969-9.078 2.159-11.593a34.5 34.5 0 0 0-.929-6.921 34.5 34.5 0 0 1-.95-7.211c.1-1.375.883-7.479 1.778-14.534 1.186-9.346 2.528-19.934 2.92-24.238.246-2.639.895-6.216 1.656-10.353 1.465-7.993 3.277-17.888 3.277-27.19 0-13.986 2.562-36.469 2.584-36.692l2.137-8.218a.54.54 0 0 1 .537-.413h5.168a.556.556 0 0 1 .548.413l2.115 8.139c0 .302 2.595 22.785 2.595 36.771 0 9.258 1.823 19.197 3.278 27.179.76 4.148 1.409 7.725 1.655 10.364.392 4.304 1.734 14.892 2.92 24.238.895 7.077 1.678 13.181 1.779 14.534a33.8 33.8 0 0 1-.951 7.211 34.5 34.5 0 0 0-.929 6.921c.191 2.515 1.656 9.29 2.171 11.593 2.371-1.487 9.575-5.903 11.298-6.126s5.84 3.7 7.898 5.802c.514-3.533 2.036-14.075 2.427-15.898.347-1.587-1.006-4.215-1.566-5.098a.6.6 0 0 1-.089-.279l-.235-8.855c0-.246 1.89-17.351 2.114-21.354.146-2.437-1.118-6.618-2.036-9.972a35 35 0 0 1-1.242-5.031c-.257-2.829 4.677-50.31 6.343-59.053 1.6-8.363-1.118-51.35-1.174-52.736l-2.238-12.678h-78.496l-2.238 12.7c0 .38-2.785 44.262-1.174 52.714 1.678 8.776 6.6 56.224 6.354 59.053a35 35 0 0 1-1.253 5.031c-.974 3.354-2.238 7.535-2.036 9.972.223 4.003 2.092 21.108 2.114 21.242l-.235 8.944a.5.5 0 0 1-.089.28c-.549.883-1.913 3.51-1.567 5.098.392 1.822 1.925 12.365 2.428 15.898 1.969-2.013 5.951-5.78 7.719-5.78"/><path fill="#B2B2B2" d="m637.976 498.684-2.148 6.194s-4.777 5.735-5.739 8.798c-.962 3.064 3.255 4.584 4.217 4.785s22.195 0 22.195 0a5.93 5.93 0 0 0 2.673-3.253c.772-2.303-1.23-16.524-1.23-16.524l-11.746-6.462s-6.086 3.32-8.222 6.462"/><path fill="#263238" d="M640.783 519.099c-3.479 0-6.231 0-6.589-.09a7.54 7.54 0 0 1-4.341-2.795 3.28 3.28 0 0 1-.302-2.705c.929-2.963 5.18-8.173 5.784-8.944l2.114-6.105a.3.3 0 0 1 .067-.123c2.238-3.22 8.155-6.506 8.413-6.641a.54.54 0 0 1 .537 0l11.746 6.462a.54.54 0 0 1 .279.414c.213 1.465 2.003 14.422 1.22 16.77a6.44 6.44 0 0 1-2.965 3.567.6.6 0 0 1-.246.067c-2.215.056-9.911.123-15.717.123m-2.305-20.124-2.114 6.115a.6.6 0 0 1-.101.179s-4.72 5.691-5.593 8.609a2.14 2.14 0 0 0 .19 1.8 6.47 6.47 0 0 0 3.591 2.236c.806.122 13.502.055 21.948 0a5.5 5.5 0 0 0 2.238-2.874c.526-1.565-.437-10.308-1.22-15.987l-11.186-6.183c-1.208.66-5.929 3.455-7.753 6.071z"/><path fill="#B2B2B2" d="m712.691 498.684 2.137 6.194s4.788 5.735 5.738 8.798c.951 3.064-3.244 4.584-4.206 4.785s-22.194 0-22.194 0a5.98 5.98 0 0 1-2.685-3.253c-.761-2.303 1.242-16.524 1.242-16.524l11.746-6.462s6.074 3.32 8.222 6.462"/><path fill="#263238" d="M709.883 519.099c-5.75 0-13.503-.068-15.729-.079a.7.7 0 0 1-.246-.067 6.5 6.5 0 0 1-2.953-3.566c-.783-2.359 1.007-15.317 1.208-16.77a.556.556 0 0 1 .291-.414l11.746-6.462a.54.54 0 0 1 .537 0c.246.134 6.22 3.421 8.412 6.641a.27.27 0 0 1 .067.123l2.115 6.104c.604.738 4.843 5.948 5.772 8.944a3.202 3.202 0 0 1-.302 2.706 7.53 7.53 0 0 1-4.329 2.795c-.37.022-3.11.045-6.589.045m-15.572-1.197c8.446.067 21.143.134 21.948 0a6.3 6.3 0 0 0 3.58-2.236 2.13 2.13 0 0 0 .201-1.8c-.917-2.918-5.593-8.552-5.593-8.608a.6.6 0 0 1-.101-.179l-2.114-6.116c-1.823-2.616-6.555-5.411-7.73-6.082l-11.187 6.183c-.794 5.679-1.745 14.422-1.219 15.987a5.5 5.5 0 0 0 2.215 2.851"/><path fill="#CFCFCF" d="M660.964 309.071h32.911l4.34-113.298-6.175-2.739h-30.394l-8.222 4.796z"/><path fill="#263238" d="M693.875 309.686h-32.911a.57.57 0 0 1-.559-.525l-7.54-111.275a.55.55 0 0 1 .06-.296.55.55 0 0 1 .208-.218l8.234-4.797a.5.5 0 0 1 .279-.078h30.395a1 1 0 0 1 .235 0l6.163 2.75a.55.55 0 0 1 .336.526l-4.34 113.298a.565.565 0 0 1-.332.568.6.6 0 0 1-.228.047m-32.441-1.118h31.86l4.306-112.381-5.716-2.538h-30.092l-7.831 4.55z"/><path fill="#263238" d="m669.745 212.342 5.974 8.966-9.319 70.546 9.856 16.356 10.728-19.173-8.625-67.897 5.817-9.156-7.573-10.017z"/><path fill="#263238" d="M676.256 308.769a.56.56 0 0 1-.481-.268l-9.855-16.356a.55.55 0 0 1-.079-.369l9.297-70.334-5.862-8.787a.58.58 0 0 1 0-.626l6.857-10.375a.53.53 0 0 1 .459-.246.55.55 0 0 1 .458.212l7.574 10.062a.57.57 0 0 1 0 .637l-5.705 8.944 8.602 67.706a.6.6 0 0 1-.067.336l-10.661 19.185a.55.55 0 0 1-.481.279zm-9.285-17.038 9.263 15.372 10.18-18.178-8.603-67.718a.54.54 0 0 1 .078-.368l5.594-8.822-6.858-9.089-6.219 9.414 5.772 8.664a.5.5 0 0 1 .089.38z"/><path fill="#B2B2B2" d="m661.814 176.275-.347 12.667 15.493 18.469 14.073-18.816-1.409-13.192z"/><path fill="#263238" d="M676.961 207.948a.561.561 0 0 1-.436-.201l-15.483-18.47a.56.56 0 0 1-.134-.368l.347-12.667a.573.573 0 0 1 .548-.548l27.81-.872a.538.538 0 0 1 .571.492l1.409 13.192a.57.57 0 0 1-.112.403l-14.072 18.815a.55.55 0 0 1-.437.224zm-14.934-19.196 14.901 17.765 13.535-18.078-1.364-12.466-26.77.85z"/><path fill="#B2B2B2" d="M656.377 158.666s-2.841-2.66-3.266 2.236c-.426 4.897 4.799 7.759 4.799 7.759z"/><path fill="#263238" d="M657.91 169.254a.6.6 0 0 1-.268-.067c-.224-.123-5.594-3.052-5.079-8.296.157-1.923.694-3.029 1.633-3.354a2.76 2.76 0 0 1 2.562.749.6.6 0 0 1 .168.325l1.544 10.062a.61.61 0 0 1-.235.547.6.6 0 0 1-.325.034m-3.087-10.744a.7.7 0 0 0-.224 0c-.47.179-.805 1.118-.928 2.437-.269 3.209 2.08 5.49 3.501 6.552l-1.32-8.575a1.96 1.96 0 0 0-1.029-.414"/><path fill="#B2B2B2" d="M693.875 158.666s2.83-2.66 3.255 2.236-4.799 7.759-4.799 7.759z"/><path fill="#263238" d="M692.332 169.254a.6.6 0 0 1-.325-.101.57.57 0 0 1-.224-.547l1.533-10.062a.6.6 0 0 1 .168-.325 2.76 2.76 0 0 1 2.562-.749c.939.358 1.476 1.465 1.644 3.354.447 5.244-4.866 8.173-5.09 8.296a.6.6 0 0 1-.268.134m2.058-10.297-1.309 8.564c1.41-1.118 3.77-3.354 3.49-6.54-.112-1.364-.447-2.236-.917-2.437-.47-.202-.962.212-1.264.413"/><path fill="#B2B2B2" d="M666.658 133.444s-9.352 5.59-10.583 11.281 1.477 28.107 4.195 31.807c2.718 3.701 9.867 11.594 13.816 12.578a9.84 9.84 0 0 0 8.636-1.476c2.237-1.487 8.378-10.118 9.374-11.84s1.969-25.401 1.723-29.582-5.672-10.61-10.605-12.577-13.592-2.158-16.556-.191"/><path fill="#263238" d="M677.095 190.06a13 13 0 0 1-3.143-.425c-4.475-1.118-11.914-9.76-14.14-12.779-2.898-3.968-5.594-26.507-4.285-32.254s10.303-11.325 10.829-11.638c3.065-2.024 11.824-1.957 17.06.134s10.705 8.664 10.962 13.069c.224 3.712-.66 27.95-1.801 29.896-.995 1.733-7.215 10.464-9.553 12.018a10.07 10.07 0 0 1-5.929 1.979m-3.356-57.465c-2.875 0-5.459.425-6.712 1.308-.089 0-9.162 5.59-10.325 10.923-1.253 5.757 1.655 28.028 4.094 31.36 2.897 3.946 9.889 11.459 13.502 12.298a9.3 9.3 0 0 0 8.189-1.398c2.014-1.341 8.122-9.76 9.196-11.649.861-1.51 1.912-24.909 1.655-29.27-.235-3.98-5.504-10.196-10.258-12.096a26.8 26.8 0 0 0-9.341-1.465z"/><path fill="#263238" d="M688.852 137.514c0 2.314-.279 6.909.66 10.263a44.2 44.2 0 0 0 4.128 9.09c.19-4.841.269-9.134.179-10.7-.145-2.515-2.237-5.903-4.967-8.653"/><path fill="#263238" d="M693.64 157.47a.56.56 0 0 1-.481-.268c-1.74-2.906-3.144-6-4.184-9.224a32.7 32.7 0 0 1-.693-8.944v-1.486a.557.557 0 0 1 .673-.557c.109.022.21.076.289.154 3.009 2.985 4.967 6.429 5.123 9.011.09 1.532 0 5.657-.179 10.755a.564.564 0 0 1-.425.526zm-4.24-18.525v.134a31.9 31.9 0 0 0 .649 8.598 38.7 38.7 0 0 0 3.11 7.233c.134-4.092.179-7.39.101-8.664-.112-2.024-1.6-4.785-3.86-7.301M658.895 139.75a11.7 11.7 0 0 0-2.864 4.975c-.537 2.46-.325 8.072.302 13.942l.682.156s3.669-5.78 2.965-10.71c-.526-4.014-.906-7.245-1.085-8.363"/><path fill="#263238" d="M657.06 159.382h-.123l-.683-.156a.57.57 0 0 1-.436-.492c-.693-6.485-.805-11.762-.291-14.11a12.13 12.13 0 0 1 2.998-5.232.54.54 0 0 1 .582-.156.542.542 0 0 1 .391.469c.135 1.197.526 4.405 1.119 8.329.727 5.087-2.897 10.856-3.043 11.102a.6.6 0 0 1-.514.246m1.476-18.268a9.75 9.75 0 0 0-1.913 3.734c-.469 2.135-.369 7.166.247 13.204.827-1.454 3.154-5.982 2.606-9.861-.425-2.94-.738-5.478-.94-7.077M679.355 136.832c4.799-.57 6.488-1.554 6.488-1.554l.425.089a14.4 14.4 0 0 0-3.053-1.733c-4.934-1.978-13.592-2.157-16.557-.19a40.3 40.3 0 0 0-6.712 5.233c1.634-1.051 4.643-2.941 5.146-2.84.716.145 9.464 1.554 14.263.995"/><path fill="#263238" d="M660.013 139.236a.574.574 0 0 1-.549-.673.57.57 0 0 1 .147-.289 40.8 40.8 0 0 1 6.812-5.31c3.032-2.013 11.802-1.946 17.049.145a15.8 15.8 0 0 1 3.177 1.8.56.56 0 0 1 .19.682.566.566 0 0 1-.626.324h-.235a21.5 21.5 0 0 1-6.5 1.521c-4.776.57-13.424-.783-14.419-.995a28.8 28.8 0 0 0-4.743 2.761.6.6 0 0 1-.303.034m5.046-3.958h.156c.985.201 9.52 1.52 14.073.984 1.9-.165 3.776-.539 5.593-1.118a13 13 0 0 0-1.857-.95c-4.888-1.946-13.278-2.08-16.03-.235 0 0-.873.525-2.07 1.375zM676.983 172.787c-1.063 0-3.647-.95-4.172-1.834-.526-.883.29-3.354.794-4.841a.587.587 0 0 1 .744-.374.6.6 0 0 1 .341.294.6.6 0 0 1 .033.449 11.7 11.7 0 0 0-.883 3.925 6.5 6.5 0 0 0 3.199 1.263 4.57 4.57 0 0 0 2.114-2.147 5 5 0 0 0-.537-2.426.58.58 0 0 1 .28-.749.56.56 0 0 1 .738.28 5.8 5.8 0 0 1 .593 3.208 5.37 5.37 0 0 1-2.964 2.93zM676.681 177.304a11.9 11.9 0 0 1-4.911-1.208.5.5 0 0 1-.188-.129.55.55 0 0 1-.096-.639.56.56 0 0 1 .788-.227s5.436 2.717 8.356-.57a.54.54 0 0 1 .595-.165q.105.035.188.109a.57.57 0 0 1 0 .794 6.15 6.15 0 0 1-4.732 2.035M670.607 160.802c0 1.006-.537 1.833-1.197 1.833s-1.197-.827-1.197-1.833.537-1.834 1.197-1.834 1.197.817 1.197 1.834M683.505 160.802c0 1.006-.537 1.833-1.197 1.833s-1.197-.827-1.197-1.833.537-1.834 1.197-1.834 1.197.817 1.197 1.834M664.678 156.978a.67.67 0 0 1-.314-.089.57.57 0 0 1-.145-.771c.078-.123 1.98-2.851 8.077-1.364a.56.56 0 0 1-.053 1.096.6.6 0 0 1-.216-.012c-5.269-1.286-6.868.883-6.879.906a.58.58 0 0 1-.47.234M686.972 156.52a.6.6 0 0 1-.302-.089 8.16 8.16 0 0 0-7.226-.526.558.558 0 0 1-.459-1.017 9.19 9.19 0 0 1 8.289.603.562.562 0 0 1-.035.959.56.56 0 0 1-.267.07"/><path fill="#CFCFCF" d="m676.96 207.411-10.918 10.208-9.195-23.903 4.62-4.774z"/><path fill="#263238" d="M666.042 218.178h-.123a.6.6 0 0 1-.402-.347l-9.196-23.903a.54.54 0 0 1 .123-.581l4.62-4.785a.6.6 0 0 1 .425-.168.56.56 0 0 1 .403.201l15.494 18.47a.573.573 0 0 1 0 .771l-10.963 10.174a.53.53 0 0 1-.381.168m-8.546-24.328 8.77 22.796 9.923-9.279-14.756-17.586z"/><path fill="#CFCFCF" d="m676.961 207.411 10.907 10.733 7.372-24.428-4.206-5.121z"/><path fill="#263238" d="M687.867 218.703a.56.56 0 0 1-.391-.156l-10.907-10.733a.56.56 0 0 1 0-.738l14.073-18.816a.56.56 0 0 1 .436-.224.627.627 0 0 1 .447.202l4.207 5.131a.54.54 0 0 1 .1.515l-7.372 24.428a.6.6 0 0 1-.403.38zm-10.168-11.348 9.9 9.738 7.025-23.254-3.568-4.338z"/><path fill="#B2B2B2" d="M656.847 193.716s12.574 65.962 12.574 69.439-9.598 71.038-11.892 79.948l-2.237 8.944-25.83-21.477s2.752-53.664 2.752-54.592-8.949-69.662-8.949-69.662 4.34-1.599 5.94-2.057c1.599-.459 27.642-10.543 27.642-10.543"/><path fill="#263238" d="M655.247 352.572a.54.54 0 0 1-.358-.134l-25.83-21.51a.6.6 0 0 1-.149-.208.6.6 0 0 1-.052-.25c.95-18.548 2.74-53.81 2.751-54.57-.055-1.118-5.85-46.006-8.949-69.595a.56.56 0 0 1 .436-.593c.179-.067 4.386-1.61 5.985-2.068 1.6-.459 27.352-10.386 27.609-10.487a.5.5 0 0 1 .47 0 .56.56 0 0 1 .28.38c.514 2.694 12.585 66.107 12.585 69.54 0 3.868-9.755 71.697-11.903 80.082l-2.237 8.944a.53.53 0 0 1-.37.391.44.44 0 0 1-.268.078m-25.248-22.281 24.924 20.761 2.069-8.061c2.148-8.351 11.869-75.945 11.869-79.803 0-2.638-8.065-45.681-12.439-68.667-4.072 1.565-25.596 9.849-27.072 10.274-1.275.369-4.363 1.487-5.493 1.89 1.119 8.854 8.871 68.388 8.871 69.316s-2.494 49.661-2.729 54.29"/><path fill="#B2B2B2" d="M725.309 333.902s-5.179 10.062-6.555 11.985a11.5 11.5 0 0 1-2.953 2.951l-5.113-15.54 5.706-4.718z"/><path fill="#263238" d="M715.801 349.397a.6.6 0 0 1-.19 0 .53.53 0 0 1-.336-.357l-5.123-15.541a.57.57 0 0 1 .179-.603l5.705-4.718a.56.56 0 0 1 .649 0l8.949 5.321a.56.56 0 0 1 .213.738c-.213.414-5.213 10.062-6.6 12.052a12.1 12.1 0 0 1-3.11 3.097.6.6 0 0 1-.336.011m-4.475-15.909 4.755 14.445a11.4 11.4 0 0 0 2.237-2.37c1.119-1.677 5.236-9.459 6.276-11.449l-8.122-4.863z"/><path fill="#B2B2B2" d="M728.845 206.282s14.777 74.906 14.24 78.909c-.537 4.002-11.31 46.553-12.115 46.855s-11.578-8.944-11.578-8.944l2.148-41.947-2.965-17.218z"/><path fill="#263238" d="M730.981 332.583c-.514 0-2.293-.817-11.958-9.023a.53.53 0 0 1-.19-.447l2.147-41.925-2.953-17.161a.6.6 0 0 1 0-.19l10.225-57.655a.56.56 0 0 1 .193-.326c.1-.083.225-.13.355-.133a.57.57 0 0 1 .548.447c.604 3.064 14.789 75.018 14.252 79.099-.067.447-10.896 46.743-12.496 47.28a.6.6 0 0 1-.123.034m-11.019-9.693a126 126 0 0 0 10.728 8.452c1.566-4.103 11.254-41.825 11.836-46.218.403-3.008-8.446-49.293-13.659-75.812l-9.721 54.625 2.953 17.128v.123z"/><path fill="#CFCFCF" d="m728.543 327.44-3.233 6.462-9.688-4.036 2.953-10.23z"/><path fill="#263238" d="M725.31 334.461a.5.5 0 0 1-.213 0l-9.698-4.036a.561.561 0 0 1-.314-.671l2.954-10.23a.563.563 0 0 1 .883-.279l9.968 7.826a.566.566 0 0 1 .156.693l-3.233 6.451a.55.55 0 0 1-.503.246m-9.016-4.919 8.748 3.644 2.796-5.59-8.949-7.021z"/><path fill="#B2B2B2" d="M695.239 193.716s-12.562 65.962-12.562 69.439 7.226 62.608 9.508 71.552c2.283 8.944 12.395 17.228 12.395 17.228l20.136-39.018s-8.613-33.272-8.613-34.188 12.685-72.447 12.685-72.447-4.351-1.599-5.951-2.057-27.598-10.509-27.598-10.509"/><path fill="#263238" d="M704.581 352.494a.52.52 0 0 1-.358-.134c-.414-.335-10.269-8.53-12.574-17.508-2.237-8.675-9.531-67.84-9.531-71.697 0-3.432 12.059-66.845 12.574-69.54a.55.55 0 0 1 .28-.38.5.5 0 0 1 .469 0c.269.101 26.054 10.062 27.609 10.487s5.806 2.001 5.985 2.068a.56.56 0 0 1 .358.626c-4.34 24.485-12.585 71.128-12.674 72.38.089.95 5.19 20.862 8.602 34.009a.6.6 0 0 1 0 .392l-20.248 38.973a.56.56 0 0 1-.38.291zm-8.949-158.007c-4.296 22.986-12.395 66.007-12.395 68.668 0 3.835 7.282 62.776 9.497 71.418 1.913 7.468 9.587 14.634 11.668 16.479l19.778-38.202c-1.555-6.015-8.58-33.193-8.58-34.121s10.314-59.131 12.607-72.078c-1.118-.425-4.195-1.52-5.459-1.889-1.488-.425-23.011-8.709-27.083-10.23z"/><path fill="#B2B2B2" d="m630.301 337.86 4.419 8.832s-1.734 12.879-1.734 13.651c0 .771-.191 2.493-1.343 2.113l-1.118-.392a2.72 2.72 0 0 1-2.305 1.118 56 56 0 0 1-6.343-2.303c-.581-.19-5.593-4.606-5.962-6.339s1.723-15.954 1.723-15.954z"/><path fill="#263238" d="M628.455 363.797h-.346a35.6 35.6 0 0 1-5.392-1.912c-.526-.212-.906-.369-1.052-.413-.761-.257-5.895-4.797-6.332-6.708-.391-1.778 1.499-14.691 1.723-16.155a.544.544 0 0 1 .515-.47l12.697-.771a.53.53 0 0 1 .525.301l4.475 8.844a.64.64 0 0 1 0 .324c-.693 5.154-1.723 13.014-1.734 13.573a3.29 3.29 0 0 1-.85 2.493 1.35 1.35 0 0 1-1.231.145l-.794-.268a3.15 3.15 0 0 1-2.204 1.017m-10.358-24.596c-.839 5.635-1.936 14.087-1.712 15.205.313 1.42 4.911 5.59 5.593 5.948.135 0 .549.201 1.119.436a39 39 0 0 0 5.124 1.833 2.13 2.13 0 0 0 1.767-.928.56.56 0 0 1 .638-.201l1.118.38h.213a2.42 2.42 0 0 0 .391-1.576c0-.76 1.455-11.616 1.723-13.55l-4.184-8.352z"/><path fill="#fff" d="M630.491 362.064s-2.114-2.113-2.114-3.454-.962-6.339-.962-6.339"/><path fill="#263238" d="M630.491 362.623a.56.56 0 0 1-.391-.156c-.235-.235-2.238-2.326-2.238-3.857a61 61 0 0 0-.95-6.239.54.54 0 0 1 .235-.567.5.5 0 0 1 .201-.081.55.55 0 0 1 .42.081.55.55 0 0 1 .24.355c.434 2.132.759 4.285.973 6.451 0 .805 1.197 2.303 1.947 3.063a.56.56 0 0 1 .117.604.56.56 0 0 1-.509.346z"/><path fill="#CFCFCF" d="m617.414 331.129.19 7.491 12.697-.76-.962-10.375z"/><path fill="#263238" d="M617.604 339.179a.52.52 0 0 1-.369-.145.6.6 0 0 1-.19-.392l-.191-7.501a.57.57 0 0 1 .403-.548l11.914-3.645a.56.56 0 0 1 .481.067.59.59 0 0 1 .246.414l.962 10.375a.55.55 0 0 1-.134.413.564.564 0 0 1-.392.202l-12.696.76zm.38-7.636.168 6.484 11.534-.693-.839-9.123z"/><path fill="#B2B2B2" d="M623.254 206.282s-14.767 65.012-14.207 70.322 6.421 56.649 6.421 56.649l13.95-2.716 7.83-58.405z"/><path fill="#263238" d="M615.468 333.812a.52.52 0 0 1-.336-.111.58.58 0 0 1-.224-.38c0-.515-5.873-51.429-6.421-56.661s13.614-67.84 14.218-70.501a.55.55 0 0 1 .549-.436.56.56 0 0 1 .548.447l13.994 65.851q.009.094 0 .19l-7.83 58.404a.56.56 0 0 1-.448.47l-13.95 2.716zm7.763-124.925c-5.202 23.031-14.05 63.726-13.636 67.65.525 4.931 5.705 50.31 6.365 56.057l12.965-2.527 7.753-57.912z"/><path fill="#fff" d="M447.288 317.512s1.174 7.591 1.309 8.24c.134.648-.649 4.874-.392 6.92 0 0 1.801 2.695 1.544 3.6s-4.363 2.817-6.164 2.426-5.258-6.54-5.772-7.826.134-15.048.134-15.048z"/><path fill="#263238" d="M444.11 339.268a2.5 2.5 0 0 1-.604-.067c-2.237-.469-5.772-7.133-6.175-8.161-.537-1.319 0-12.958.09-15.283a.51.51 0 0 1 .201-.403.6.6 0 0 1 .447-.123l9.353 1.677a.58.58 0 0 1 .458.47c.403 2.627 1.197 7.725 1.298 8.217a10 10 0 0 1-.146 2.236 27 27 0 0 0-.246 4.618c.616.927 1.824 2.951 1.533 3.935-.38 1.252-4.128 2.873-6.209 2.884m-5.593-22.818c-.291 6.417-.436 13.416-.134 14.176.637 1.599 3.993 7.189 5.369 7.491 1.544.335 5.213-1.431 5.504-2.069a8.3 8.3 0 0 0-1.465-3.108.6.6 0 0 1-.09-.234 25.3 25.3 0 0 1 .235-5.009q.137-.94.157-1.889c-.112-.559-1.007-6.284-1.253-7.826z"/><path fill="#fff" d="M448.204 332.627s-.38 2.236-.637 3.086a1.74 1.74 0 0 1-1.001 1.2 1.74 1.74 0 0 1-1.561-.082c-1.421-.637-1.029-5.646-1.029-5.646l-1.287-3.589"/><path fill="#263238" d="M445.912 337.636a2.7 2.7 0 0 1-1.119-.268c-1.589-.716-1.466-4.685-1.365-6.071l-1.242-3.477a.565.565 0 0 1 .141-.615.56.56 0 0 1 .624-.093.56.56 0 0 1 .287.328l1.286 3.589a.8.8 0 0 1 0 .234c-.167 2.18.079 4.808.694 5.087a1.27 1.27 0 0 0 1.119.079 1.325 1.325 0 0 0 .693-.872c.246-.861.627-2.997.627-3.019a.57.57 0 0 1 .649-.458.57.57 0 0 1 .458.648c0 .089-.391 2.236-.66 3.13a2.45 2.45 0 0 1-1.297 1.588 2.2 2.2 0 0 1-.895.19"/><path fill="#fff" d="m439.378 306.69-1.432 9.1 9.341 1.677 1.443-8.15z"/><path fill="#263238" d="M447.288 318.026h-.101l-9.341-1.632a.56.56 0 0 1-.458-.637l1.443-9.101a.52.52 0 0 1 .246-.38.6.6 0 0 1 .458-.078l9.341 2.638a.57.57 0 0 1 .403.638l-1.443 8.038a.55.55 0 0 1-.224.369.58.58 0 0 1-.324.145m-8.703-2.694 8.255 1.487 1.253-7.099-8.256-2.27z"/><path fill="#0499F2" d="M449.871 204.505s-5.694 62.898-5.94 63.614-6.947 42.16-6.947 42.16l13.178 2.392s15.337-50.31 15.583-51.495-10.549-52.702-10.549-52.702z"/><path fill="#263238" d="M450.162 313.23h-.1l-13.178-2.426a.54.54 0 0 1-.357-.225.56.56 0 0 1-.091-.412c1.119-6.932 6.712-41.523 6.97-42.249.223-1.118 3.971-42.037 5.906-63.492a.57.57 0 0 1 .336-.458.56.56 0 0 1 .559.067l5.325 3.969c.11.081.186.201.213.335 2.539 12.108 10.795 51.708 10.549 52.926s-14.968 49.539-15.595 51.574a.554.554 0 0 1-.537.391m-12.54-3.41 12.149 2.236c5.336-17.474 15.214-49.974 15.426-50.969 0-1.42-6.253-31.964-10.504-52.267l-4.352-3.253c-1.431 15.831-5.593 62.049-5.873 62.753-.234.872-4.53 27.212-6.846 41.5"/><path fill="#fff" d="M459.134 381.149s3.524 13.17 3.524 20.392-5.996 18.324 1.051 38.202 15.505 50.411 15.505 55.05c0 4.64-3.871 11.874-3.871 15.999s4.934 12.913 9.509 11.873 7.752-8.251 7.752-14.97-3.166-16.256-3.166-18.324-.704-28.721.347-36.726c1.052-8.005 2.473-26.072 1.41-33.037a97 97 0 0 1-1.052-12.902s1.757-16.267 1.052-25.3z"/><path fill="#263238" d="M484.102 523.313a5.8 5.8 0 0 1-3.568-1.453c-3.244-2.594-5.75-8.072-5.75-11.068 0-2.091.906-4.83 1.879-7.726s1.991-5.97 1.991-8.273c0-4.472-8.3-34.658-15.471-54.871-5.246-14.78-3.356-24.674-1.98-31.886.491-2.134.791-4.308.895-6.495 0-7.066-3.468-20.124-3.512-20.247a.565.565 0 0 1 .299-.643.6.6 0 0 1 .249-.061l32.061.257a.58.58 0 0 1 .559.525c.705 8.944-1.04 25.233-1.063 25.39a100 100 0 0 0 1.063 12.768c1.052 6.976-.336 25.032-1.41 33.182-.894 6.708-.514 27.402-.391 34.188v2.471c.192 1.511.495 3.006.906 4.472.951 4.002 2.237 9.481 2.237 13.852 0 6.574-3.132 14.377-8.188 15.518a3.7 3.7 0 0 1-.806.1m-24.241-141.594c.727 2.862 3.356 13.483 3.356 19.822a38 38 0 0 1-.906 6.708c-1.365 7.099-3.211 16.77 1.924 31.304 6.824 19.241 15.538 50.22 15.538 55.24 0 2.482-1.04 5.59-2.047 8.631-.94 2.806-1.823 5.456-1.823 7.368 0 2.694 2.371 7.826 5.324 10.196a4.22 4.22 0 0 0 3.502 1.118c4.374-.995 7.316-8.262 7.316-14.433 0-4.249-1.287-9.649-2.237-13.595a30 30 0 0 1-.929-4.729V486.9c-.134-7.524-.503-27.514.403-34.356 1.118-8.094 2.45-26.005 1.409-32.869a98 98 0 0 1-1.118-12.991c0-.224 1.678-15.775 1.118-24.742z"/><path fill="#0499F2" d="M484.506 511.574c-7.753.772-8.458-3.879-8.458-3.879l-.212-.067a13.2 13.2 0 0 0-.492 3.164c0 4.136 4.933 12.913 9.508 11.873 4.576-1.04 7.753-8.251 7.753-14.97v-.123a11.46 11.46 0 0 1-8.099 4.002"/><path fill="#263238" d="M484.103 523.313a5.8 5.8 0 0 1-3.569-1.453c-3.244-2.594-5.75-8.072-5.75-11.068.031-1.117.204-2.225.515-3.298a.53.53 0 0 1 .268-.347.55.55 0 0 1 .437 0l.212.067a.56.56 0 0 1 .38.447c0 .168.772 4.104 7.831 3.354a10.87 10.87 0 0 0 7.719-3.823.575.575 0 0 1 .614-.159.57.57 0 0 1 .381.505v.157c0 6.574-3.132 14.377-8.188 15.518q-.42.1-.85.1m-8.032-14.131a9 9 0 0 0-.168 1.61c0 2.694 2.371 7.826 5.325 10.196a4.21 4.21 0 0 0 3.501 1.118c4.072-.917 6.902-7.278 7.271-13.125a12.47 12.47 0 0 1-7.439 3.119c-5.38.57-7.607-1.453-8.49-2.918"/><path fill="#fff" d="M530.662 381.149s-3.524 13.17-3.524 20.392 5.985 18.324-1.118 38.202-15.494 50.411-15.494 55.05c0 4.64 3.871 11.874 3.871 15.999s-4.934 12.913-9.509 11.873-7.752-8.251-7.752-14.97 3.166-16.256 3.166-18.324.704-28.721-.347-36.726c-1.052-8.005-2.472-26.072-1.41-33.037a97 97 0 0 0 1.052-12.902s-1.756-16.267-1.052-25.3z"/><path fill="#263238" d="M505.637 523.313q-.442 0-.873-.1c-5.056-1.118-8.177-8.944-8.177-15.518 0-4.371 1.309-9.85 2.237-13.852.406-1.468.709-2.962.906-4.472V486.9c.135-7.502.504-27.436-.391-34.188-1.119-8.139-2.472-26.195-1.41-33.182a96.5 96.5 0 0 0 1.052-12.824c0-.101-1.756-16.356-1.052-25.334a.57.57 0 0 1 .548-.525l32.073-.257a.6.6 0 0 1 .447.223.56.56 0 0 1 .09.481c0 .134-3.502 13.181-3.502 20.247.105 2.183.401 4.353.884 6.484 1.387 7.223 3.266 17.117-1.969 31.897-7.182 20.236-15.471 50.433-15.471 54.871 0 2.303 1.007 5.333 1.991 8.273.985 2.941 1.879 5.59 1.879 7.726 0 2.996-2.517 8.474-5.749 11.068a5.8 5.8 0 0 1-3.513 1.453m-6.567-141.348c-.593 8.944 1.119 24.517 1.119 24.674a98 98 0 0 1-1.063 13.058c-1.04 6.876.347 24.786 1.41 32.869.906 6.843.537 26.832.403 34.357v2.448a29 29 0 0 1-.94 4.729c-.94 3.947-2.237 9.347-2.237 13.595 0 6.171 2.93 13.416 7.316 14.433a4.215 4.215 0 0 0 3.501-1.118c2.953-2.359 5.325-7.501 5.325-10.196 0-1.912-.884-4.561-1.824-7.367-1.006-3.019-2.047-6.149-2.047-8.631 0-5.02 8.704-36 15.527-55.241 5.146-14.534 3.289-24.216 1.936-31.304a38 38 0 0 1-.906-6.708c0-6.339 2.617-16.96 3.356-19.822z"/><path fill="#0499F2" d="M505.291 511.574c7.752.772 8.457-3.879 8.457-3.879l.212-.067c.287 1.032.452 2.094.492 3.164 0 4.136-4.933 12.913-9.508 11.873-4.576-1.04-7.753-8.251-7.753-14.97v-.123a11.46 11.46 0 0 0 8.1 4.002"/><path fill="#263238" d="M505.637 523.313q-.442 0-.873-.1c-5.056-1.118-8.177-8.944-8.177-15.518a.65.65 0 0 1 .369-.593.54.54 0 0 1 .627.09 10.86 10.86 0 0 0 7.718 3.823c7.082.705 7.831-3.231 7.831-3.354a.56.56 0 0 1 .38-.447l.202-.067a.555.555 0 0 1 .447 0 .52.52 0 0 1 .269.347 13.8 13.8 0 0 1 .514 3.298c0 2.996-2.517 8.474-5.75 11.068a5.8 5.8 0 0 1-3.557 1.453m-7.831-14.31c.381 5.847 3.2 12.209 7.283 13.125a4.215 4.215 0 0 0 3.501-1.118c2.954-2.359 5.325-7.501 5.325-10.196a9.3 9.3 0 0 0-.168-1.61c-.895 1.465-3.121 3.488-8.49 2.941a12.54 12.54 0 0 1-7.451-3.142M539.253 301.659l-45.239 11.102-45.25-11.102s-4.016 18.581 2.517 47.75c6.533 29.168 5.806 36.894 5.806 36.894h73.832s-.727-7.737 5.806-36.894c6.533-29.158 2.528-47.75 2.528-47.75"/><path fill="#263238" d="M530.93 386.828h-73.832a.551.551 0 0 1-.53-.376.5.5 0 0 1-.029-.228c0-.078.626-8.094-5.795-36.737-6.488-28.945-2.551-47.806-2.517-47.985a.54.54 0 0 1 .257-.358.53.53 0 0 1 .425-.067l45.116 11.057 45.105-11.057a.53.53 0 0 1 .425.067.54.54 0 0 1 .257.358c0 .179 3.971 19.006-2.517 47.985-6.421 28.643-5.806 36.659-5.795 36.737a.551.551 0 0 1-.334.558.6.6 0 0 1-.225.046zm-73.262-1.118h72.714c0-2.314.268-11.594 5.839-36.469 5.817-25.904 3.211-43.602 2.629-46.956l-44.679 10.956a.5.5 0 0 1-.258 0l-44.679-10.956c-.582 3.354-3.177 21.041 2.629 46.956 5.537 24.92 5.85 34.233 5.805 36.469"/><path fill="#0499F2" d="M478.084 193.962s-28.436 9.168-28.212 10.543c.223 1.375 13.077 53.664 13.077 53.664s-9.408 24.987-12.384 33.696a92 92 0 0 0-3.904 15.127 57.5 57.5 0 0 0 22.933 14.209c14.218 4.584 20.415 5.736 20.415 5.736l3.905-6.876V196.019z"/><path fill="#263238" d="M489.976 327.462h-.101c-.067 0-6.388-1.207-20.483-5.746a58.86 58.86 0 0 1-23.179-14.367.559.559 0 0 1-.134-.458 91.7 91.7 0 0 1 3.915-15.227c2.831-8.251 11.523-31.382 12.306-33.54-.94-3.812-12.82-52.155-13.044-53.508-.089-.559-.313-1.855 28.593-11.18a.6.6 0 0 1 .235 0l15.829 2.069a.545.545 0 0 1 .481.548v123.975a.55.55 0 0 1-.067.268l-3.904 6.876a.56.56 0 0 1-.447.29m-42.756-20.683a58 58 0 0 0 22.519 13.863c12.059 3.88 18.391 5.3 19.946 5.59l3.624-6.395V196.511l-15.169-1.979c-10.012 3.22-25.964 8.687-27.676 10.062.671 3.03 8.726 35.899 13.022 53.396a.6.6 0 0 1 0 .335c-.101.246-9.442 25.077-12.384 33.674a95.5 95.5 0 0 0-3.848 14.78z"/><path fill="#0499F2" d="M509.731 193.962s28.437 9.168 28.213 10.543-13.077 53.664-13.077 53.664 9.408 24.987 12.383 33.696a92 92 0 0 1 3.904 15.127 57.5 57.5 0 0 1-22.932 14.209c-14.219 4.584-20.416 5.736-20.416 5.736l-3.893-6.876V196.019z"/><path fill="#263238" d="M497.806 327.462a.55.55 0 0 1-.481-.29l-3.904-6.876a.57.57 0 0 1-.078-.268V196.019a.556.556 0 0 1 .492-.548l15.829-2.057a.55.55 0 0 1 .235 0c28.906 9.313 28.683 10.61 28.593 11.18-.224 1.353-12.104 49.695-13.044 53.508.828 2.168 9.509 25.3 12.306 33.54a93 93 0 0 1 3.915 15.227.556.556 0 0 1-.134.458 58.85 58.85 0 0 1-23.179 14.366c-14.095 4.539-20.416 5.736-20.483 5.747zm-3.356-7.591 3.636 6.395c1.555-.324 7.886-1.744 19.946-5.59a58 58 0 0 0 22.518-13.863 95.5 95.5 0 0 0-3.837-14.769c-2.942-8.597-12.305-33.428-12.383-33.674a.57.57 0 0 1 0-.336c4.295-17.496 12.305-50.365 13.021-53.395-1.711-1.387-17.664-6.854-27.676-10.062l-15.225 1.934z"/><path fill="#fff" d="M474.515 213.449s1.119 8.463 8.95 20.738 10.661 15.239 10.661 15.239l13.748-18.559s6.813-13.763 7.831-18.738-6.981-20.571-6.981-20.571H477.67s-3.647 6.965-3.155 21.891"/><path fill="#263238" d="M494.137 249.985a.53.53 0 0 1-.403-.168c-.123-.123-2.986-3.153-10.728-15.328s-8.949-20.616-9.038-20.962v-.056c-.493-14.903 3.065-21.879 3.221-22.17a.57.57 0 0 1 .493-.302h31.043a.56.56 0 0 1 .492.302c.324.648 8.043 15.831 7.025 20.929s-7.573 18.324-7.831 18.883l-13.826 18.648a.56.56 0 0 1-.414.224zm-19.017-36.581c.078.525 1.454 8.81 8.882 20.482a147 147 0 0 0 10.146 14.645l13.324-17.999s6.712-13.674 7.707-18.514c.873-4.361-5.671-17.71-6.768-19.901h-30.383c-.66 1.476-3.378 8.419-2.953 21.287z"/><path fill="#fff" d="M481.821 185.923s-3.815.995-4.978 2.818-13.279 31.673-13.279 31.673a114 114 0 0 1 14.275-5.3l4.978-.503-1.992 2.818 12.943 8.944 13.279-7.457-2.819-4.472s.492.67 5.974.827c5.481.156 10.459 1.833 12.115 2.001 1.655.168 2.651 1.319 2.494.324s-14.274-29.191-14.945-30.521a4 4 0 0 0-1.232-1.44 4 4 0 0 0-1.755-.718 13.7 13.7 0 0 0-2.819-.324z"/><path fill="#263238" d="M493.768 226.954a.52.52 0 0 1-.313-.101l-12.943-8.944a.53.53 0 0 1-.235-.357.57.57 0 0 1 .089-.425l1.287-1.811-3.759.369a115 115 0 0 0-14.095 5.265.54.54 0 0 1-.616-.111.545.545 0 0 1-.134-.604c.492-1.23 12.149-29.929 13.324-31.774 1.174-1.844 5.145-3.018 5.302-3.063h.112l22.239-1.33a13 13 0 0 1 2.987.346 4.57 4.57 0 0 1 3.356 2.449c3.479 6.942 14.822 29.66 14.99 30.678a.93.93 0 0 1-.257.905c-.369.28-.772.101-1.253-.112a5.6 5.6 0 0 0-1.589-.48 22 22 0 0 1-2.472-.504 49.4 49.4 0 0 0-9.609-1.486 33 33 0 0 1-4.665-.392l2.002 3.187a.55.55 0 0 1-.02.636.6.6 0 0 1-.17.146l-13.278 7.468a.6.6 0 0 1-.28.045m-12.16-9.659 12.193 8.44 12.462-7.009-2.505-3.98a.56.56 0 0 1 .156-.761.574.574 0 0 1 .694 0c.112.079 1.118.548 5.593.682 3.316.18 6.607.689 9.822 1.521 1.029.235 1.846.425 2.327.481a5.7 5.7 0 0 1 1.644.447c-1.51-3.444-9.318-19.174-14.643-29.829a3.5 3.5 0 0 0-2.629-1.867 12.8 12.8 0 0 0-2.685-.313l-22.149 1.32c-1.041.279-3.759 1.252-4.598 2.571s-8.401 19.722-12.708 30.309a107 107 0 0 1 13.088-4.785l5.068-.514a.57.57 0 0 1 .537.279.56.56 0 0 1 0 .604z"/><path fill="#fff" d="M480.624 181.742c.134-.425.85 18.134 1.119 20.281.268 2.146 11.186 28.699 12.148 28.699s11.422-26.564 11.713-27.95c.291-1.387.291-20.717.291-20.717z"/><path fill="#263238" d="M493.913 231.281c-.481 0-1.118 0-6.857-13.897-2.718-6.507-5.683-14.087-5.851-15.294-.167-1.208-.402-6.429-.648-11.56-.179-3.712-.37-7.905-.459-8.587a.63.63 0 0 1 0-.38.56.56 0 0 1 .615-.38l25.193.28a.57.57 0 0 1 .559.559c0 1.978 0 19.375-.302 20.817-.157.805-2.886 7.915-5.593 14.634-5.627 13.808-6.12 13.808-6.657 13.808m-12.696-48.98c.123 1.118.234 3.444.458 8.173s.504 10.397.638 11.47c.302 2.236 9.609 24.518 11.6 27.95 2.081-3.488 10.907-25.971 11.187-27.234.201-.984.269-12.298.28-20.046z"/><path fill="#263238" d="m493.824 188.875-12.35 2.594-.85-9.727z"/><path fill="#263238" d="M481.473 192.039a.56.56 0 0 1-.559-.514l-.85-9.738a.55.55 0 0 1 .244-.519.552.552 0 0 1 .573-.018l13.211 7.133a.57.57 0 0 1 .28.57.55.55 0 0 1-.437.47l-12.305 2.594zm-.201-9.313.705 8.072 10.236-2.158z"/><path fill="#fff" d="M511.23 162.199s3.547-2.627 4.587 1.487c1.04 4.115-5.739 9.515-5.739 9.515z"/><path fill="#263238" d="M510.112 173.76a.6.6 0 0 1-.269-.067.553.553 0 0 1-.279-.548l1.118-11.001a.6.6 0 0 1 .224-.392 4.34 4.34 0 0 1 3.513-.782 3.35 3.35 0 0 1 1.946 2.582c1.119 4.472-5.593 9.861-5.929 10.062a.57.57 0 0 1-.324.146m1.678-11.18-.973 9.324c1.79-1.666 5.179-5.244 4.474-8.016-.246-.995-.66-1.61-1.23-1.812a3 3 0 0 0-1.193-.01 3 3 0 0 0-1.1.458z"/><path fill="#263238" d="M506.308 139.057s-.682-3.555-2.864-5.266-10.068-3.209-15.359 0-18.458 11.337-17.899 15.574c.56 4.237 5.728 14.534 5.728 14.534l27.866-11.348 7.215 11.571s2.182-4.472 3.904-7.099c1.723-2.627 4.128-8.821 1.835-12.376s-6.757-6.965-10.426-5.59"/><path fill="#263238" d="M511.006 164.704a.54.54 0 0 1-.469-.257l-6.981-11.18-27.418 11.18a.54.54 0 0 1-.408.01.53.53 0 0 1-.297-.279c-.213-.424-5.213-10.442-5.795-14.724s10.068-11.18 18.156-16.132c5.493-3.354 13.592-1.856 15.997 0a9.9 9.9 0 0 1 2.92 5.008c3.725-.905 8.11 2.314 10.504 6.015 2.495 3.868-.168 10.42-1.835 12.98-1.666 2.56-3.848 6.999-3.87 7.043a.55.55 0 0 1-.47.313zm-15.437-32.232a14.06 14.06 0 0 0-7.238 1.789c-15.013 9.134-17.899 13.214-17.63 15.037.492 3.589 4.474 11.862 5.459 13.908l27.374-11.18a.56.56 0 0 1 .682.223l6.712 10.722c.738-1.453 2.237-4.316 3.49-6.261 1.913-2.929 3.815-8.698 1.835-11.772-2.237-3.533-6.488-6.619-9.766-5.389a.553.553 0 0 1-.471-.033.56.56 0 0 1-.279-.381s-.682-3.354-2.662-4.941c-1.074-.828-4.15-1.722-7.506-1.722"/><path fill="#fff" d="M475.198 160.12s1.298 17.463 2.864 20.325 13.044 10.945 16.165 11.985 13.043-7.826 14.867-11.459c1.823-3.634 1.823-19.979 1.823-21.097s-6.779-14.109-6.779-14.109-2.864 2.605-9.911 5.724a80.6 80.6 0 0 1-15.125 4.696l-2.08 4.472z"/><path fill="#263238" d="M494.742 193.067a2.3 2.3 0 0 1-.694-.1c-3.132-1.051-14.811-9.213-16.478-12.298s-2.886-19.834-2.931-20.56a.52.52 0 0 1 .201-.47.55.55 0 0 1 .504-.1l1.376.391 1.879-4.003a.555.555 0 0 1 .403-.313 80.6 80.6 0 0 0 15.001-4.65c6.858-3.053 9.733-5.59 9.766-5.59a.58.58 0 0 1 .47-.135.6.6 0 0 1 .403.302c2.047 3.958 6.835 13.304 6.835 14.367 0 2.94-.09 17.731-1.88 21.32s-10.873 11.839-14.855 11.839m-18.928-32.187c.425 5.322 1.566 17.15 2.74 19.297 1.533 2.817 12.899 10.744 15.852 11.728 2.718.905 12.395-7.614 14.185-11.18 1.79-3.567 1.767-19.006 1.767-20.817-.112-.839-3.859-8.318-6.399-13.249a45.7 45.7 0 0 1-9.508 5.389 82 82 0 0 1-14.968 4.673l-1.969 4.182a.56.56 0 0 1-.66.29z"/><path fill="#263238" d="M494.305 176.532a4.22 4.22 0 0 1-2.696-1.319 3.03 3.03 0 0 1-.459-2.862.57.57 0 0 1 .275-.34.56.56 0 0 1 .631.072.57.57 0 0 1 .191.394.6.6 0 0 1-.034.22s-.358 1.174.19 1.722c.772.772 1.801 1.185 2.237.906l.135-.09a2.12 2.12 0 0 0 1.398-2.057.559.559 0 0 1 1.119 0 3.19 3.19 0 0 1-1.947 3.019l-.123.078a1.8 1.8 0 0 1-.917.257M494.093 181.697a11.2 11.2 0 0 1-6.153-2.236.56.56 0 0 1 .501-.974q.106.032.193.102c.212.168 5.28 4.081 9.62.336a.563.563 0 0 1 .789.061.56.56 0 0 1 .073.617.5.5 0 0 1-.135.171 7.32 7.32 0 0 1-4.888 1.923M481.821 163.575a.55.55 0 0 1-.481-.291.56.56 0 0 1 .213-.76 12.3 12.3 0 0 1 8.804-1.029.585.585 0 0 1 .109 1.073.59.59 0 0 1-.445.045 11.26 11.26 0 0 0-7.92.939.6.6 0 0 1-.28.023M506.756 163.899a.6.6 0 0 1-.28-.067c-5.034-2.896-8.021-1.375-8.144-1.308a.562.562 0 0 1-.537-.984c.146-.078 3.613-1.912 9.24 1.319a.558.558 0 0 1-.279 1.04M486.855 168.941c.674 0 1.219-.916 1.219-2.046s-.545-2.046-1.219-2.046c-.673 0-1.219.916-1.219 2.046s.546 2.046 1.219 2.046M501.643 168.941c.674 0 1.22-.916 1.22-2.046s-.546-2.046-1.22-2.046-1.219.916-1.219 2.046.546 2.046 1.219 2.046"/><path fill="#fff" d="M475.433 162.199s-3.546-2.627-4.586 1.487c-1.041 4.115 5.739 9.515 5.739 9.515z"/><path fill="#263238" d="M476.619 173.76a.57.57 0 0 1-.347-.123c-.291-.224-7.036-5.657-5.929-10.062a3.36 3.36 0 0 1 1.947-2.583 4.33 4.33 0 0 1 3.512.783.54.54 0 0 1 .224.391l1.119 11.001a.55.55 0 0 1-.28.548.6.6 0 0 1-.246.045m-3.423-11.829a1.4 1.4 0 0 0-.526.09c-.57.201-.984.816-1.23 1.811-.694 2.772 2.696 6.35 4.474 8.016l-.973-9.324a3.7 3.7 0 0 0-1.745-.593"/><path fill="#0499F2" d="M537.945 204.505s26.848 53.295 26.065 55.553c-.784 2.258-15.416 5.076-15.416 5.076l-19.554-24.596z"/><path fill="#263238" d="M548.594 265.693a.56.56 0 0 1-.436-.213l-19.555-24.596a.54.54 0 0 1-.1-.48l8.893-36.011a.545.545 0 0 1 .481-.425.57.57 0 0 1 .559.302c6.321 12.555 26.848 53.664 26.11 55.989-.738 2.326-12.305 4.763-15.851 5.445zm-18.95-25.323 19.174 24.149c6.812-1.331 14.263-3.455 14.665-4.64.101-2.236-14.855-32.858-25.36-53.776z"/><path fill="#263238" d="m505.066 221.755 1.119 53.91 32.62.313.157-52.948z"/><path fill="#263238" d="m538.806 276.537-32.621-.313a.546.546 0 0 1-.548-.547l-1.118-53.91a.57.57 0 0 1 .167-.414.54.54 0 0 1 .414-.157l33.896 1.275a.56.56 0 0 1 .537.559l-.157 52.948c0 .151-.06.296-.168.403a.56.56 0 0 1-.402.156m-32.05-1.431 31.513.313.156-51.852-32.788-1.23z"/><path fill="#0499F2" d="m552.542 249.158-25.941 6.573 1.499 17.296 34.41-6.585s2.438-1.878 1.499-9.76a13.179 13.179 0 0 0-7.148-10.532"/><path fill="#263238" d="M528.1 273.586a.6.6 0 0 1-.336-.112.58.58 0 0 1-.223-.402l-1.5-17.285a.56.56 0 0 1 .414-.592l25.953-6.574a.55.55 0 0 1 .672.402.58.58 0 0 1-.06.425.56.56 0 0 1-.343.257l-25.483 6.462 1.409 16.189 33.639-6.428c.369-.414 1.991-2.628 1.208-9.19a12.533 12.533 0 0 0-6.802-10.062.56.56 0 0 1-.302-.727.57.57 0 0 1 .738-.302 13.6 13.6 0 0 1 7.484 10.979c.962 8.105-1.61 10.196-1.722 10.274a.6.6 0 0 1-.235.112l-34.41 6.574z"/><path fill="#fff" d="m526.601 255.743-5.079-.191 1.499 13.338h4.71z"/><path fill="#263238" d="M527.72 269.438h-4.699a.546.546 0 0 1-.548-.492l-1.51-13.349a.56.56 0 0 1 .145-.436.508.508 0 0 1 .437-.179l5.078.19a.536.536 0 0 1 .526.503l1.119 13.159a.55.55 0 0 1-.548.604m-4.184-1.118h3.591l-1.029-12.052-3.938-.145z"/><path fill="#fff" d="m521.523 255.553-2.752-.951s-2.987-7.602-3.356-8.049c-.37-.448-7.943-1.655-8.827-1.767-.883-.112-5.593-2.638-6.287-1.319-.693 1.319-.771 2.314-.111 2.862a11.5 11.5 0 0 0 2.315 1.219s-6.287 2.314-6.399 3.197a11.5 11.5 0 0 0 .996 3.421c.112.324 2.316.984 2.316.984s1.118 5.847 1.32 6.619 7.83 2.426 8.278 2.426c.447 0 13.67 2.728 13.67 2.728z"/><path fill="#263238" d="M522.731 267.482h-.112c-5.18-1.063-13.066-2.661-13.592-2.706 0 0-8.401-1.509-8.782-2.829-.19-.693-1.029-5.075-1.275-6.339-2.17-.67-2.237-1.028-2.36-1.241a2.4 2.4 0 0 0-.123-.324 8.8 8.8 0 0 1-.895-3.354c0-.279.145-1.118 5.492-3.175a6.8 6.8 0 0 1-1.208-.738c-.85-.704-.861-1.9 0-3.544.705-1.42 3.256-.391 5.504.526q.663.282 1.354.492c.089 0 8.636 1.218 9.206 1.978.325.436 2.338 5.523 3.289 7.938l2.506.861a.6.6 0 0 1 .38.47l1.209 11.37a.56.56 0 0 1-.179.48.62.62 0 0 1-.414.135m-13.659-3.846c.414 0 8.725 1.699 13.021 2.582l-1.119-10.252-2.405-.838a.56.56 0 0 1-.347-.325c-1.062-2.716-2.819-7.099-3.199-7.826a83 83 0 0 0-8.479-1.609 8 8 0 0 1-1.634-.571c-3.356-1.341-3.993-1.241-4.094-1.062-.559 1.118-.638 1.867-.246 2.236.677.45 1.401.825 2.159 1.118a.552.552 0 0 1-.011 1.04c-2.663.984-5.739 2.348-6.063 2.851.171.926.456 1.827.85 2.683 0 .101.078.19.1.257.64.312 1.307.567 1.992.76a.56.56 0 0 1 .391.425c.291 1.554 1.063 5.59 1.287 6.474.85.626 6.991 2.057 7.774 2.113z"/><path fill="#CFCFCF" d="M298.348 493.496s-3.871 17.408-2.573 22.249 5.806 10.319 8.703 10.319 8.39-6.451 8.077-12.902-2.237-18.38-2.237-18.38z"/><path fill="#263238" d="M304.479 526.578c-3.356 0-7.987-6.004-9.252-10.733-1.308-4.919 2.417-21.801 2.585-22.516a.56.56 0 0 1 .604-.436l11.936 1.285a.58.58 0 0 1 .492.47c0 .123 1.946 12.041 2.237 18.436a15.92 15.92 0 0 1-4.396 11.046c-1.465 1.598-2.998 2.448-4.206 2.448m-5.683-32.422c-.615 2.851-3.602 17.295-2.483 21.499 1.23 4.629 5.593 9.906 8.166 9.906a5.8 5.8 0 0 0 3.412-2.102 14.79 14.79 0 0 0 4.105-10.297c-.291-5.668-1.846-15.73-2.237-17.888z"/><path fill="#CFCFCF" d="M312.019 507.158c-1.869 3.913-5.348 10.152-8.346 9.447-3.266-.771-6.399-6.618-7.73-9.435-.436 3.555-.626 6.853-.168 8.575 1.287 4.829 5.806 10.319 8.704 10.319 2.897 0 8.39-6.451 8.076-12.902-.089-1.722-.29-3.835-.536-6.004"/><path fill="#263238" d="M304.479 526.578c-3.356 0-7.987-6.004-9.251-10.733-.414-1.576-.358-4.539.167-8.787a.549.549 0 0 1 .459-.481.58.58 0 0 1 .604.313c1.175 2.504 4.262 8.407 7.339 9.134 1.901.425 4.776-2.974 7.707-9.156a.58.58 0 0 1 .604-.313.56.56 0 0 1 .459.491c.28 2.438.459 4.472.548 6.038a15.94 15.94 0 0 1-4.419 11.046c-1.476 1.598-3.009 2.448-4.217 2.448m-8.189-17.497a20.6 20.6 0 0 0 0 6.473c1.231 4.629 5.594 9.906 8.167 9.906a5.8 5.8 0 0 0 3.411-2.102 14.78 14.78 0 0 0 4.128-10.196c0-1.118-.167-2.493-.335-4.07-2.238 4.372-5.269 8.698-8.122 8.028-2.852-.671-5.548-4.752-7.249-7.994z"/><path fill="#CFCFCF" d="M349.93 492.501s-1.275 5.59-.514 7.882 7.64 10.442 8.155 12.22 1.018 5.087 3.557 6.876c2.54 1.788 13.245 5.087 15.281 2.034s-1.275-10.185-4.586-15.786-6.108-9.67-7.383-13.74c-1.276-4.069-14.51.514-14.51.514"/><path fill="#263238" d="M372.851 523.313a27.74 27.74 0 0 1-12.037-3.354c-2.36-1.654-3.087-4.472-3.568-6.372l-.213-.805a39 39 0 0 0-3.702-5.478c-2.059-2.795-4.016-5.445-4.475-6.708-.806-2.404.436-7.949.492-8.184a.54.54 0 0 1 .369-.403c.414-.145 10.236-3.51 13.872-1.677a2.51 2.51 0 0 1 1.353 1.521c.985 3.13 2.875 6.261 5.28 10.207.649 1.118 1.343 2.236 2.059 3.421 3.356 5.59 6.801 13.014 4.564 16.379a3.5 3.5 0 0 1-2.383 1.353 9.3 9.3 0 0 1-1.611.1m-22.44-30.387c-.369 1.722-1.007 5.59-.459 7.29.369 1.118 2.45 3.913 4.285 6.406 2.237 3.029 3.613 4.941 3.87 5.824l.224.839c.459 1.822 1.119 4.315 3.121 5.735s9.251 3.723 12.831 3.052a2.5 2.5 0 0 0 1.667-.872c1.465-2.236-.201-7.747-4.609-15.182a171 171 0 0 0-2.047-3.41c-2.439-4.014-4.363-7.189-5.381-10.453a1.48 1.48 0 0 0-.794-.861c-2.573-1.297-9.777.626-12.708 1.632"/><path fill="#CFCFCF" d="M361.128 519.479c2.55 1.777 13.245 5.087 15.281 2.034 1.465-2.236.179-6.462-1.88-10.766-1.443 7.949-10.683 3.265-13.905-.939-3.031-3.969-9.967-13.472-11.119-15.037a14.7 14.7 0 0 0-.09 5.59c.772 2.292 7.641 10.442 8.155 12.22.515 1.777 1.018 5.109 3.558 6.898"/><path fill="#263238" d="M372.852 523.313a27.7 27.7 0 0 1-12.037-3.354c-2.361-1.654-3.088-4.472-3.569-6.372l-.212-.805a39 39 0 0 0-3.703-5.478c-2.058-2.795-4.016-5.445-4.475-6.708-.4-1.943-.377-3.948.067-5.881a.56.56 0 0 1 .414-.458.57.57 0 0 1 .593.212c1.88 2.571 8.222 11.27 11.109 15.026 2.237 2.929 6.98 5.657 10 4.919 1.544-.369 2.517-1.621 2.898-3.734a.55.55 0 0 1 .481-.447.545.545 0 0 1 .582.313c2.595 5.433 3.221 9.246 1.845 11.314a3.512 3.512 0 0 1-2.382 1.353 9 9 0 0 1-1.611.1m-22.978-27.1a10.8 10.8 0 0 0 .079 4.003c.369 1.118 2.449 3.913 4.284 6.406 2.237 3.03 3.613 4.941 3.871 5.825l.223.838c.459 1.822 1.119 4.315 3.121 5.735 2.003 1.42 9.252 3.723 12.832 3.052a2.5 2.5 0 0 0 1.666-.872c1.018-1.531.571-4.561-1.297-8.821a4.66 4.66 0 0 1-3.356 3.097c-3.837.928-9.039-2.56-11.187-5.333-2.483-3.331-7.73-10.52-10.236-13.93"/><path fill="#263238" d="M278.727 327.876s3.691 31.494 6.712 57.957 3.356 27.805 2.673 31.159-2.338 13.729-1.678 19.43 10.997 61.401 10.997 61.401l14.419.335s-2.237-49.348-.604-64.754 9.721-89.44 9.721-89.44l3.01 1.33 11.063 71.027 14.297 78.26s6.376 2.012 10.068 1.341a28.3 28.3 0 0 0 7.707-3.018s-3.233-72.525-3.233-74.906-1.678-15.753-1.678-16.77c0-1.018 3.356-56.269 3.356-61.971s-.335-12.399-.335-12.399l-86.137-1.33z"/><path fill="#263238" d="m311.851 498.717-14.42-.335a.56.56 0 0 1-.537-.458c-.425-2.236-10.336-55.789-10.996-61.434-.66-5.646.984-16.122 1.678-19.61.559-2.773.403-4.148-1.533-20.896-.324-2.884-.716-6.216-1.118-10.062-2.987-26.161-6.712-57.644-6.712-57.957a.3.3 0 0 1 0-.145l.335-2.337a.51.51 0 0 1 .355-.461.5.5 0 0 1 .205-.019l86.137 1.341a.55.55 0 0 1 .548.526c0 .067.336 6.775.336 12.421 0 4.024-1.656 32.522-2.652 49.549-.391 6.775-.704 12.119-.704 12.421s.279 2.862.581 5.501c.493 4.371 1.119 9.805 1.119 11.258 0 2.303 3.199 74.112 3.233 74.839a.56.56 0 0 1-.268.514 29.1 29.1 0 0 1-7.898 3.075c-3.781.682-10.068-1.275-10.326-1.353a.58.58 0 0 1-.38-.436l-14.296-78.26-11.019-70.736-2.036-.905-9.643 88.679c-1.645 15.194.593 64.174.615 64.665a.63.63 0 0 1-.157.425.6.6 0 0 1-.204.141.6.6 0 0 1-.243.049m-13.95-1.442 13.357.302c-.246-5.668-2.125-49.874-.57-64.229l9.721-89.44a.55.55 0 0 1 .09-.245.56.56 0 0 1 .189-.18.54.54 0 0 1 .504 0l3.02 1.342a.584.584 0 0 1 .325.425l11.063 70.981 14.23 77.925c1.32.391 6.421 1.789 9.464 1.23a27.4 27.4 0 0 0 7.237-2.784c-.268-6.048-3.221-72.279-3.221-74.548 0-1.387-.627-7.021-1.119-11.18-.369-3.354-.582-5.21-.582-5.59s.246-4.472.705-12.477c.996-17.016 2.651-45.503 2.651-49.494 0-4.707-.235-10.152-.313-11.84l-85.119-1.33-.258 1.789c.202 1.699 3.781 32.332 6.712 57.879.448 3.879.828 7.211 1.119 10.062 1.947 16.926 2.103 18.301 1.51 21.242-.637 3.208-2.327 13.639-1.667 19.252.672 5.332 9.968 55.609 10.952 60.908M324.413 133.5s-13.748 2.035-20.371 9.414-6.108 13.751-5.862 16.289-8.446 61.848-8.446 61.848h66.46s-2.539-57.264-7.64-68.712-10.941-18.581-24.141-18.839"/><path fill="#263238" d="M356.205 221.61h-66.471a.59.59 0 0 1-.425-.201.57.57 0 0 1-.123-.448c2.405-16.468 8.603-59.667 8.401-61.702-.223-2.236-.906-9.022 5.996-16.714 6.712-7.446 20.136-9.514 20.707-9.592h.123c13.581.268 19.509 7.524 24.689 19.162 5.079 11.426 7.584 66.577 7.685 68.914a.52.52 0 0 1-.156.413.55.55 0 0 1-.426.168m-65.811-1.118h65.23c-.291-6.082-2.853-57.32-7.562-67.93-5.001-11.18-10.695-18.234-23.649-18.503-.861.146-13.771 2.236-19.991 9.235-6.566 7.323-5.951 13.528-5.716 15.853.235 2.326-7.327 54.581-8.312 61.345"/><path fill="#B2B2B2" d="M313.349 179.707s.358 10.543-.526 14.937a17.2 17.2 0 0 1-2.237 6.316l-16.567 6.988.548 120.744h57.935V205.991l-15.728-6.059s-3.356-12.689-3.58-18.749z"/><path fill="#263238" d="M352.503 329.251h-57.936a.56.56 0 0 1-.559-.559l-.548-120.744a.56.56 0 0 1 .336-.514l16.366-6.898a18.2 18.2 0 0 0 2.114-5.982c.861-4.282.526-14.701.515-14.802a.54.54 0 0 1 .179-.425.54.54 0 0 1 .425-.156l19.834 1.475a.56.56 0 0 1 .514.526c.257 5.445 3.021 16.468 3.502 18.357l15.46 5.971a.546.546 0 0 1 .358.514v122.678a.57.57 0 0 1-.56.559m-57.376-1.118h56.817V206.372l-15.371-5.926a.54.54 0 0 1-.335-.38c-.134-.503-3.166-12.164-3.58-18.369l-18.726-1.386c.056 2.348.212 10.599-.56 14.433a17.8 17.8 0 0 1-2.383 6.552.47.47 0 0 1-.234.179l-16.176 6.82z"/><path fill="#CFCFCF" d="m294.075 222.325.492 106.367h57.936V222.325z"/><path fill="#263238" d="M352.503 329.251h-57.936a.56.56 0 0 1-.559-.559l-.492-106.355a.57.57 0 0 1 .559-.571h58.428a.57.57 0 0 1 .559.559v106.367a.567.567 0 0 1-.559.559m-57.376-1.118h56.817V222.884h-57.299z"/><path fill="#B2B2B2" d="m328.395 143.842-20.84 11.437s1.432 20.616 2.237 23.892 9.195 12.857 13.48 13.673c4.284.816 4.698 0 6.13-.816 1.432-.817 9.397-10.007 10.426-11.84s1.22-21.645.604-24.495c-.615-2.851-12.037-11.851-12.037-11.851"/><path fill="#263238" d="M326.192 193.738a16.4 16.4 0 0 1-3.009-.346c-4.475-.85-13.021-10.51-13.916-14.087-.817-3.276-2.238-23.143-2.238-23.981a.553.553 0 0 1 .28-.537l20.841-11.426a.56.56 0 0 1 .615 0c1.186.939 11.612 9.201 12.249 12.164.593 2.761.47 22.841-.671 24.887s-9.083 11.18-10.627 12.052l-.515.324c-.87.64-1.928.975-3.009.95m-18.044-38.146c.19 2.75 1.465 20.493 2.237 23.478.795 3.197 9.095 12.522 13.044 13.271 3.49.659 4.195.212 5.179-.414a8 8 0 0 1 .571-.335c1.219-.705 9.139-9.727 10.202-11.628.918-1.654 1.119-21.309.548-24.115-.402-1.912-7.025-7.703-11.555-11.292z"/><path fill="#B2B2B2" d="M307.633 162.322s-3.356-3.354-4.151 1.118 2.327 9.783 3.356 10.778l2.148 2.158z"/><path fill="#263238" d="M308.975 176.979a.555.555 0 0 1-.391-.167l-2.159-2.158c-.951-.95-4.374-6.406-3.468-11.27.28-1.52.884-2.426 1.79-2.716 1.51-.47 3.121 1.118 3.3 1.263a.57.57 0 0 1 .168.347l1.32 14.086a.56.56 0 0 1-.314.559.6.6 0 0 1-.246.056m-3.579-15.272a1 1 0 0 0-.258 0c-.604.191-.895 1.118-1.029 1.845-.761 4.137 2.17 9.291 3.166 10.286l1.063 1.051-1.119-12.298a3.28 3.28 0 0 0-1.823-.884"/><path fill="#B2B2B2" d="M340.836 162.166s3.154-2.661 3.982 1.822-4.318 10.61-4.318 10.61z"/><path fill="#263238" d="M340.5 175.157a.6.6 0 0 1-.202 0 .6.6 0 0 1-.358-.548l.336-12.432a.55.55 0 0 1 .201-.414 3.489 3.489 0 0 1 3.01-.782c.95.335 1.577 1.33 1.879 2.929.861 4.684-4.217 10.822-4.475 11.079a.53.53 0 0 1-.391.168m.884-12.712-.28 10.42c1.409-2.012 3.703-5.836 3.166-8.776-.157-.816-.481-1.845-1.119-2.091a2.16 2.16 0 0 0-1.767.447M325.532 177.315a10.6 10.6 0 0 1-4.072-1.23.56.56 0 0 1-.235-.76.57.57 0 0 1 .76-.224 9.6 9.6 0 0 0 3.547 1.118 8.4 8.4 0 0 0 3.356-1.118.57.57 0 0 1 .423-.047c.141.04.262.133.337.26a.562.562 0 0 1-.201.76 9.5 9.5 0 0 1-3.915 1.241M325.331 183.743a12.5 12.5 0 0 1-5.392-1.509.56.56 0 0 1-.207-.766.56.56 0 0 1 .766-.207s3.356 1.878 5.896 1.264a14.2 14.2 0 0 0 4.765-2.236.56.56 0 0 1 .757.121.56.56 0 0 1-.075.762 15.1 15.1 0 0 1-5.19 2.426 6.2 6.2 0 0 1-1.32.145M318.607 165.643c0 1.118-.559 2.068-1.253 2.068s-1.242-.928-1.242-2.068.56-2.068 1.242-2.068 1.253.928 1.253 2.068M333.452 165.643c0 1.118-.56 2.068-1.242 2.068s-1.253-.928-1.253-2.068.559-2.068 1.253-2.068 1.242.928 1.242 2.068M312.958 162.468a.521.521 0 0 1-.403-.179.553.553 0 0 1 0-.783c.101-.089 2.416-2.169 6.936-1.476a.562.562 0 0 1 .398.846.54.54 0 0 1-.566.261c-3.96-.615-5.929 1.118-6.007 1.185a.54.54 0 0 1-.358.146M336.517 162.3a.56.56 0 0 1-.38-.145c-2.551-2.393-6.712-1.208-6.712-1.197a.56.56 0 0 1-.426-.046.562.562 0 0 1 .101-1.027c.202 0 4.833-1.386 7.831 1.453a.56.56 0 0 1 .123.612.56.56 0 0 1-.313.308.6.6 0 0 1-.224.042"/><path fill="#B2B2B2" d="M268.29 320.061s-3.043 26.966-2.607 29.795c.437 2.828 4.565 13.908 5.661 15.216s5 2.392 5.649 2.392 1.745 1.118 2.83-1.118 2.394-1.308 1.119-2.18a4.9 4.9 0 0 0-3.255-.436l-3.916-3.041-.872-11.09 5 9.134s1.745 0 1.522-2.393-.873-10.867-1.298-12.823c-.425-1.957-2.83-10.733-2.83-10.733l1.957-9.716z"/><path fill="#263238" d="M278.257 368.303a3 3 0 0 1-.928-.19 3 3 0 0 0-.336-.09c-.794 0-4.866-1.118-6.086-2.594-1.219-1.475-5.324-12.543-5.783-15.495s2.472-28.833 2.606-29.94a.52.52 0 0 1 .258-.403.55.55 0 0 1 .469-.055l8.95 3.041a.56.56 0 0 1 .369.637l-1.935 9.592c.313 1.118 2.394 8.777 2.796 10.621.358 1.61.851 7.435 1.119 10.912.067.827.123 1.52.168 1.99a2.93 2.93 0 0 1-.604 2.314c-.383.414-.914.66-1.477.682a.57.57 0 0 1-.492-.29l-3.725-6.865.649 8.24 3.523 2.739a5.2 5.2 0 0 1 3.423.57c.56.369.817.537.795.928a.75.75 0 0 1-.481.626 2.63 2.63 0 0 0-1.208 1.33c-.66 1.376-1.432 1.7-2.07 1.7m-9.486-47.437c-1.063 9.481-2.864 26.832-2.54 28.956.448 2.918 4.598 13.83 5.538 14.948.939 1.118 4.62 2.236 5.224 2.236.233.015.463.064.682.145.593.19 1.018.336 1.645-.928a4.2 4.2 0 0 1 1.197-1.509 4.47 4.47 0 0 0-2.752-.302.57.57 0 0 1-.459-.101l-3.915-3.04a.6.6 0 0 1-.148-.18.6.6 0 0 1-.065-.223l-.872-11.091a.57.57 0 0 1 .402-.581.59.59 0 0 1 .649.268l4.799 8.777a.87.87 0 0 0 .369-.257 1.91 1.91 0 0 0 .303-1.454c0-.469-.101-1.118-.168-2.001-.291-3.443-.783-9.224-1.119-10.766-.425-1.923-2.797-10.61-2.83-10.688a.5.5 0 0 1 0-.258l1.857-9.245z"/><path fill="#B2B2B2" d="m274.431 212.89-2.741 59.041-5.358 52.937 12.73.671 14.756-58.628z"/><path fill="#263238" d="m279.062 326.098-12.741-.659a.54.54 0 0 1-.392-.202.55.55 0 0 1-.134-.413l5.358-52.938 2.741-59.019a.563.563 0 0 1 .9-.529c.119.09.198.224.219.373l19.386 54.021a.53.53 0 0 1 0 .325l-14.733 58.616a.57.57 0 0 1-.604.425m-12.115-1.755 11.69.615 14.543-58.024-18.324-51.16-2.606 56.235z"/><path fill="#B2B2B2" d="M381.991 320.061s3.054 26.966 2.618 29.795c-.436 2.828-4.575 13.908-5.661 15.216s-5 2.392-5.66 2.392-1.734 1.118-2.819-1.118-2.394-1.308-1.119-2.18a4.93 4.93 0 0 1 3.267-.436l3.915-3.041.873-11.09-5.001 9.134s-1.745 0-1.521-2.393.861-10.867 1.298-12.823c.436-1.957 2.83-10.733 2.83-10.733l-1.936-9.682z"/><path fill="#263238" d="M372.035 368.303c-.638 0-1.398-.325-2.069-1.677a2.7 2.7 0 0 0-1.209-1.331.75.75 0 0 1-.481-.626c0-.391.235-.559.795-.928a5.18 5.18 0 0 1 3.423-.57l3.524-2.739.648-8.24-3.747 6.842a.57.57 0 0 1-.492.291 2.12 2.12 0 0 1-1.477-.682 2.9 2.9 0 0 1-.604-2.314c0-.47.101-1.118.168-1.99.291-3.477.783-9.302 1.118-10.912.414-1.845 2.495-9.492 2.808-10.621l-1.924-9.592a.56.56 0 0 1 .369-.637l8.95-3.041a.55.55 0 0 1 .478.053.56.56 0 0 1 .26.405c.123 1.118 3.054 27.078 2.606 29.94s-4.608 14.098-5.772 15.495c-1.163 1.398-5.302 2.594-6.097 2.594a2 2 0 0 0-.324.09 3 3 0 0 1-.951.19m-2.237-3.69c.508.404.914.921 1.186 1.51.626 1.263 1.062 1.118 1.655.928a2.2 2.2 0 0 1 .671-.146c.616 0 4.296-1.062 5.236-2.236s5.078-12.029 5.526-14.947c.336-2.125-1.465-19.476-2.528-28.957l-7.831 2.661 1.857 9.246a.5.5 0 0 1 0 .257c0 .078-2.394 8.765-2.819 10.688-.347 1.543-.828 7.323-1.119 10.767-.078.838-.134 1.531-.179 2.001a1.9 1.9 0 0 0 .314 1.453.9.9 0 0 0 .358.257l4.81-8.776a.58.58 0 0 1 .649-.268.57.57 0 0 1 .402.581l-.872 11.091a.581.581 0 0 1-.213.402l-3.915 3.041a.58.58 0 0 1-.47.101 4.48 4.48 0 0 0-2.741.346z"/><path fill="#B2B2B2" d="m372.919 212.89 5.683 59.041 5.358 52.937-12.73.671-14.755-58.628z"/><path fill="#263238" d="M371.218 326.098a.57.57 0 0 1-.537-.425l-14.744-58.628a.55.55 0 0 1 0-.301l16.444-54.022a.55.55 0 0 1 .593-.392.57.57 0 0 1 .503.504l5.683 59.052 5.359 52.926a.57.57 0 0 1-.311.555.6.6 0 0 1-.215.06l-12.742.66zm-14.163-59.176 14.599 58.036 11.69-.615-5.302-52.356-5.415-56.213z"/><path fill="#B2B2B2" d="M306.425 202.134s2.483 31.427 4.967 48.253 6.074 30.879 6.074 30.879l-8.826 8.821 5.235 44.944-38.616-2.236 12.965-67.55s-15.449-50.723-13.793-52.378c1.655-1.654 31.994-10.733 31.994-10.733"/><path fill="#263238" d="m313.876 335.59-38.617-2.236a.5.5 0 0 1-.414-.212.54.54 0 0 1-.1-.448l12.931-67.415c-4.687-15.417-15.314-51.104-13.614-52.814 1.701-1.711 29.086-9.95 32.24-10.89a.57.57 0 0 1 .646.259.5.5 0 0 1 .07.233c0 .313 2.517 31.606 4.967 48.208 2.45 16.603 6.018 30.69 6.052 30.824a.53.53 0 0 1-.145.536l-8.636 8.631 5.213 44.72a.56.56 0 0 1-.146.448.58.58 0 0 1-.447.156m-37.957-3.287 37.33 2.124-5.168-44.272a.57.57 0 0 1 .157-.459l8.602-8.608c-.537-2.158-3.736-15.328-5.996-30.622s-4.531-42.887-4.911-47.594c-11.567 3.477-29.51 9.146-31.054 10.364-.615 2.56 8.155 33.093 13.883 51.875a.8.8 0 0 1 0 .269z"/><path fill="#B2B2B2" d="M340.836 201.128s-2.406 32.422-4.889 49.259-6.063 30.879-6.063 30.879l8.826 8.821-5.246 44.944 38.627-2.236-12.999-67.527s15.449-50.724 13.793-52.378c-1.655-1.655-32.049-11.762-32.049-11.762"/><path fill="#263238" d="M333.463 335.59a.54.54 0 0 1-.403-.179.55.55 0 0 1-.145-.447l5.202-44.72-8.636-8.631a.581.581 0 0 1-.146-.537c0-.134 3.614-14.221 6.063-30.823 2.45-16.602 4.855-48.89 4.878-49.192a.55.55 0 0 1 .248-.428.56.56 0 0 1 .49-.064c3.121 1.04 30.596 10.196 32.296 11.896 1.7 1.699-8.949 37.397-13.614 52.814l12.943 67.415a.533.533 0 0 1-.112.448.51.51 0 0 1-.403.212l-38.627 2.236zm-2.964-54.503 8.602 8.609a.54.54 0 0 1 .157.458l-5.157 44.273 37.318-2.124-12.842-66.923a.56.56 0 0 1 0-.269c5.717-18.793 14.543-49.326 13.883-51.875-1.544-1.241-19.532-7.491-31.133-11.359-.369 4.875-2.584 33.328-4.832 48.588-2.249 15.261-5.459 28.465-5.996 30.622"/><path fill="#B2B2B2" d="m99.73 332.661 4.418 8.843s-1.734 12.868-1.734 13.64c0 .771-.19 2.504-1.342 2.113l-1.119-.38a2.745 2.745 0 0 1-2.305 1.118 58 58 0 0 1-6.353-2.303c-.571-.202-5.594-4.618-5.952-6.339s1.723-15.954 1.723-15.954z"/><path fill="#263238" d="M97.873 358.61h-.336a34 34 0 0 1-5.392-1.901l-1.051-.425c-.761-.257-5.896-4.796-6.332-6.708-.403-1.777 1.499-14.679 1.723-16.144a.556.556 0 0 1 .514-.48l12.697-.772a.53.53 0 0 1 .526.313l4.474 8.832a.64.64 0 0 1 0 .325c-.693 5.154-1.733 13.024-1.733 13.572a3.25 3.25 0 0 1-.862 2.493 1.276 1.276 0 0 1-1.219.157l-.794-.268a3.2 3.2 0 0 1-2.215 1.006m-10.348-24.652c-.839 5.69-1.935 14.143-1.678 15.305.324 1.42 4.922 5.59 5.593 5.937l1.119.436a38.5 38.5 0 0 0 5.124 1.833c.984.146 1.767-.916 1.767-.916a.58.58 0 0 1 .638-.213l1.118.391h.213a2.45 2.45 0 0 0 .391-1.587c0-.76 1.455-11.616 1.712-13.55l-4.173-8.352z"/><path fill="#fff" d="M99.92 356.877s-2.115-2.113-2.115-3.466-.962-6.339-.962-6.339"/><path fill="#263238" d="M99.92 357.436a.57.57 0 0 1-.403-.168c-.224-.235-2.237-2.314-2.237-3.857a61 61 0 0 0-.951-6.227.557.557 0 0 1 .436-.66.571.571 0 0 1 .66.447c0 .202.973 5.065.973 6.44 0 .816 1.197 2.314 1.947 3.063a.56.56 0 0 1 0 .794.55.55 0 0 1-.425.168"/><path fill="#B2B2B2" d="m86.843 325.942.19 7.49 12.697-.771-.962-10.375z"/><path fill="#263238" d="M87.033 333.991a.567.567 0 0 1-.56-.547l-.19-7.491a.57.57 0 0 1 .392-.548l11.925-3.656a.58.58 0 0 1 .48.078.6.6 0 0 1 .247.414l.951 10.375a.56.56 0 0 1-.123.414.6.6 0 0 1-.392.19l-12.697.771zm.38-7.647.168 6.496 11.533-.705-.839-9.111z"/><path fill="#B2B2B2" d="M98.443 207.143s-14.14 55.9-13.581 61.155c.56 5.254 0 59.757 0 59.757l13.983-2.717 10.549-62.608z"/><path fill="#263238" d="M84.896 328.614a.58.58 0 0 1-.358-.123.56.56 0 0 1-.201-.436c0-.548.548-54.492 0-59.701-.549-5.21 12.987-59.064 13.591-61.345a.55.55 0 0 1 .56-.425.57.57 0 0 1 .537.458l10.918 55.599a.4.4 0 0 1 0 .201l-10.55 62.608a.6.6 0 0 1-.447.458l-13.927 2.706zm13.547-118.911c-4.99 19.834-13.424 54.581-12.965 58.539.537 5.008.078 52.546 0 59.142l12.898-2.516 10.448-62.138z"/><path fill="#B2B2B2" d="m199.648 332.661-4.474 8.843s1.734 12.868 1.734 13.64c0 .771.19 2.504 1.342 2.113l1.119-.38a2.73 2.73 0 0 0 2.304 1.118 59 59 0 0 0 6.343-2.303c.571-.202 5.593-4.618 5.963-6.339.369-1.722-1.734-15.954-1.734-15.954z"/><path fill="#263238" d="M201.494 358.61a3.22 3.22 0 0 1-2.237-1.118l-.794.268a1.273 1.273 0 0 1-1.22-.157 3.28 3.28 0 0 1-.861-2.493c0-.548-1.029-8.418-1.723-13.572a.56.56 0 0 1 0-.324l4.475-8.833a.55.55 0 0 1 .537-.313l12.686.772a.57.57 0 0 1 .525.48c.213 1.465 2.115 14.367 1.723 16.144-.436 1.957-5.593 6.496-6.332 6.708-.145 0-.536.213-1.062.425a34 34 0 0 1-5.381 1.901zm-2.036-2.292a.53.53 0 0 1 .448.235s.783 1.062 1.779.916a39 39 0 0 0 5.123-1.833l1.119-.447c.682-.325 5.28-4.472 5.593-5.926.257-1.118-.839-9.615-1.667-15.305l-11.869-.716-4.217 8.352c.257 1.934 1.711 12.79 1.711 13.55-.048.558.09 1.116.392 1.587h.224l1.118-.391z"/><path fill="#fff" d="M199.459 356.877s2.114-2.113 2.114-3.466.962-6.339.962-6.339"/><path fill="#263238" d="M199.458 357.436a.57.57 0 0 1-.403-.168.57.57 0 0 1 0-.794c.761-.749 1.958-2.236 1.958-3.063 0-1.375.929-6.238.962-6.44a.574.574 0 0 1 .66-.447.57.57 0 0 1 .448.66 58 58 0 0 0-.951 6.227c0 1.543-2.047 3.622-2.238 3.857a.56.56 0 0 1-.436.168"/><path fill="#B2B2B2" d="m212.524 325.942-.19 7.49-12.686-.771.962-10.375z"/><path fill="#263238" d="m212.335 333.991-12.686-.771a.57.57 0 0 1-.392-.19.56.56 0 0 1-.134-.414l.962-10.375a.53.53 0 0 1 .246-.414.544.544 0 0 1 .47-.078l11.925 3.656a.56.56 0 0 1 .392.548l-.191 7.49a.53.53 0 0 1-.178.403.58.58 0 0 1-.414.145m-12.093-1.856 11.533.705.168-6.496-10.851-3.354z"/><path fill="#B2B2B2" d="M200.891 207.143s14.151 55.9 13.592 61.155c-.56 5.254 0 59.757 0 59.757l-13.961-2.717-10.549-62.608z"/><path fill="#263238" d="M214.483 328.614h-.112l-13.961-2.717a.557.557 0 0 1-.437-.458l-10.549-62.608a.6.6 0 0 1 0-.202l10.919-55.598a.58.58 0 0 1 .537-.458.544.544 0 0 1 .559.425c.582 2.236 14.162 56 13.592 61.344s0 59.154 0 59.702a.6.6 0 0 1-.202.436.63.63 0 0 1-.346.134m-13.424-3.746 12.898 2.516c-.067-6.607-.515-54.134 0-59.142.414-3.958-7.965-38.705-12.954-58.539l-10.46 53.027zM109.316 333.667s4.553 86.913 6.835 104.488 6.836 43.289 6.836 43.289-3.256 2.236-3.905 4.562c-.648 2.325 1.276 17.094 1.276 17.094l20.55-.257a87.2 87.2 0 0 0 3.255-23.668v-19.856c0-2.605 3.904-113.924 3.904-113.924l2.953 114.248s-.973 35.474.66 36.123c1.634.648 4.699 9.76 4.699 9.76l21.165-2.426s1.119-12.209 1.119-16.77-2.931-13.349-2.607-18.223c.324-4.875 8.793-44.597 8.793-51.428V310.234h-74.951z"/><path fill="#263238" d="M156.357 506.085a.57.57 0 0 1-.537-.38c-1.432-4.26-3.513-9.078-4.374-9.414-.582-.234-1.376-.547-1.287-18.827 0-8.865.28-17.754.28-17.888l-2.45-95.79c-1.119 31.751-3.267 93.565-3.267 95.488v19.901a88.6 88.6 0 0 1-3.288 23.847.57.57 0 0 1-.526.391l-20.539.246a.57.57 0 0 1-.559-.481c-.19-1.531-1.913-15.003-1.253-17.329.582-2.046 2.987-4.002 3.837-4.639-.548-3.12-4.676-26.687-6.79-42.976-2.238-17.396-6.791-103.661-6.835-104.533l.648-23.478a.57.57 0 0 1 .56-.548h74.95a.56.56 0 0 1 .56.559v106.445c0 4.114-2.92 19.419-5.493 32.936-1.7 8.944-3.166 16.58-3.3 18.525-.168 2.583.604 6.339 1.354 9.973a46.5 46.5 0 0 1 1.252 8.217c0 4.528-1.118 16.323-1.118 16.826a.575.575 0 0 1-.504.503l-21.187 2.426zm-4.374-10.811c1.622.906 3.893 7.099 4.754 9.604l20.293-2.315c.201-2.236 1.118-12.298 1.118-16.267a46 46 0 0 0-1.23-7.993c-.761-3.712-1.555-7.536-1.376-10.275.134-2.012 1.611-9.726 3.356-18.659 2.45-12.79 5.481-28.71 5.481-32.724V310.804h-73.832l-.637 22.874c.089 1.789 4.597 87.204 6.835 104.421s6.79 43.01 6.835 43.267a.56.56 0 0 1-.235.548s-3.099 2.236-3.692 4.259c-.436 1.543.47 10.454 1.231 16.379l19.632-.246a88.2 88.2 0 0 0 3.121-23.12v-19.867c0-2.594 3.748-109.407 3.905-113.946a.555.555 0 0 1 .559-.537.58.58 0 0 1 .559.537l2.931 114.248c-.38 12.902-.57 33.808.392 35.653"/><path fill="#CFCFCF" d="M139.106 501.568s-6.936-5.903-10.068-5.388-5.906 2.303-6.164 3.074c-.257.771-2.047 2.314-2.561 3.846-.515 1.532-8.737 9.246-10.527 11.303s-3.088 2.303-1.544 3.589a7.44 7.44 0 0 0 3.356 1.543h29.354a16.45 16.45 0 0 0 .761-6.932c-.258-4.617-.761-9.76-.761-9.76z"/><path fill="#263238" d="M140.952 520.094h-29.331a7.93 7.93 0 0 1-3.692-1.677 2.02 2.02 0 0 1-.895-1.376c0-.648.47-1.118 1.119-1.755.335-.335.772-.738 1.219-1.252.615-.704 1.924-2.012 3.446-3.533 2.494-2.493 6.712-6.708 6.969-7.569a9.4 9.4 0 0 1 1.756-2.728q.47-.513.817-1.118c.369-1.118 3.546-2.94 6.6-3.454s9.643 4.818 10.46 5.5l1.778 1.275a.54.54 0 0 1 .224.402s.526 5.199.772 9.772a16.6 16.6 0 0 1-.817 7.188.56.56 0 0 1-.425.325m-11.399-23.389a1.6 1.6 0 0 0-.324 0c-3.021.503-5.594 2.236-5.728 2.706a6 6 0 0 1-1.007 1.475 8.6 8.6 0 0 0-1.566 2.371c-.358 1.118-3.222 4.002-7.249 8.016-1.499 1.498-2.797 2.806-3.356 3.477s-.928.972-1.286 1.319c-.358.346-.806.76-.806.917 0 .156 0 .167.492.559a6.9 6.9 0 0 0 3.066 1.408h28.805a18 18 0 0 0 .604-6.339c-.223-3.98-.649-8.396-.749-9.48l-1.589-1.118c-1.913-1.543-6.857-5.311-9.352-5.311z"/><path fill="#fff" d="M107.604 516.963c0 .302.179.615.683 1.029a7.44 7.44 0 0 0 3.356 1.543h29.309c.306-.83.512-1.693.615-2.572z"/><path fill="#263238" d="M140.953 520.094h-29.332a7.93 7.93 0 0 1-3.691-1.677 1.9 1.9 0 0 1-.884-1.487.573.573 0 0 1 .559-.526h33.918a.6.6 0 0 1 .425.19.58.58 0 0 1 .123.447c-.1.931-.322 1.844-.66 2.717a.56.56 0 0 1-.458.336m-32.307-2.572a6.9 6.9 0 0 0 3.065 1.409h28.805q.216-.717.347-1.454z"/><path fill="#CFCFCF" d="M158.851 501.568s6.936-5.903 10.068-5.388 5.907 2.303 6.164 3.074 2.058 2.314 2.573 3.846c.514 1.532 8.726 9.246 10.527 11.303s3.087 2.303 1.543 3.589a7.46 7.46 0 0 1-3.356 1.543h-29.376a16.3 16.3 0 0 1-.772-6.932c.258-4.617.772-9.76.772-9.76z"/><path fill="#263238" d="M156.994 520.094a.57.57 0 0 1-.515-.336 16.76 16.76 0 0 1-.816-7.189c.257-4.572.771-9.726.771-9.771a.56.56 0 0 1 .235-.402l1.779-1.275c.817-.682 7.249-6.015 10.448-5.5s6.243 2.359 6.612 3.454c.221.405.492.78.805 1.118a9.1 9.1 0 0 1 1.756 2.728c.303.895 4.475 5.076 6.981 7.569 1.521 1.52 2.83 2.829 3.445 3.533.448.514.873.917 1.22 1.252.671.637 1.118 1.118 1.118 1.755a1.99 1.99 0 0 1-.883 1.375 7.8 7.8 0 0 1-3.625 1.666zm.391-1.118h28.884a7.3 7.3 0 0 0 2.987-1.409c.47-.391.481-.548.481-.559s-.436-.581-.794-.917a21 21 0 0 1-1.298-1.319c-.492-.548-1.879-1.979-3.356-3.477-4.016-4.014-6.891-6.943-7.249-8.016a8.7 8.7 0 0 0-1.555-2.37 5.7 5.7 0 0 1-1.006-1.476c-.202-.481-2.719-2.236-5.728-2.706-2.316-.38-7.685 3.667-9.565 5.266l-1.588 1.118c-.112 1.118-.526 5.501-.75 9.481a18 18 0 0 0 .537 6.384"/><path fill="#fff" d="M190.297 516.963c0 .302-.179.615-.683 1.029a7.46 7.46 0 0 1-3.356 1.543h-29.264a10.5 10.5 0 0 1-.615-2.572z"/><path fill="#263238" d="M156.994 520.094a.57.57 0 0 1-.515-.336 11.3 11.3 0 0 1-.66-2.717.6.6 0 0 1 .134-.447.555.555 0 0 1 .426-.19h33.918a.57.57 0 0 1 .559.526 1.95 1.95 0 0 1-.884 1.487 7.84 7.84 0 0 1-3.624 1.665zm.391-1.118h28.884a7.3 7.3 0 0 0 2.987-1.409h-32.217q.126.716.346 1.409"/><path fill="#CFCFCF" d="m136.757 193.537-9.452 8.005 1.7 110.492h40.731s1.935-112.918 1.208-114.618-5.09-3.354-5.09-3.354z"/><path fill="#263238" d="M169.736 312.593h-40.731a.56.56 0 0 1-.559-.548l-1.701-110.503a.52.52 0 0 1 .202-.425l9.452-8.005a.7.7 0 0 1 .37-.134l29.085.492a.5.5 0 0 1 .19 0c.47.19 4.609 1.833 5.403 3.701.795 1.867-.839 95.969-1.118 114.84a.56.56 0 0 1-.167.423.57.57 0 0 1-.426.159m-40.183-1.118h39.635c.66-38.694 1.756-111.532 1.23-113.891-.436-1.006-3.054-2.359-4.676-2.996l-28.783-.481-9.095 7.692z"/><path fill="#B2B2B2" d="m193.876 240.739 7.014-33.596c-1.421-1.677-35.037-13.114-35.037-13.114l-1.879 55.173-2.886 91.564h34.276s-1.499-37.497-3.099-47.738-.85-31.204 1.611-52.289"/><path fill="#263238" d="M195.365 341.325h-34.276a.574.574 0 0 1-.56-.581l2.887-91.564 1.879-55.173a.57.57 0 0 1 .246-.436.514.514 0 0 1 .492-.068c5.594 1.912 33.829 11.572 35.294 13.282a.5.5 0 0 1 .112.47l-7.014 33.54c-2.528 21.689-3.166 42.137-1.6 52.11 1.589 10.151 3.088 47.425 3.099 47.805a.51.51 0 0 1-.157.403.54.54 0 0 1-.402.212m-33.695-1.118h33.113c-.19-4.796-1.6-37.699-3.065-47.101-1.578-10.062-.951-30.644 1.6-52.434l6.924-33.317c-2.36-1.531-21.467-8.317-33.884-12.555l-1.857 54.413z"/><path fill="#263238" d="M165.708 271.92a.6.6 0 0 1-.302-.089.6.6 0 0 1-.158-.155.567.567 0 0 1 .001-.628 43 43 0 0 0 3.927-7.826.57.57 0 0 1 .727-.313.57.57 0 0 1 .313.727 44.5 44.5 0 0 1-4.038 8.038.58.58 0 0 1-.47.246M171.38 259.376h-.179a.557.557 0 0 1-.347-.704c4.721-13.998 7.584-32.031 7.931-34.334l-7.26-8.776a.56.56 0 0 1 0-.738l4.475-4.808-5.594-12.298a.57.57 0 0 1-.034-.442.55.55 0 0 1 .299-.328.565.565 0 0 1 .632.121q.08.083.121.191l5.694 12.667a.54.54 0 0 1-.1.615l-4.352 4.718 7.115 8.597a.55.55 0 0 1 .123.436c0 .19-2.965 19.766-8.021 34.77a.56.56 0 0 1-.503.313"/><path fill="#B2B2B2" d="M133.983 166.75s-3.054-4.226-5.258-1.185 6.097 13.416 6.097 13.416z"/><path fill="#263238" d="M134.822 179.506a.6.6 0 0 1-.436-.212c-.873-1.118-8.491-10.755-6.108-14.054a2.8 2.8 0 0 1 .984-.956 2.8 2.8 0 0 1 1.32-.374c2.014 0 3.781 2.415 3.848 2.516a.57.57 0 0 1 .112.29l.817 12.164a.55.55 0 0 1-.347.559.46.46 0 0 1-.19.067m-4.24-14.478a1.74 1.74 0 0 0-1.398.872c-1.264 1.733 2.036 7.301 4.956 11.236l-.705-10.174c-.492-.637-1.734-1.934-2.853-1.934"/><path fill="#B2B2B2" d="M169.221 166.75s3.043-4.226 5.247-1.185-6.097 13.416-6.097 13.416z"/><path fill="#263238" d="M168.371 179.506a.4.4 0 0 1-.201 0 .56.56 0 0 1-.358-.559l.85-12.186a.57.57 0 0 1 .101-.291c.078-.1 1.834-2.515 3.848-2.515a2.83 2.83 0 0 1 2.315 1.33c2.383 3.298-5.246 12.969-6.119 14.053a.56.56 0 0 1-.436.168m1.398-12.544-.716 10.174c2.931-3.935 6.22-9.503 4.967-11.236a1.73 1.73 0 0 0-1.409-.872c-1.108 0-2.349 1.297-2.842 1.934"/><path fill="#B2B2B2" d="M133.301 164.346s1.868 19.476 2.237 22.863 1.522 10.666 2.875 13.204c1.354 2.538 10.683 12.018 13.223 11.012 2.539-1.006 11.343-10.163 13.715-12.868s1.532-7.625 1.868-8.81c.335-1.185 1.7-12.835 1.7-12.835l.85-12.354s.336-1.185-.167-8.809c-.504-7.625-.515-11.002-1.354-12.869s-3.054-2.873-6.947-3.89c-3.893-1.018-13.211-.85-19.017 2.035-5.806 2.884-8.648 6.942-8.815 8.463-.168 1.52-.168 14.858-.168 14.858"/><path fill="#263238" d="M151.222 212.073c-3.569 0-12.182-9.201-13.335-11.358-1.476-2.762-2.64-10.376-2.942-13.416-.335-3.354-2.237-22.864-2.237-22.864v-.089c0-.548 0-13.416.179-14.959.213-1.923 3.501-6.093 9.106-8.944 5.806-2.895 15.191-3.164 19.375-2.079 3.781.995 6.321 2.034 7.305 4.203.716 1.566.85 3.958 1.119 8.721.067 1.274.156 2.716.268 4.349.448 6.775.235 8.541.168 8.944l-.85 12.298c-.134 1.218-1.365 11.783-1.712 12.98a8.5 8.5 0 0 0-.078 1.531c0 2.136 0 5.356-1.902 7.48-2.338 2.672-11.186 11.951-13.938 13.025a1.6 1.6 0 0 1-.526.178m-17.362-47.727c.079.805 1.868 19.52 2.238 22.83s1.499 10.531 2.819 13.002c1.432 2.694 10.47 11.549 12.506 10.744 2.361-.939 11.053-9.917 13.514-12.712 1.588-1.822 1.611-4.796 1.622-6.764a7.8 7.8 0 0 1 .123-1.833c.268-.928 1.298-9.537 1.678-12.779l.839-12.298a.4.4 0 0 1 0-.112s.291-1.397-.19-8.62c-.112-1.632-.19-3.074-.269-4.349-.268-4.472-.414-6.954-1.04-8.317-.705-1.543-2.484-2.516-6.578-3.589-3.904-1.018-13.088-.749-18.581 1.99-5.739 2.873-8.368 6.853-8.502 8.027s-.179 10.174-.179 14.78"/><path fill="#263238" d="M140.751 160.377a.5.5 0 0 1-.302-.101.55.55 0 0 1-.242-.352.6.6 0 0 1 0-.218.6.6 0 0 1 .085-.201c2.517-3.846 6.925-2.448 8.95-1.118a.56.56 0 0 1 .248.35.54.54 0 0 1-.08.421.563.563 0 0 1-.772.168c-.19-.123-4.822-3.03-7.361.85a.54.54 0 0 1-.526.201M163.326 160.545a.56.56 0 0 1-.369-.134 5.227 5.227 0 0 0-6.433-.817.558.558 0 0 1-.637-.916 6.4 6.4 0 0 1 7.83.883.53.53 0 0 1 .198.379.536.536 0 0 1-.142.404.52.52 0 0 1-.447.201M155.327 174.933l-6.444-.682a.557.557 0 0 1-.492-.614.54.54 0 0 1 .203-.377.54.54 0 0 1 .412-.115l5.862.615c.123-1.61.425-6.228.291-8.665a8.4 8.4 0 0 0-.917-3.947.56.56 0 0 1-.096-.419.58.58 0 0 1 .23-.363.55.55 0 0 1 .2-.089.562.562 0 0 1 .583.223 9.23 9.23 0 0 1 1.118 4.528c.168 3.052-.313 9.134-.335 9.391a.55.55 0 0 1-.201.38.54.54 0 0 1-.414.134M152.485 179.763a8.86 8.86 0 0 1-7.461-3.577.546.546 0 0 1 .179-.761.56.56 0 0 1 .622.02q.09.065.15.159c.123.201 3.121 4.83 10.694 2.303a.57.57 0 0 1 .608.165.55.55 0 0 1 .071.617.57.57 0 0 1-.321.28 14.3 14.3 0 0 1-4.542.794M146.545 163.787c0 .984-.447 1.778-1.018 1.778-.57 0-1.006-.794-1.006-1.778s.447-1.778 1.006-1.778c.56 0 1.018.805 1.018 1.778"/><path fill="#828282" d="M160.921 163.787c0 .984-.459 1.778-1.018 1.778-.56 0-1.018-.794-1.018-1.778s.458-1.778 1.018-1.778c.559 0 1.018.805 1.018 1.778"/><path fill="#263238" d="M159.903 166.124c-.907 0-1.578-.995-1.578-2.337s.671-2.337 1.578-2.337c.906 0 1.577 1.007 1.577 2.337s-.683 2.337-1.577 2.337m0-3.556c-.112 0-.459.436-.459 1.219s.347 1.219.459 1.219c.111 0 .458-.425.458-1.219s-.391-1.219-.458-1.219M143.123 169.343a.565.565 0 0 1-.627-.491.56.56 0 0 1 .117-.415.56.56 0 0 1 .375-.212 11.2 11.2 0 0 0 4.475-2.56.56.56 0 0 1 .794 0 .56.56 0 0 1 0 .783 12 12 0 0 1-5 2.862zM157.866 166.079a8.6 8.6 0 0 0 4.408 2.705zM150.863 194.532c-3.915 0-5.526-1.878-5.593-1.99a.57.57 0 0 1-.127-.409.56.56 0 0 1 .609-.506.56.56 0 0 1 .379.199c.056.068 3.166 3.489 11.556 0a.575.575 0 0 1 .727.302.54.54 0 0 1-.119.608.5.5 0 0 1-.183.119 18.9 18.9 0 0 1-7.249 1.677"/><path fill="#263238" d="M131.444 148.47s.503 17.095 1.007 17.441 2.036.671 2.371-.514a33 33 0 0 0 .179-5.59s1.69-.179 2.025-2.885c.336-2.705-1.186-7.445-1.186-7.445a46.8 46.8 0 0 1 11.858-6.093c5.761-1.7 8.815.838 12.373 1.006a8.37 8.37 0 0 0 5.761-1.856s-1.701 2.538-1.701 3.723 2.238 7.446 1.869 9.313c-.37 1.867-.683 3.89.335 4.572a265 265 0 0 1 2.238 1.521s0 4.572.682 4.908c.682.335 1.857-1.521 2.025-4.059.168-2.537.179-8.63 1.018-10.498s2.237-3.219 1.186-5.925-4.576-5.076-5.079-5.255c-.504-.178-6.947-8.463-15.248-10.486s-21.512 9.816-22.865 13.539c-1.354 3.723 1.152 4.583 1.152 4.583"/><path fill="#263238" d="M169.389 167.186a.95.95 0 0 1-.425-.101c-.235-.123-.951-.481-.985-5.12a81 81 0 0 0-1.957-1.353c-1.343-.895-.918-3.242-.571-5.132.179-1.028-.593-3.913-1.119-6.026a17.7 17.7 0 0 1-.716-3.186c.081-.735.31-1.446.672-2.091a9.04 9.04 0 0 1-4.195.783 15.2 15.2 0 0 1-3.647-.738 13.75 13.75 0 0 0-8.547-.291 45.7 45.7 0 0 0-11.421 5.78c.358 1.219 1.376 4.931 1.118 7.29-.268 2.18-1.353 2.951-2.013 3.22.097 1.78.03 3.565-.202 5.332a1.61 1.61 0 0 1-1.018 1.118 2.66 2.66 0 0 1-2.237-.29c-.302-.19-.75-.492-1.264-17.542a3.1 3.1 0 0 1-1.242-1.341 4.78 4.78 0 0 1 .09-3.779c1.42-3.924 14.979-15.987 23.492-13.897 6.891 1.688 12.506 7.569 14.621 9.783.324.346.671.704.76.771.548.168 4.262 2.672 5.336 5.59a5.581 5.581 0 0 1-.671 5.311c-.179.335-.358.682-.526 1.051-.604 1.33-.76 5.355-.861 8.027 0 .883-.067 1.677-.112 2.236-.134 2.046-.917 3.924-1.857 4.472a1.2 1.2 0 0 1-.503.123m-3.558-25.2a.56.56 0 0 1 .491.299.55.55 0 0 1-.032.573 10 10 0 0 0-1.6 3.41q.24 1.471.683 2.896c.794 2.973 1.387 5.332 1.118 6.518-.257 1.397-.637 3.51.101 4.002 1.018.682 2.237 1.543 2.237 1.543a.54.54 0 0 1 .235.447 18.8 18.8 0 0 0 .381 4.327 5.8 5.8 0 0 0 1.208-3.511c0-.592.078-1.375.112-2.236.112-3.086.268-6.92.962-8.452.168-.38.369-.749.559-1.118.75-1.375 1.331-2.46.604-4.394-.939-2.526-4.329-4.762-4.732-4.908-.223-.078-.38-.246-1.118-1.017-2.048-2.147-7.507-7.826-14.073-9.47-7.831-1.923-20.897 9.582-22.217 13.193a3.82 3.82 0 0 0-.134 2.895c.197.432.548.775.984.962a.59.59 0 0 1 .381.503c.167 5.97.57 15.652.894 17.061.348.168.745.208 1.119.112a.51.51 0 0 0 .325-.369c.207-1.8.26-3.614.156-5.423a.55.55 0 0 1 .504-.57s1.252-.201 1.532-2.392c.313-2.561-1.119-7.167-1.119-7.212a.546.546 0 0 1 .202-.626 47.3 47.3 0 0 1 12.026-6.171 14.85 14.85 0 0 1 9.161.291c1.089.361 2.215.597 3.356.704a7.9 7.9 0 0 0 5.359-1.722.56.56 0 0 1 .335-.145"/><path fill="#B2B2B2" d="M132.641 238.861c.481-16.48 4.116-45.324 4.116-45.324s-36.614 12.141-38.034 12.868c0 0 1.23 5.803 1.208 5.825l7.976 46.028s1.656 20.001-1.007 31.147c-2.662 11.147-5.291 51.484-5.291 51.484l32.24.973s-1.689-86.533-1.208-103.001"/><path fill="#263238" d="m133.848 342.399-32.251-.973a.54.54 0 0 1-.391-.179.5.5 0 0 1-.146-.413c0-.403 2.651-40.517 5.303-51.585 2.651-11.068 1.029-30.767 1.029-30.991l-7.999-45.961c0-.246-.391-1.934-.66-3.175-.637-3.007-.637-3.007-.235-3.198 1.466-.737 36.648-12.398 38.147-12.89a.56.56 0 0 1 .526.101.57.57 0 0 1 .201.503c0 .29-3.636 28.989-4.117 45.256-.481 16.278 1.197 102.096 1.209 102.957a.57.57 0 0 1-.168.414.569.569 0 0 1-.448.134m-31.647-2.069 31.077.928c-.146-7.647-1.656-86.835-1.197-102.42.436-14.701 3.356-39.521 4.016-44.485-10.147 3.354-33.348 11.091-36.77 12.388l.447 2.124c.414 1.956.604 2.84.637 3.276l8.099 46.005c0 .246 1.645 20.258-1.018 31.304-2.505 10.308-4.955 45.95-5.291 50.88"/><path fill="#263238" d="M130.962 271.529a.54.54 0 0 1-.525-.369 177 177 0 0 1-7.618-27.682.568.568 0 1 1 1.118-.212 174.3 174.3 0 0 0 7.562 27.514.555.555 0 0 1-.335.715zM122.607 239.498a.57.57 0 0 1-.56-.481 108 108 0 0 1-1.409-13.304.56.56 0 0 1 .156-.391l7.831-8.162-4.229-3.51a.57.57 0 0 1-.156-.638l5.85-14.835a.57.57 0 0 1 .728-.313.56.56 0 0 1 .353.512.6.6 0 0 1-.04.214l-5.705 14.456 4.374 3.645a.54.54 0 0 1 .14.175.55.55 0 0 1-.096.641l-8.032 8.418c.211 4.332.674 8.647 1.387 12.924a.55.55 0 0 1-.254.564.6.6 0 0 1-.204.074z"/><path fill="#CFCFCF" d="m136.242 210.016 4.139 12.119 11.22-10.688 8.916 11.527 3.904-10.364"/><path fill="#263238" d="M160.517 223.522a.596.596 0 0 1-.447-.213l-8.536-11.023-10.772 10.263a.57.57 0 0 1-.515.134.52.52 0 0 1-.391-.357l-4.139-12.142a.57.57 0 0 1 .346-.715.56.56 0 0 1 .705.346l3.859 11.303 10.583-10.062a.6.6 0 0 1 .65-.084.54.54 0 0 1 .178.151l8.312 10.722 3.546-9.414a.547.547 0 0 1 .716-.324.56.56 0 0 1 .335.716l-3.859 10.341a.58.58 0 0 1-.448.358z"/><path fill="#263238" d="m155.92 217.731-5.068 9.044-5.817-9.112 6.567-6.216z"/><path fill="#263238" d="M150.852 227.334a.56.56 0 0 1-.47-.257l-5.828-9.067a.57.57 0 0 1 .09-.716l6.566-6.204a.6.6 0 0 1 .207-.122q.117-.038.238-.025a.57.57 0 0 1 .405.236l4.318 6.283a.52.52 0 0 1 0 .582l-5.067 9.044a.55.55 0 0 1-.47.291zm-5.101-9.581 5.068 7.938 4.474-7.927-3.747-5.456z"/><path fill="#263238" d="m150.852 226.775-11.298 70.658 10.068 12.98 7.853-13.226z"/><path fill="#263238" d="M149.622 310.972a.6.6 0 0 1-.247-.058.6.6 0 0 1-.201-.155l-10.068-12.991a.58.58 0 0 1-.112-.425l11.288-70.657a.527.527 0 0 1 .57-.47.56.56 0 0 1 .537.503l6.634 70.434a.57.57 0 0 1-.079.336l-7.83 13.237a.56.56 0 0 1-.19.191.56.56 0 0 1-.258.077zm-9.476-13.696 9.42 12.142 7.338-12.365-6.197-65.839zM493.88 106.601c-6.765.002-13.378-2-19.004-5.755a34.2 34.2 0 0 1-12.6-15.338 34.16 34.16 0 0 1 7.411-37.251 34.219 34.219 0 0 1 37.274-7.407 34.2 34.2 0 0 1 15.346 12.593 34.16 34.16 0 0 1 5.759 18.992 34.2 34.2 0 0 1-10.026 24.146 34.24 34.24 0 0 1-24.16 10.02m0-67.225a33.1 33.1 0 0 0-18.381 5.566 33.06 33.06 0 0 0-12.188 14.834 33.05 33.05 0 0 0 7.163 36.031 33.093 33.093 0 0 0 50.898-5.004 33.05 33.05 0 0 0 5.576-18.368 33.1 33.1 0 0 0-9.698-23.36 33.14 33.14 0 0 0-23.37-9.7"/><path fill="#0499F2" d="M493.712 89.73h-.156a3.88 3.88 0 0 1-3.244-1.967l-12.999-22.718a3.9 3.9 0 0 1-.377-2.971 3.92 3.92 0 0 1 3.286-2.85 3.92 3.92 0 0 1 3.892 1.942l9.878 17.262 28.425-41.858a3.92 3.92 0 0 1 6.489 4.394L496.945 88.02a3.91 3.91 0 0 1-3.233 1.71"/><path fill="#263238" d="M493.712 90.29h-.179a4.48 4.48 0 0 1-3.714-2.236l-12.988-22.73a4.48 4.48 0 0 1 1.65-6.12 4.487 4.487 0 0 1 6.125 1.649l9.43 16.49 27.9-41.12a4.46 4.46 0 0 1 2.865-1.933 4.477 4.477 0 0 1 5.278 3.578 4.47 4.47 0 0 1-.738 3.375l-31.926 47.079a4.48 4.48 0 0 1-3.703 1.968m-12.999-30.544a3.26 3.26 0 0 0-1.656.447 3.356 3.356 0 0 0-1.252 4.573l12.987 22.718a3.36 3.36 0 0 0 2.786 1.688h.134a3.36 3.36 0 0 0 2.774-1.465l31.927-47.068a3.352 3.352 0 0 0-2.091-5.16 3.36 3.36 0 0 0-3.458 1.404L494.45 78.74a.5.5 0 0 1-.481.246.56.56 0 0 1-.47-.28l-9.866-17.217a3.35 3.35 0 0 0-2.92-1.744"/></svg>