<svg xmlns="http://www.w3.org/2000/svg" width="20" height="14" fill="none"><g clip-path="url(#a)"><path fill="#F93" d="M1.092 0h17.816A1.097 1.097 0 0 1 20 1.09V12.72c0 .6-.495 1.09-1.099 1.09H1.092A1.1 1.1 0 0 1 0 12.72V1.09C0 .493.49.003 1.092 0"/><path fill="#fff" d="M0 4.603h20v4.604H0z"/><path fill="#128807" d="M0 9.207h20v3.512c0 .6-.495 1.09-1.099 1.09H1.092A1.1 1.1 0 0 1 0 12.72z"/><path fill="#008" d="M11.856 6.905c0-1.018-.83-1.842-1.856-1.842a1.85 1.85 0 0 0-1.855 1.842c0 1.016.83 1.842 1.855 1.842a1.85 1.85 0 0 0 1.855-1.842"/><path fill="#fff" d="M11.622 6.905c0-.89-.726-1.61-1.622-1.61s-1.623.72-1.623 1.61.726 1.61 1.623 1.61c.896 0 1.622-.72 1.622-1.61"/><path fill="#008" d="M10.324 6.905a.324.324 0 0 0-.648 0c0 .177.145.321.324.321a.323.323 0 0 0 .324-.321M11.69 7.126a.08.08 0 0 0-.07-.09.08.08 0 0 0-.092.07.081.081 0 0 0 .161.02"/><path fill="#008" d="m10 8.516.055-.967L10 7.09l-.056.46z"/><path fill="#000" d="M11.574 7.553a.081.081 0 0 0-.15-.061.08.08 0 0 0 .044.104.08.08 0 0 0 .106-.043M9.58 8.46l.306-.919.067-.458-.174.43zM11.353 7.936a.08.08 0 0 0-.015-.114.08.08 0 0 0-.114.015.08.08 0 0 0 .015.113c.036.028.086.02.114-.014M9.188 8.3l.535-.809.184-.426-.28.37zM11.036 8.247a.08.08 0 0 0 .015-.113.08.08 0 0 0-.114-.014.08.08 0 0 0-.015.113c.028.034.08.042.114.014M8.853 8.044l.727-.645.288-.363-.366.286zM10.652 8.469c.04-.018.062-.065.044-.105a.08.08 0 0 0-.106-.044.08.08 0 0 0-.043.105c.016.04.063.06.105.044M8.594 7.71l.872-.435.373-.278-.43.182zM10.223 8.582a.083.083 0 0 0 .07-.09.083.083 0 0 0-.092-.07.083.083 0 0 0-.07.09.08.08 0 0 0 .091.07M8.433 7.322l.955-.198.433-.17-.462.064zM9.777 8.582a.08.08 0 0 0 .09-.07.08.08 0 0 0-.07-.09.08.08 0 0 0-.09.07.08.08 0 0 0 .07.09M8.377 6.905l.973.055.464-.055-.464-.055zM9.348 8.469c.04.017.089-.004.105-.044a.081.081 0 0 0-.15-.061.08.08 0 0 0 .045.105M8.433 6.488l.926.304.462.066-.433-.173zM8.961 8.247a.08.08 0 0 0 .114-.014.081.081 0 0 0-.129-.099.083.083 0 0 0 .015.113M8.594 6.099l.815.531.43.183-.373-.278zM8.648 7.936a.081.081 0 0 0 .128-.099.081.081 0 0 0-.128.099M8.853 5.766l.649.722.366.288-.288-.366zM8.425 7.553c.018.04.065.06.105.043.041-.018.062-.064.044-.105a.08.08 0 0 0-.15.061M9.188 5.509l.439.866.28.37-.184-.425zM8.31 7.126a.083.083 0 0 0 .092.07.083.083 0 0 0 .07-.09.083.083 0 0 0-.092-.07.08.08 0 0 0-.07.09M9.58 5.349l.199.948.174.43-.067-.459zM8.31 6.683a.08.08 0 0 0 .07.09.08.08 0 0 0 .092-.069.081.081 0 0 0-.162-.02M10 5.294l-.056.966.056.46.055-.46zM8.426 6.257a.08.08 0 0 0 .044.105c.041.016.09-.003.106-.044a.08.08 0 0 0-.044-.105.08.08 0 0 0-.106.044M10.42 5.349l-.306.92-.067.458.174-.43zM8.647 5.876a.08.08 0 0 0 .015.113.08.08 0 0 0 .114-.015.08.08 0 0 0-.015-.113.08.08 0 0 0-.114.015M10.812 5.509l-.535.81-.184.426.28-.37zM8.963 5.562a.08.08 0 0 0-.014.113.081.081 0 0 0 .128-.098.083.083 0 0 0-.114-.015M11.148 5.766l-.728.644-.288.366.366-.288zM9.348 5.343a.08.08 0 0 0-.044.105c.017.04.065.06.105.043.041-.018.062-.064.044-.105a.08.08 0 0 0-.105-.043M11.406 6.099l-.872.436-.373.278.43-.183zM9.777 5.228a.083.083 0 0 0-.07.09.083.083 0 0 0 .09.07.08.08 0 0 0 .07-.09.08.08 0 0 0-.09-.07M11.567 6.488l-.955.197-.433.173.462-.066zM10.223 5.228a.08.08 0 0 0-.091.07.08.08 0 0 0 .07.09.08.08 0 0 0 .09-.07.08.08 0 0 0-.07-.09M11.623 6.905l-.974-.055-.463.055.463.055zM10.652 5.343a.08.08 0 0 0-.105.043.08.08 0 0 0 .043.105c.041.016.09-.003.106-.043a.08.08 0 0 0-.044-.105M11.567 7.322l-.926-.304-.462-.065.433.171zM11.036 5.562a.08.08 0 0 0-.114.015.08.08 0 0 0 .015.113.08.08 0 0 0 .114-.015.08.08 0 0 0-.015-.113M11.406 7.71l-.815-.53-.43-.183.373.278zM11.353 5.876a.08.08 0 0 0-.114-.015.08.08 0 0 0-.015.113.081.081 0 0 0 .129-.098M11.148 8.044l-.65-.722-.366-.286.288.363zM11.575 6.257a.08.08 0 0 0-.106-.044c-.04.018-.061.065-.044.105s.066.06.106.044a.08.08 0 0 0 .044-.105M10.812 8.3l-.44-.865-.28-.37.185.426zM11.689 6.683a.083.083 0 0 0-.091-.07.083.083 0 0 0-.07.091.083.083 0 0 0 .091.07.08.08 0 0 0 .07-.09M10.42 8.46l-.199-.946-.174-.431.067.458z"/></g><defs><clipPath id="a"><path fill="#fff" d="M0 0h20v13.809H0z"/></clipPath></defs></svg>