<svg
                      width="50"
                      height="85"
                      viewBox="0 0 50 85"
                      fill="none"
                      xmlns="http://www.w3.org/2000/svg"
                    >
                      <path
                        d="M14.8461 55.2456C14.8461 55.2456 2.22238 34.2937 12.3558 22.5023C22.4892 10.711 38.8621 16.3859 42.2399 27.3034C45.6177 38.221 38.4546 56.561 38.4546 56.561L14.8461 55.2456Z"
                        fill="white"
                        stroke="#242426"
                        stroke-linecap="round"
                        stroke-linejoin="round"
                      />
                      <path
                        d="M15.2626 31.2305C13.1617 31.2305 5.16539 28.1769 2.63883 24.2496C0.112266 20.3223 -0.32241 11.5845 6.84977 11.5845C14.022 11.5845 16.5304 24.6818 16.5304 24.6818L16.947 29.4829"
                        fill="white"
                      />
                      <path
                        d="M15.2626 31.2305C13.1617 31.2305 5.16539 28.1769 2.63883 24.2496C0.112266 20.3223 -0.32241 11.5845 6.84977 11.5845C14.022 11.5845 16.5304 24.6818 16.5304 24.6818L16.947 29.4829"
                        stroke="#242426"
                        stroke-linecap="round"
                        stroke-linejoin="round"
                      />
                      <path
                        d="M21.738 23.0753C19.8544 22.1357 14.0134 15.6716 13.4429 10.9833C12.8724 6.29492 16.2593 -1.71004 22.6617 1.58778C29.0641 4.8856 25.6863 17.795 25.6863 17.795L23.9929 22.2861"
                        fill="white"
                      />
                      <path
                        d="M21.738 23.0753C19.8544 22.1357 14.0134 15.6716 13.4429 10.9833C12.8724 6.29492 16.2593 -1.71004 22.6617 1.58778C29.0641 4.8856 25.6863 17.795 25.6863 17.795L23.9929 22.2861"
                        stroke="#242426"
                        stroke-linecap="round"
                        stroke-linejoin="round"
                      />
                      <path
                        d="M29.3807 25.2739C28.3302 23.3948 26.9175 14.6663 28.946 10.4384C30.9745 6.21039 38.0743 1.49385 41.6241 7.93916C45.174 14.3845 35.4752 23.1599 35.4752 23.1599L31.6628 25.9221"
                        fill="white"
                      />
                      <path
                        d="M29.3807 25.2739C28.3302 23.3948 26.9175 14.6663 28.946 10.4384C30.9745 6.21039 38.0743 1.49385 41.6241 7.93916C45.174 14.3845 35.4752 23.1599 35.4752 23.1599L31.6628 25.9221"
                        stroke="#242426"
                        stroke-linecap="round"
                        stroke-linejoin="round"
                      />
                      <path
                        d="M31.8892 40.9267C31.5451 38.7657 33.1208 30.0843 36.4171 26.8334C39.7134 23.5826 47.9632 21.7129 49.1495 29.032C50.3358 36.3511 38.2826 41.1146 38.2826 41.1146L33.7547 42.336"
                        fill="white"
                      />
                      <path
                        d="M31.8892 40.9267C31.5451 38.7657 33.1208 30.0843 36.4171 26.8334C39.7134 23.5826 47.9632 21.7129 49.1495 29.032C50.3358 36.3511 38.2826 41.1146 38.2826 41.1146L33.7547 42.336"
                        stroke="#242426"
                        stroke-linecap="round"
                        stroke-linejoin="round"
                      />
                      <path
                        d="M3.5625 18.979L4.98426 21.2997"
                        stroke="white"
                        stroke-linecap="round"
                        stroke-linejoin="round"
                      />
                      <path
                        d="M7.62891 24.6724L9.85663 26.5609"
                        stroke="white"
                        stroke-linecap="round"
                        stroke-linejoin="round"
                      />
                      <path
                        d="M5.19238 14.5535L7.42011 17.9264"
                        stroke="white"
                        stroke-linecap="round"
                        stroke-linejoin="round"
                      />
                      <path
                        d="M10.4717 20.6702L12.9077 25.3021"
                        stroke="white"
                        stroke-linecap="round"
                        stroke-linejoin="round"
                      />
                      <path
                        d="M16.1504 9.49878L16.9654 12.0262"
                        stroke="white"
                        stroke-linecap="round"
                        stroke-linejoin="round"
                      />
                      <path
                        d="M18.9941 16.6582L20.4159 18.7722"
                        stroke="white"
                        stroke-linecap="round"
                        stroke-linejoin="round"
                      />
                      <path
                        d="M18.3867 4.44409L20.216 8.65328"
                        stroke="white"
                        stroke-linecap="round"
                        stroke-linejoin="round"
                      />
                      <path
                        d="M11.2783 34.1526L11.8941 37.939"
                        stroke="white"
                        stroke-linecap="round"
                        stroke-linejoin="round"
                      />
                      <path
                        d="M13.1074 41.5188L13.9224 44.6851"
                        stroke="white"
                        stroke-linecap="round"
                        stroke-linejoin="round"
                      />
                      <path
                        d="M15.1357 34.3591L15.9508 38.5683"
                        stroke="white"
                        stroke-linecap="round"
                        stroke-linejoin="round"
                      />
                      <path
                        d="M17.7803 41.5188L18.387 44.6851"
                        stroke="white"
                        stroke-linecap="round"
                        stroke-linejoin="round"
                      />
                      <path
                        d="M19.2021 28.8816L20.4156 34.782"
                        stroke="white"
                        stroke-linecap="round"
                        stroke-linejoin="round"
                      />
                      <path
                        d="M22.0449 40.4663L22.2442 43.2098"
                        stroke="white"
                        stroke-linecap="round"
                        stroke-linejoin="round"
                      />
                      <path
                        d="M24.2734 26.9839L25.2877 32.4614"
                        stroke="white"
                        stroke-linecap="round"
                        stroke-linejoin="round"
                      />
                      <path
                        d="M25.2871 38.155L25.6946 43.8393"
                        stroke="white"
                        stroke-linecap="round"
                        stroke-linejoin="round"
                      />
                      <path
                        d="M30.168 29.0884V33.7298"
                        stroke="white"
                        stroke-linecap="round"
                        stroke-linejoin="round"
                      />
                      <path
                        d="M29.5527 39.6304L29.761 43.2101"
                        stroke="white"
                        stroke-linecap="round"
                        stroke-linejoin="round"
                      />
                      <path
                        d="M35.2398 7.17822L34.2256 9.71502"
                        stroke="white"
                        stroke-linecap="round"
                        stroke-linejoin="round"
                      />
                      <path
                        d="M33.818 12.6558L32.8037 16.2448"
                        stroke="white"
                        stroke-linecap="round"
                        stroke-linejoin="round"
                      />
                      <path
                        d="M39.704 12.0261L38.083 15.3991"
                        stroke="white"
                        stroke-linecap="round"
                        stroke-linejoin="round"
                      />
                      <path
                        d="M34.633 19.1951L32.8037 21.2996"
                        stroke="white"
                        stroke-linecap="round"
                        stroke-linejoin="round"
                      />
                      <path
                        d="M30.7747 11.8193L30.168 14.5534"
                        stroke="white"
                        stroke-linecap="round"
                        stroke-linejoin="round"
                      />
                      <path
                        d="M39.7043 26.9839L37.4766 30.7796"
                        stroke="white"
                        stroke-linecap="round"
                        stroke-linejoin="round"
                      />
                      <path
                        d="M36.0546 33.0911L34.832 36.464"
                        stroke="white"
                        stroke-linecap="round"
                        stroke-linejoin="round"
                      />
                      <path
                        d="M37.8838 38.155L41.5333 36.041"
                        stroke="white"
                        stroke-linecap="round"
                        stroke-linejoin="round"
                      />
                      <path
                        d="M43.7707 26.9839L41.9414 30.1502"
                        stroke="white"
                        stroke-linecap="round"
                        stroke-linejoin="round"
                      />
                      <path
                        d="M45.6001 30.5635L43.1641 32.4614"
                        stroke="white"
                        stroke-linecap="round"
                        stroke-linejoin="round"
                      />
                      <path
                        d="M42.9738 47.9355H8.45312V83.7512H42.9738V47.9355Z"
                        fill="#242426"
                        stroke="#242426"
                        stroke-linecap="round"
                        stroke-linejoin="round"
                      />
                    </svg>
