<svg xmlns="http://www.w3.org/2000/svg" width="280" height="209" fill="none"><g clip-path="url(#a)"><path fill="url(#b)" d="M152.343 21.316c3.652 0 6.612-2.966 6.612-6.624s-2.96-6.623-6.612-6.623c-3.651 0-6.611 2.965-6.611 6.623s2.96 6.624 6.611 6.624"/><path fill="#fff" d="M151.689 17.219a.7.7 0 0 1-.412-.138l-.008-.005-1.553-1.19a.692.692 0 0 1 .84-1.099l1.006.773 2.378-3.108a.69.69 0 0 1 .968-.128l-.015.02.016-.02a.693.693 0 0 1 .127.97l-2.797 3.654a.69.69 0 0 1-.549.27z"/><path fill="url(#c)" d="M152.343 66.092c3.652 0 6.612-2.965 6.612-6.623s-2.96-6.624-6.612-6.624c-3.651 0-6.611 2.966-6.611 6.624s2.96 6.623 6.611 6.623"/><path fill="#fff" d="M151.689 61.995a.7.7 0 0 1-.412-.137l-.008-.005-1.553-1.191a.692.692 0 0 1 .84-1.098l1.006.773 2.378-3.108a.69.69 0 0 1 .968-.128l-.015.02.016-.02a.693.693 0 0 1 .127.97l-2.797 3.654a.69.69 0 0 1-.549.27z"/><path fill="#FFB7B7" d="M168.946 129.068a3.757 3.757 0 0 1 4.263-3.871l6.055-11.902 3.421 6.037-6.274 10.376a3.772 3.772 0 0 1-7.465-.64M197.174 204.01h-4.751l-2.261-18.362h7.013z"/><path fill="#444446" d="m198.386 208.625-15.322-.001v-.194c.001-3.299 2.671-5.974 5.964-5.974h9.358z"/><path fill="#FFB7B7" d="M222.934 204.01h-4.752l-2.26-18.362h7.013z"/><path fill="#444446" d="m224.146 208.625-15.322-.001v-.194a5.97 5.97 0 0 1 5.964-5.974h9.358z"/><path fill="#D1D1D6" d="m176.244 118.709-2.074 3.464s3.457 0 4.149 5.196l2.765-3.464z"/><path fill="#444446" d="M212.546 111.436s5.532 14.547 6.569 23.553 2.766 32.905 2.766 32.905l3.457 30.827-9.68 1.385-4.149-31.173-9.334-30.827-2.075 30.827-1.728 28.056-8.989.346-.691-29.095-3.803-37.061 2.074-17.665z"/><path fill="#D1D1D6" d="m205.804 67.274 3.457 2.424 4.494 45.375-28.003.692 3.803-31.52 3.457-9.005 2.496-3.305z"/><path fill="#444446" d="m206.496 99.832 1.058-31.332s2.054.159 2.745 1.198c.691 1.04 12.1 3.118 12.1 3.118l-2.074 32.212s8.643 25.631 5.532 27.017-8.644 1.039-8.644 1.039zM189.728 95.85l3.667-21.117-8.162 5.53 2.075 15.24-1.729 10.391s-6.569 28.749-4.494 29.788c2.074 1.039 4.494 0 4.494 0l4.149-29.095z"/><path fill="#444446" d="m187.653 79.57-2.42.692-1.037 13.855-1.729 12.123-8.297 14.894s4.149-2.771 5.877 5.196l9.138-15.939z"/><path fill="#FFB7B7" d="M206.458 126.227a3.753 3.753 0 0 1 4.932-2.968l8.246-10.498 2.186 6.587-8.165 8.959a3.77 3.77 0 0 1-4.941 2.015 3.78 3.78 0 0 1-2.258-4.095"/><path fill="#D1D1D6" d="m220.498 122.519-3.111 3.811-4.149-7.274 1.729-3.117z"/><path fill="#444446" d="m219.807 74.028 2.766-1.386s2.074 2.771 2.42 5.196 2.074 5.542 2.074 7.274 4.84 18.011 4.84 18.011l-11.063 22.514s-2.42-8.313-7.606-9.006l8.643-12.123-4.84-8.659z"/><path fill="#E5E5EA" d="M279.651 208.839h-133.03a.35.35 0 0 1 0-.7h133.03a.35.35 0 0 1 0 .7"/><path fill="#fff" d="M127.444 74.16H0V44.777h127.444z"/><path fill="url(#d)" d="M18.392 54.492c-.686 0-1.242.557-1.242 1.244 0 .688.556 1.245 1.242 1.245h90.663c.686 0 1.242-.558 1.242-1.245s-.556-1.244-1.242-1.244z"/><path fill="url(#e)" d="M18.393 61.957a1.243 1.243 0 0 0-.005 2.488h57.318a1.243 1.243 0 0 0 0-2.488z"/><path fill="#D1D1D6" d="M127.444 74.16H0V44.777h127.444zM2.095 72.063h123.254V46.875H2.095z"/><path fill="#fff" d="M127.444 118.937H0V89.553h127.444z"/><path fill="#D1D1D6" d="M18.392 99.269c-.686 0-1.242.557-1.242 1.244s.556 1.244 1.242 1.244h90.663a1.243 1.243 0 0 0 0-2.488zM18.393 106.733a1.244 1.244 0 0 0-.005 2.488h57.318a1.243 1.243 0 0 0 0-2.488z"/><path fill="#D1D1D6" d="M127.444 118.937H0V89.553h127.444zM2.095 116.838h123.254V91.652H2.095z"/><path fill="#fff" d="M128.491 29.385H1.047V0H128.49z"/><path fill="url(#f)" d="M19.44 9.716a1.243 1.243 0 0 0 0 2.488h90.664a1.24 1.24 0 0 0 1.239-1.246 1.24 1.24 0 0 0-1.239-1.242z"/><path fill="url(#g)" d="M19.44 17.18a1.243 1.243 0 0 0-1.245 1.242 1.243 1.243 0 0 0 1.24 1.247h57.318a1.243 1.243 0 0 0 1.244-1.242 1.243 1.243 0 0 0-1.24-1.247H19.44"/><path fill="#D1D1D6" d="M128.491 29.385H1.047V0H128.49zm-125.35-2.1h123.255V2.1H3.142z"/><path fill="#F2F2F7" d="M258.117 209v-25.306s9.844 17.941 0 25.306"/><path fill="#F2F2F7" d="m258.726 208.996-18.607-17.114s19.848 4.868 18.607 17.114"/><path fill="url(#h)" d="M169.103 128.305c3.651 0 6.611-2.965 6.611-6.623s-2.96-6.624-6.611-6.624-6.611 2.966-6.611 6.624 2.96 6.623 6.611 6.623"/><path fill="#fff" d="M168.449 124.208a.67.67 0 0 1-.412-.137l-.008-.005-1.554-1.191a.693.693 0 0 1-.127-.97.69.69 0 0 1 .968-.128l1.006.773 2.378-3.108a.69.69 0 0 1 .968-.128l-.015.02.015-.02c.302.233.36.666.128.97l-2.797 3.654a.69.69 0 0 1-.549.27z"/><path fill="#FFB6B6" d="M196.084 67.848c5.227 0 9.464-4.245 9.464-9.481s-4.237-9.481-9.464-9.481c-5.226 0-9.463 4.245-9.463 9.48 0 5.237 4.237 9.482 9.463 9.482"/><path fill="#444446" d="M204.35 65.651s2.803-5.687 2.753-7.858-1.581-7.758-2.228-8.127c-.646-.368-7.615-3.913-9.503-2.847-1.889 1.066-5.213 4.711-8.797 5.697-1.014.28-.129 5.498-.129 5.498l4.195-.608s4.373-3.934 4.563-1.255 4.244 1.563 4.244 1.563l.05 2.171 1.66.09.458-2.31s.746 4.71-.218 7.16c-.965 2.45 2.952.826 2.952.826"/></g><defs><linearGradient id="b" x1="152.343" x2="152.343" y1="8.069" y2="21.316" gradientUnits="userSpaceOnUse"><stop stop-color="#0DAFDC"/><stop offset="1" stop-color="#22E9A2"/></linearGradient><linearGradient id="c" x1="152.343" x2="152.343" y1="52.845" y2="66.092" gradientUnits="userSpaceOnUse"><stop stop-color="#0DAFDC"/><stop offset="1" stop-color="#22E9A2"/></linearGradient><linearGradient id="d" x1="63.724" x2="63.724" y1="54.492" y2="56.98" gradientUnits="userSpaceOnUse"><stop stop-color="#0DAFDC"/><stop offset="1" stop-color="#22E9A2"/></linearGradient><linearGradient id="e" x1="47.048" x2="47.048" y1="61.957" y2="64.445" gradientUnits="userSpaceOnUse"><stop stop-color="#0DAFDC"/><stop offset="1" stop-color="#22E9A2"/></linearGradient><linearGradient id="f" x1="64.772" x2="64.772" y1="9.716" y2="12.204" gradientUnits="userSpaceOnUse"><stop stop-color="#0DAFDC"/><stop offset="1" stop-color="#22E9A2"/></linearGradient><linearGradient id="g" x1="48.096" x2="48.096" y1="17.18" y2="19.669" gradientUnits="userSpaceOnUse"><stop stop-color="#0DAFDC"/><stop offset="1" stop-color="#22E9A2"/></linearGradient><linearGradient id="h" x1="169.103" x2="169.103" y1="115.058" y2="128.305" gradientUnits="userSpaceOnUse"><stop stop-color="#0DAFDC"/><stop offset="1" stop-color="#22E9A2"/></linearGradient><clipPath id="a"><path fill="#fff" d="M0 0h280v209H0z"/></clipPath></defs></svg>