<svg xmlns="http://www.w3.org/2000/svg" width="24" height="24" fill="none"><g clip-path="url(#a)"><path fill="#242426" d="M19.573 0H6.065A3.04 3.04 0 0 0 3.03 3.02v17.96A3.04 3.04 0 0 0 6.065 24h13.517c.37.005.729-.138.994-.397.253-.26.395-.609.394-.972V1.397A1.4 1.4 0 0 0 19.573 0m-5.994 1.143h3.357v5.36l-1.191-1.9a.572.572 0 0 0-.98 0l-1.186 1.891zM4.187 3.02a1.886 1.886 0 0 1 1.878-1.877h6.37V6.97c-.02.464.27.885.712 1.029.503.151.955-.174 1.223-.603l.889-1.428.888 1.428c.266.423.718.749 1.235.603.44-.143.73-.561.711-1.023v-5.82h1.489a.243.243 0 0 1 .24.24v16.571q-.12-.02-.24-.02H6.065c-.682 0-1.344.23-1.878.655zm15.635 17.394-13.175.014a.571.571 0 0 0 0 1.143l13.175-.014v1.063a.24.24 0 0 1-.069.171.24.24 0 0 1-.171.069H6.065a1.879 1.879 0 0 1 0-3.757h13.517a.243.243 0 0 1 .24.24z"/></g><defs><clipPath id="a"><path fill="#fff" d="M0 0h24v24H0z"/></clipPath></defs></svg>