<svg xmlns="http://www.w3.org/2000/svg" width="128" height="128" fill="none"><path fill="#61CFD0" d="M60.01 4.974c2.198 1.457 5.794 1.457 7.988 0l5.804-3.856a4.686 4.686 0 0 1 6.56 1.398l3.734 5.887c1.412 2.226 4.695 3.688 7.295 3.248l6.87-1.165a4.684 4.684 0 0 1 5.427 3.942l1.019 6.883c.387 2.61 2.789 5.285 5.344 5.943l6.743 1.739a4.7 4.7 0 0 1 3.354 5.819l-1.868 6.692c-.709 2.54.4 5.96 2.467 7.6l5.473 4.342a4.69 4.69 0 0 1 .698 6.675l-4.443 5.363c-1.681 2.032-2.056 5.607-.836 7.944l3.227 6.17a4.69 4.69 0 0 1-2.072 6.383l-6.242 3.098c-2.362 1.173-4.158 4.287-3.994 6.919l.432 6.948a4.694 4.694 0 0 1-4.493 4.99l-6.958.295c-2.634.113-5.541 2.227-6.462 4.7l-2.42 6.521a4.69 4.69 0 0 1-6.132 2.734l-6.483-2.563c-2.45-.971-5.967-.224-7.812 1.661l-4.869 4.973a4.697 4.697 0 0 1-6.713.002l-4.876-4.976c-1.847-1.883-5.364-2.63-7.816-1.659l-6.48 2.562a4.69 4.69 0 0 1-6.129-2.733l-2.426-6.521c-.92-2.473-3.827-4.588-6.462-4.701l-6.956-.294a4.697 4.697 0 0 1-4.492-4.99l.435-6.949c.164-2.63-1.634-5.746-3.996-6.919l-6.24-3.098a4.69 4.69 0 0 1-2.074-6.383l3.227-6.17c1.221-2.337.846-5.912-.838-7.941l-4.443-5.37a4.69 4.69 0 0 1 .698-6.673l5.474-4.342c2.066-1.64 3.176-5.058 2.468-7.599L7.85 34.81a4.69 4.69 0 0 1 3.353-5.813l6.747-1.743c2.553-.657 4.959-3.332 5.344-5.942l1.018-6.883a4.687 4.687 0 0 1 5.428-3.942l6.872 1.164c2.6.44 5.883-1.021 7.294-3.247l3.73-5.888A4.69 4.69 0 0 1 54.2 1.118z"/></svg>